Perun-MediumItalic.ufo
<glyph name="exclam" format="2">
	<unicode hex="0021"/>
	<advance width="276"/>
	<outline>
		<contour>
			<point name="n00" x="245.667" y="240.667" type="line"/>
			<point name="n01" x="210.333" y="304" type="line"/>
			<point x="111.333" y="127" type="line"/>
			<point name="n03" x="129.333" y="63.6667" type="line"/>
		</contour>
		<contour>
			<point name="n04" x="286.667" y="481.333" type="line"/>
			<point x="240.333" y="519.667" type="line"/>
			<point x="111.667" y="151" type="line"/>
			<point x="158" y="112.667" type="line"/>
		</contour>
	</outline>
</glyph>
<glyph name="quotedbl" format="2">
	<unicode hex="0022"/>
	<advance width="474"/>
	<outline>
		<contour>
			<point x="434.333" y="722.333" type="line"/>
			<point name="n01" x="313.667" y="722.333" type="line"/>
			<point x="270.667" y="433.333" type="line"/>
			<point name="n03" x="343.333" y="433.333" type="line"/>
		</contour>
		<contour>
			<point x="495" y="722" type="line"/>
			<point x="374.333" y="722" type="line"/>
			<point x="331.333" y="433" type="line"/>
			<point x="404" y="433" type="line"/>
		</contour>
	</outline>
</glyph>
<glyph name="numbersign" format="2">
	<unicode hex="0023"/>
	<advance width="735"/>
	<outline>
		<contour>
			<point x="808" y="521.667" type="line"/>
			<point x="679.667" y="521.667" type="line"/>
			<point name="n02" x="787.333" y="722" type="line"/>
			<point x="704.667" y="722" type="line"/>
			<point x="597" y="521.667" type="line"/>
			<point x="469" y="521.667" type="line"/>
			<point x="577.333" y="722" type="line"/>
			<point x="494" y="722" type="line"/>
			<point x="386.333" y="521.667" type="line"/>
			<point name="n09" x="259" y="521.667" type="line"/>
			<point name="n10" x="220" y="449" type="line"/>
			<point x="348.667" y="449" type="line"/>
			<point x="268.667" y="300" type="line"/>
			<point x="140.667" y="300" type="line"/>
			<point x="100.667" y="227.333" type="line"/>
			<point x="229.667" y="227.333" type="line"/>
			<point name="n16" x="109.333" y="0" type="line"/>
			<point x="192" y="0" type="line"/>
			<point name="n18" x="312.333" y="227.333" type="line"/>
			<point x="440" y="227.333" type="line"/>
			<point x="320" y="-0.333333" type="line"/>
			<point x="402.667" y="0" type="line"/>
			<point x="522.333" y="227.333" type="line"/>
			<point x="649.667" y="227.333" type="line"/>
			<point x="689.667" y="300" type="line"/>
			<point x="561.333" y="300" type="line"/>
			<point x="641" y="449" type="line"/>
			<point x="769" y="449" type="line"/>
		</contour>
		<contour>
			<point x="559.333" y="449" type="line"/>
			<point x="479.667" y="300" type="line"/>
			<point name="n30" x="350.667" y="300" type="line"/>
			<point x="431" y="449" type="line"/>
		</contour>
	</outline>
</glyph>
<glyph name="dollar" format="2">
	<unicode hex="0024"/>
	<advance width="563"/>
	<outline>
		<contour>
			<point x="435.667" y="370" type="curve"/>
			<point x="394.333" y="415"/>
			<point x="336" y="424.333"/>
			<point x="311.333" y="463" type="curve"/>
			<point x="307.706" y="540.587"/>
			<point x="337.976" y="565.219"/>
			<point x="404" y="566.667" type="curve"/>
			<point x="423.667" y="573"/>
			<point x="447.667" y="571.333"/>
			<point x="447.667" y="556.333" type="curve"/>
			<point x="447.667" y="569"/>
			<point x="472" y="571.667"/>
			<point name="n12" x="487.667" y="558.333" type="curve"/>
			<point x="516.359" y="558.333"/>
			<point x="567.927" y="553.333"/>
			<point name="n15" x="583" y="534.333" type="curve"/>
			<point x="585.667" y="543.667"/>
			<point x="587.333" y="552.667"/>
			<point x="586.333" y="561" type="curve"/>
			<point x="596.158" y="635.667"/>
			<point x="569" y="651"/>
			<point x="514" y="651" type="curve"/>
			<point x="413" y="658"/>
			<point x="323.667" y="611.333"/>
			<point x="323.667" y="504.333" type="curve" smooth="yes"/>
			<point x="323.667" y="476"/>
			<point x="347.333" y="476.333"/>
			<point x="375.667" y="461" type="curve"/>
			<point x="329.949" y="459.68"/>
			<point x="299.442" y="414.39"/>
			<point x="305" y="359.333" type="curve"/>
			<point x="346.333" y="317"/>
			<point x="401" y="301.333"/>
			<point x="425.667" y="261" type="curve"/>
			<point x="429.254" y="179.235"/>
			<point x="394.709" y="148.341"/>
			<point x="324" y="147.333" type="curve"/>
			<point x="295.333" y="143.333"/>
			<point x="272.333" y="153.333"/>
			<point x="272.333" y="177.667" type="curve"/>
			<point x="272.333" y="159.667"/>
			<point x="242.333" y="160.667"/>
			<point x="222.333" y="173.333" type="curve"/>
			<point x="191.489" y="173.333"/>
			<point x="139.839" y="181"/>
			<point x="125.667" y="200" type="curve"/>
			<point x="121.667" y="188"/>
			<point x="120.333" y="177"/>
			<point x="121.667" y="169" type="curve"/>
			<point x="112.043" y="84.3333"/>
			<point x="150.184" y="66.3333"/>
			<point x="214" y="66.3333" type="curve"/>
			<point x="324.667" y="58.3333"/>
			<point x="410" y="118.667"/>
			<point x="410" y="231.667" type="curve" smooth="yes"/>
			<point x="410" y="262"/>
			<point x="392.333" y="252.333"/>
			<point x="361.667" y="269" type="curve"/>
			<point x="407.465" y="270.301"/>
			<point x="441.243" y="313.939"/>
		</contour>
		<contour>
			<point x="406.667" y="497" type="line"/>
			<point x="390" y="497" type="line"/>
			<point x="320.667" y="196.333" type="line"/>
			<point x="337.333" y="196.333" type="line"/>
		</contour>
	</outline>
</glyph>
<glyph name="percent" format="2">
	<unicode hex="0025"/>
	<advance width="951"/>
	<outline>
		<contour>
			<point x="161.667" y="480" type="curve" smooth="yes"/>
			<point x="161.667" y="384.667"/>
			<point x="220.667" y="335.667"/>
			<point x="308.333" y="335.667" type="curve" smooth="yes"/>
			<point x="444.667" y="335.667"/>
			<point x="545.667" y="455.333"/>
			<point x="545.667" y="580.667" type="curve" smooth="yes"/>
			<point x="545.667" y="672"/>
			<point x="491.333" y="727"/>
			<point x="398.333" y="727" type="curve" smooth="yes"/>
			<point x="262" y="727"/>
			<point x="161.667" y="605.333"/>
		</contour>
		<contour>
			<point x="320.333" y="400.667" type="curve" smooth="yes"/>
			<point x="271.333" y="400.667"/>
			<point x="252" y="429.333"/>
			<point x="252" y="479.667" type="curve" smooth="yes"/>
			<point x="252" y="551.667"/>
			<point x="291.667" y="658.667"/>
			<point x="385" y="658.667" type="curve" smooth="yes"/>
			<point x="433.333" y="658.667"/>
			<point x="452.333" y="629.333"/>
			<point x="452.333" y="579" type="curve" smooth="yes"/>
			<point x="452.333" y="506.333"/>
			<point x="414" y="400.667"/>
		</contour>
		<contour>
			<point name="n24" x="214.667" y="-14" type="line"/>
			<point x="313.667" y="-14" type="line"/>
			<point name="n26" x="912.333" y="736" type="line"/>
			<point x="813.333" y="736" type="line"/>
		</contour>
		<contour>
			<point x="571.667" y="139" type="curve" smooth="yes"/>
			<point x="571.667" y="46.6667"/>
			<point x="626" y="-5"/>
			<point x="717" y="-5" type="curve" smooth="yes"/>
			<point x="855" y="-5"/>
			<point x="957.333" y="113.667"/>
			<point x="957.333" y="242" type="curve" smooth="yes"/>
			<point x="957.333" y="338.667"/>
			<point x="899" y="387"/>
			<point x="811.333" y="387" type="curve" smooth="yes"/>
			<point x="672.667" y="387"/>
			<point x="571.667" y="265"/>
		</contour>
		<contour>
			<point x="730" y="60" type="curve" smooth="yes"/>
			<point x="681" y="60"/>
			<point x="662" y="88.3333"/>
			<point x="662" y="139.333" type="curve" smooth="yes"/>
			<point x="662" y="211.667"/>
			<point x="700.667" y="318.667"/>
			<point x="795.667" y="318.667" type="curve" smooth="yes"/>
			<point x="845" y="318.667"/>
			<point x="864" y="290.333"/>
			<point x="864" y="239.333" type="curve" smooth="yes"/>
			<point x="864" y="167.333"/>
			<point x="825.667" y="60"/>
		</contour>
	</outline>
	<guideline x="0" y="543" angle="0"/>
</glyph>
<glyph name="quotesingle" format="2">
	<unicode hex="0027"/>
	<advance width="287"/>
	<outline>
		<contour>
			<point name="n00" x="364.333" y="722" type="line"/>
			<point name="n01" x="243.667" y="722" type="line"/>
			<point name="n02" x="200.667" y="433.333" type="line"/>
			<point name="n03" x="273.333" y="433.333" type="line"/>
		</contour>
	</outline>
</glyph>
<glyph name="parenleft" format="2">
  <advance width="368"/>
  <unicode hex="0028"/>
  <outline>
    <contour>
      <point x="247" y="-132" type="line"/>
      <point x="240" y="-72.6667"/>
      <point x="236" y="-14.6667"/>
      <point x="236" y="41.3333" type="curve" smooth="yes"/>
      <point x="236" y="298"/>
      <point x="317" y="515.333"/>
      <point x="447" y="736" type="curve"/>
      <point x="367.667" y="736" type="line"/>
      <point x="229" y="550.667"/>
      <point x="135.667" y="325"/>
      <point x="135.667" y="91.3333" type="curve" smooth="yes"/>
      <point x="135.667" y="14"/>
      <point x="146" y="-59.6667"/>
      <point x="167" y="-132" type="curve"/>
    </contour>
  </outline>
</glyph>
<glyph name="parenright" format="2">
	<unicode hex="0029"/>
	<advance width="368"/>
	<outline>
		<contour>
			<point x="372.333" y="513.333" type="curve" smooth="yes"/>
			<point x="372.333" y="589.333"/>
			<point x="362" y="664"/>
			<point x="341" y="736" type="curve"/>
			<point x="261" y="736" type="line"/>
			<point x="269" y="678"/>
			<point x="272.333" y="621.667"/>
			<point x="272.333" y="569.333" type="curve" smooth="yes"/>
			<point x="272.333" y="308.667"/>
			<point x="189.667" y="88.6667"/>
			<point x="60.6667" y="-132" type="curve"/>
			<point x="140" y="-132" type="line"/>
			<point x="278" y="53.6667"/>
			<point x="372.333" y="279.333"/>
		</contour>
	</outline>
</glyph>
<glyph name="asterisk" format="2">
  <advance width="651"/>
  <unicode hex="002A"/>
  <outline>
    <contour>
      <point x="639" y="487.333" type="line"/>
      <point x="659.667" y="576" type="line"/>
      <point x="492.667" y="553.333" type="line"/>
      <point x="623.667" y="684" type="line"/>
      <point x="555" y="726.333" type="line"/>
      <point x="460.667" y="582" type="line"/>
      <point x="433.667" y="726.333" type="line"/>
      <point x="344" y="684" type="line"/>
      <point x="415" y="553.333" type="line"/>
      <point x="258.667" y="576" type="line"/>
      <point x="238" y="487.333" type="line"/>
      <point x="405" y="510" type="line"/>
      <point x="274" y="379.333" type="line"/>
      <point x="343" y="336" type="line"/>
      <point x="437.333" y="481.333" type="line"/>
      <point x="464.333" y="336" type="line"/>
      <point x="553.667" y="379.333" type="line"/>
      <point x="482.667" y="510" type="line"/>
    </contour>
  </outline>
</glyph>
<glyph name="plus" format="2">
	<unicode hex="002B"/>
	<advance width="800"/>
	<outline>
		<contour>
			<point name="n00" x="762" y="269" type="line"/>
			<point name="n01" x="776" y="331" type="line"/>
			<point x="507" y="331" type="line"/>
			<point x="570" y="600" type="line"/>
			<point x="508" y="600" type="line"/>
			<point x="445" y="331" type="line"/>
			<point x="176" y="331" type="line"/>
			<point x="162" y="269" type="line"/>
			<point x="431" y="269" type="line"/>
			<point name="n09" x="369" y="0" type="line"/>
			<point x="431" y="0" type="line"/>
			<point x="493" y="269" type="line"/>
		</contour>
	</outline>
</glyph>
<glyph name="comma" format="2">
	<unicode hex="002C"/>
	<advance width="287"/>
	<outline>
		<contour>
			<point name="n00" x="267.667" y="123" type="line"/>
			<point name="n01" x="142.333" y="123" type="line"/>
			<point name="n02" x="18.6667" y="-127.667" type="line"/>
			<point name="n03" x="97" y="-127.667" type="line"/>
		</contour>
	</outline>
</glyph>
<glyph name="hyphen" format="2">
  <advance width="325"/>
  <unicode hex="002D"/>
  <outline>
    <contour>
      <point x="331.667" y="198.667" type="line"/>
      <point x="354.333" y="297" type="line"/>
      <point x="108.667" y="297" type="line"/>
      <point x="86" y="198.667" type="line"/>
    </contour>
  </outline>
</glyph>
<glyph name="period" format="2">
	<unicode hex="002E"/>
	<advance width="281"/>
	<outline>
		<contour>
			<point name="n00" x="212" y="0" type="line"/>
			<point name="n01" x="240.667" y="126" type="line"/>
			<point x="126.667" y="126" type="line"/>
			<point name="n03" x="98" y="0" type="line"/>
		</contour>
	</outline>
</glyph>
<glyph name="slash" format="2">
  <advance width="406"/>
  <unicode hex="002F"/>
  <outline>
    <contour>
      <point x="531" y="736" type="line"/>
      <point x="452" y="736" type="line"/>
      <point x="34" y="-52" type="line"/>
      <point x="113" y="-52" type="line"/>
    </contour>
  </outline>
</glyph>
<glyph name="zero" format="2">
	<unicode hex="0030"/>
	<advance width="577"/>
	<outline>
		<contour>
			<point x="637.333" y="532.333" type="curve" smooth="yes"/>
			<point x="637.333" y="657"/>
			<point x="571.333" y="737.333"/>
			<point x="454.667" y="737.333" type="curve" smooth="yes"/>
			<point x="424.667" y="737.333"/>
			<point x="400.333" y="733"/>
			<point x="376.667" y="724.667" type="curve"/>
			<point x="376.667" y="630.333" type="line"/>
			<point x="400" y="644.333"/>
			<point x="421.333" y="646.333"/>
			<point x="444" y="646.333" type="curve" smooth="yes"/>
			<point x="495.667" y="646.333"/>
			<point x="527.667" y="613.333"/>
			<point x="527.667" y="489.667" type="curve" smooth="yes"/>
			<point x="527.667" y="358.333"/>
			<point x="460.667" y="144.333"/>
			<point x="366.667" y="94.3333" type="curve"/>
			<point x="366.667" y="0" type="line"/>
			<point x="532.333" y="48.3333"/>
			<point x="637.333" y="287.333"/>
		</contour>
		<contour>
			<point x="106" y="192.333" type="curve" smooth="yes"/>
			<point x="106" y="67.6667"/>
			<point x="172" y="-12.6667"/>
			<point x="288.667" y="-12.6667" type="curve" smooth="yes"/>
			<point x="318.667" y="-12.6667"/>
			<point x="343" y="-8.33333"/>
			<point x="366.667" y="0" type="curve"/>
			<point x="366.667" y="94.3333" type="line"/>
			<point x="343.333" y="80.3333"/>
			<point x="322" y="78.3333"/>
			<point x="299.333" y="78.3333" type="curve" smooth="yes"/>
			<point x="247.667" y="78.3333"/>
			<point x="215.667" y="111.333"/>
			<point x="215.667" y="235" type="curve" smooth="yes"/>
			<point x="215.667" y="366.333"/>
			<point x="282.667" y="580.333"/>
			<point x="376.667" y="630.333" type="curve"/>
			<point x="376.667" y="724.667" type="line"/>
			<point x="211" y="676.333"/>
			<point x="106" y="437.333"/>
		</contour>
	</outline>
	<guideline x="0" y="769" angle="0"/>
</glyph>
<glyph name="one" format="2">
	<unicode hex="0031"/>
	<advance width="474"/>
	<outline>
		<contour>
			<point name="n00" x="353.333" y="0" type="line"/>
			<point name="n01" x="520.333" y="722" type="line"/>
			<point x="412" y="722" type="line"/>
			<point x="375.667" y="688.667"/>
			<point x="289" y="634"/>
			<point x="225" y="604.667" type="curve"/>
			<point name="n06" x="202.667" y="508.333" type="line"/>
			<point x="274.667" y="534.667"/>
			<point x="335.333" y="563.333"/>
			<point x="383.667" y="594.333" type="curve"/>
			<point x="246.333" y="0" type="line"/>
		</contour>
	</outline>
</glyph>
<glyph name="two" format="2">
	<unicode hex="0032"/>
	<advance width="563"/>
	<outline>
		<contour>
			<point x="49.6667" y="0" type="line"/>
			<point name="n01" x="509.667" y="0" type="line"/>
			<point name="n02" x="530.333" y="90.3333" type="line"/>
			<point x="195.333" y="90.3333" type="line"/>
			<point x="398.667" y="240" type="line"/>
			<point x="545" y="350"/>
			<point x="639.333" y="447.667"/>
			<point x="639.333" y="578" type="curve" smooth="yes"/>
			<point x="639.333" y="669.667"/>
			<point x="575" y="736"/>
			<point name="n10" x="455.333" y="736" type="curve" smooth="yes"/>
			<point x="329.333" y="736"/>
			<point x="223.667" y="662.667"/>
			<point x="185" y="525" type="curve"/>
			<point x="301.333" y="525" type="line"/>
			<point x="324.333" y="598"/>
			<point x="369.333" y="644"/>
			<point name="n17" x="442.333" y="644" type="curve" smooth="yes"/>
			<point x="498" y="644"/>
			<point x="524.667" y="617"/>
			<point x="524.667" y="570.667" type="curve" smooth="yes"/>
			<point x="524.667" y="469"/>
			<point x="446.333" y="396.333"/>
			<point x="347" y="317.333" type="curve"/>
			<point x="73.6667" y="105" type="line"/>
		</contour>
	</outline>
</glyph>
<glyph name="three" format="2">
	<unicode hex="0033"/>
	<advance width="563"/>
	<outline>
		<contour>
			<point name="n00" x="91" y="195.667" type="line"/>
			<point x="86.3333" y="175.333"/>
			<point x="84.3333" y="157"/>
			<point x="84.3333" y="140.333" type="curve" smooth="yes"/>
			<point x="84.3333" y="42.3333"/>
			<point x="155.667" y="-12.6667"/>
			<point x="274" y="-12.6667" type="curve" smooth="yes"/>
			<point x="420.667" y="-12.6667"/>
			<point x="569.333" y="95"/>
			<point x="569.333" y="235.667" type="curve" smooth="yes"/>
			<point x="569.333" y="316"/>
			<point x="520.333" y="357.333"/>
			<point x="460" y="378.333" type="curve"/>
			<point x="555" y="419.667"/>
			<point x="633.667" y="482.333"/>
			<point x="633.667" y="583" type="curve" smooth="yes"/>
			<point x="633.667" y="680.667"/>
			<point x="560.667" y="736.667"/>
			<point name="n18" x="449.333" y="736.667" type="curve" smooth="yes"/>
			<point x="319.667" y="736.667"/>
			<point x="219.667" y="659.333"/>
			<point x="179.333" y="534" type="curve"/>
			<point x="294" y="534" type="line"/>
			<point x="321.333" y="609"/>
			<point x="371" y="648.667"/>
			<point name="n25" x="433.333" y="648.667" type="curve" smooth="yes"/>
			<point x="482.667" y="648.667"/>
			<point x="518.333" y="623"/>
			<point x="518.333" y="573.333" type="curve" smooth="yes"/>
			<point x="518.333" y="462.667"/>
			<point x="417.333" y="421"/>
			<point x="316.333" y="421" type="curve" smooth="yes"/>
			<point name="n32" x="307" y="421" type="line"/>
			<point x="286.333" y="331" type="line"/>
			<point name="n34" x="312" y="331" type="line" smooth="yes"/>
			<point x="403" y="331"/>
			<point x="454" y="302.333"/>
			<point x="454" y="232.333" type="curve" smooth="yes"/>
			<point x="454" y="149.667"/>
			<point x="382.333" y="75.3333"/>
			<point x="293.333" y="75.3333" type="curve" smooth="yes"/>
			<point x="237.667" y="75.3333"/>
			<point x="203.667" y="104"/>
			<point x="203.667" y="156.667" type="curve" smooth="yes"/>
			<point x="203.667" y="168.667"/>
			<point x="205.667" y="182"/>
			<point name="n46" x="208.667" y="195.667" type="curve"/>
		</contour>
	</outline>
</glyph>
<glyph name="four" format="2">
  <advance width="563"/>
  <unicode hex="0034"/>
  <outline>
    <contour>
      <point x="576" y="170" type="line"/>
      <point x="597.667" y="263.667" type="line"/>
      <point x="508.333" y="263.667" type="line"/>
      <point x="614.333" y="722" type="line"/>
      <point x="482.667" y="722" type="line"/>
      <point x="92.6667" y="283.333" type="line"/>
      <point x="66.6667" y="170" type="line"/>
      <point x="379.667" y="170" type="line"/>
      <point x="340.333" y="0" type="line"/>
      <point x="447.333" y="0" type="line"/>
      <point x="486.667" y="170" type="line"/>
    </contour>
    <contour>
      <point x="401.333" y="263.667" type="line"/>
      <point x="182.667" y="263.667" type="line"/>
      <point x="479.667" y="604.667" type="line"/>
    </contour>
  </outline>
</glyph>
<glyph name="five" format="2">
	<unicode hex="0035"/>
	<advance width="563"/>
	<outline>
		<contour>
			<point name="n00" x="89.6667" y="178.667" type="line"/>
			<point x="86" y="162"/>
			<point x="84.3333" y="146.333"/>
			<point x="84.3333" y="132.333" type="curve" smooth="yes"/>
			<point x="84.3333" y="34"/>
			<point x="162.667" y="-12.6667"/>
			<point x="277.333" y="-12.6667" type="curve" smooth="yes"/>
			<point x="448" y="-12.6667"/>
			<point x="580.667" y="131.333"/>
			<point x="580.667" y="314.667" type="curve" smooth="yes"/>
			<point x="580.667" y="407"/>
			<point x="530.333" y="477"/>
			<point name="n12" x="425.333" y="477" type="curve" smooth="yes"/>
			<point x="364" y="477"/>
			<point x="309" y="452.667"/>
			<point x="273" y="414.667" type="curve"/>
			<point x="324" y="628.333" type="line"/>
			<point name="n17" x="615" y="628.333" type="line"/>
			<point name="n18" x="636.667" y="722" type="line"/>
			<point x="234.667" y="722" type="line"/>
			<point x="136.667" y="298.667" type="line"/>
			<point x="230.333" y="298.667" type="line"/>
			<point x="272.667" y="362.333"/>
			<point x="320" y="393.667"/>
			<point name="n24" x="379" y="393.667" type="curve" smooth="yes"/>
			<point x="437" y="393.667"/>
			<point x="465.667" y="363.667"/>
			<point x="465.667" y="300.333" type="curve" smooth="yes"/>
			<point x="465.667" y="207.333"/>
			<point x="404" y="77.3333"/>
			<point x="287" y="77.3333" type="curve" smooth="yes"/>
			<point x="236.333" y="77.3333"/>
			<point x="200.667" y="101.333"/>
			<point x="200.667" y="150.667" type="curve" smooth="yes"/>
			<point x="200.667" y="159.333"/>
			<point x="201.667" y="168.667"/>
			<point name="n36" x="204.333" y="178.667" type="curve"/>
		</contour>
	</outline>
</glyph>
<glyph name="six" format="2">
	<unicode hex="0036"/>
	<advance width="563"/>
	<outline>
		<contour>
			<point x="93.6667" y="166.333" type="curve" smooth="yes"/>
			<point x="93.6667" y="47"/>
			<point x="167.667" y="-12.6667"/>
			<point x="279.333" y="-12.6667" type="curve" smooth="yes"/>
			<point x="455" y="-12.6667"/>
			<point x="582.667" y="132"/>
			<point x="582.667" y="291.333" type="curve" smooth="yes"/>
			<point x="582.667" y="392.333"/>
			<point x="522.333" y="451"/>
			<point name="n09" x="415" y="451" type="curve" smooth="yes"/>
			<point x="347" y="451"/>
			<point x="286.333" y="413.667"/>
			<point x="238" y="360.667" type="curve"/>
			<point x="266" y="480"/>
			<point x="320.333" y="648.333"/>
			<point x="450" y="648.333" type="curve" smooth="yes"/>
			<point x="495.667" y="648.333"/>
			<point x="520.667" y="615.333"/>
			<point x="520.667" y="572.667" type="curve" smooth="yes"/>
			<point x="520.667" y="564"/>
			<point x="520" y="555.667"/>
			<point x="518" y="546.667" type="curve"/>
			<point x="630" y="546.667" type="line"/>
			<point x="633.333" y="560.333"/>
			<point x="635" y="573"/>
			<point x="635" y="586.667" type="curve" smooth="yes"/>
			<point x="635" y="677.333"/>
			<point x="567.333" y="736.667"/>
			<point x="463" y="736.667" type="curve" smooth="yes"/>
			<point x="208.667" y="736.667"/>
			<point x="93.6667" y="383.667"/>
		</contour>
		<contour>
			<point x="213" y="171.667" type="curve" smooth="yes"/>
			<point x="213" y="259"/>
			<point x="266.667" y="366"/>
			<point name="n34" x="375.667" y="366" type="curve" smooth="yes"/>
			<point x="437" y="366"/>
			<point x="463.333" y="331.333"/>
			<point x="463.333" y="269.333" type="curve" smooth="yes"/>
			<point x="463.333" y="183"/>
			<point x="411" y="74.6667"/>
			<point x="301.667" y="74.6667" type="curve" smooth="yes"/>
			<point x="241" y="74.6667"/>
			<point x="213" y="108.333"/>
		</contour>
	</outline>
</glyph>
<glyph name="seven" format="2">
	<unicode hex="0037"/>
	<advance width="563"/>
	<outline>
		<contour>
			<point x="651.667" y="608.667" type="line"/>
			<point x="678" y="722" type="line"/>
			<point name="n02" x="220" y="722" type="line"/>
			<point name="n03" x="198.333" y="630.333" type="line"/>
			<point x="551.667" y="630.333" type="line"/>
			<point name="n05" x="144" y="0" type="line"/>
			<point x="272.667" y="0" type="line"/>
		</contour>
	</outline>
</glyph>
<glyph name="eight" format="2">
  <advance width="563"/>
  <unicode hex="0038"/>
  <outline>
    <contour>
      <point x="75.3333" y="139.667" type="curve" smooth="yes"/>
      <point x="75.3333" y="33"/>
      <point x="161.667" y="-12.6667"/>
      <point x="274.667" y="-12.6667" type="curve" smooth="yes"/>
      <point x="434.333" y="-12.6667"/>
      <point x="573.333" y="79.3333"/>
      <point x="573.333" y="240.667" type="curve" smooth="yes"/>
      <point x="573.333" y="329"/>
      <point x="524" y="363"/>
      <point x="464.667" y="385.333" type="curve"/>
      <point x="559.667" y="426"/>
      <point x="638.333" y="492.333"/>
      <point x="638.333" y="590.333" type="curve" smooth="yes"/>
      <point x="638.333" y="690.333"/>
      <point x="557" y="736.667"/>
      <point x="453.333" y="736.667" type="curve" smooth="yes"/>
      <point x="317.667" y="736.667"/>
      <point x="179.667" y="657.333"/>
      <point x="179.667" y="515.333" type="curve" smooth="yes"/>
      <point x="179.667" y="448.333"/>
      <point x="217.333" y="406.667"/>
      <point x="268" y="384.667" type="curve"/>
      <point x="160" y="339.333"/>
      <point x="75.3333" y="258.333"/>
    </contour>
    <contour>
      <point x="377.333" y="426.333" type="curve" smooth="yes"/>
      <point x="323.667" y="426.333"/>
      <point x="288.333" y="458"/>
      <point x="288.333" y="514" type="curve" smooth="yes"/>
      <point x="288.333" y="588"/>
      <point x="349.667" y="648"/>
      <point x="430" y="648" type="curve" smooth="yes"/>
      <point x="485" y="648"/>
      <point x="519" y="619.667"/>
      <point x="519" y="565" type="curve" smooth="yes"/>
      <point x="519" y="491"/>
      <point x="455.333" y="426.333"/>
    </contour>
    <contour>
      <point x="194.667" y="171" type="curve" smooth="yes"/>
      <point x="194.667" y="258.333"/>
      <point x="262.333" y="337.667"/>
      <point x="356.667" y="337.667" type="curve" smooth="yes"/>
      <point x="420.667" y="337.667"/>
      <point x="457.333" y="301"/>
      <point x="457.333" y="237" type="curve" smooth="yes"/>
      <point x="457.333" y="150.667"/>
      <point x="391.667" y="75"/>
      <point x="294.333" y="75" type="curve" smooth="yes"/>
      <point x="228.667" y="75"/>
      <point x="194.667" y="108.333"/>
    </contour>
  </outline>
</glyph>
<glyph name="nine" format="2">
	<unicode hex="0039"/>
	<advance width="563"/>
	<outline>
		<contour>
			<point x="211" y="174.667" type="curve"/>
			<point x="101" y="174.667" type="line"/>
			<point x="99" y="161.333"/>
			<point x="98.3333" y="148.667"/>
			<point x="98.3333" y="135" type="curve" smooth="yes"/>
			<point x="98.3333" y="39.6667"/>
			<point x="155" y="-12.6667"/>
			<point x="256.667" y="-12.6667" type="curve" smooth="yes"/>
			<point x="522" y="-12.6667"/>
			<point x="637" y="344"/>
			<point x="637" y="561.667" type="curve" smooth="yes"/>
			<point x="637" y="667"/>
			<point x="589" y="736.667"/>
			<point x="448.333" y="736.667" type="curve" smooth="yes"/>
			<point x="266.333" y="736.667"/>
			<point x="149.333" y="601.667"/>
			<point x="149.333" y="434" type="curve" smooth="yes"/>
			<point x="149.333" y="336.667"/>
			<point x="201.333" y="269.667"/>
			<point x="305.333" y="269.667" type="curve" smooth="yes"/>
			<point x="391.333" y="269.667"/>
			<point x="444.667" y="301.333"/>
			<point x="496" y="361" type="curve"/>
			<point x="472" y="261.667"/>
			<point x="413" y="75.6667"/>
			<point x="287.333" y="75.6667" type="curve" smooth="yes"/>
			<point x="232.333" y="75.6667"/>
			<point x="208" y="99.3333"/>
			<point x="208" y="144.333" type="curve" smooth="yes"/>
			<point x="208" y="153.333"/>
			<point x="209" y="164"/>
		</contour>
		<contour>
			<point x="356.333" y="355.667" type="curve" smooth="yes"/>
			<point x="292.667" y="355.667"/>
			<point x="266.667" y="389"/>
			<point x="266.667" y="444.333" type="curve" smooth="yes"/>
			<point x="266.667" y="539.333"/>
			<point x="315.333" y="648.667"/>
			<point x="430" y="648.667" type="curve" smooth="yes"/>
			<point x="493.667" y="648.667"/>
			<point x="519.667" y="616"/>
			<point x="519.667" y="560.667" type="curve" smooth="yes"/>
			<point x="519.667" y="466"/>
			<point x="470.333" y="355.667"/>
		</contour>
	</outline>
</glyph>
<glyph name="colon" format="2">
  <advance width="287"/>
  <unicode hex="003A"/>
  <outline>
    <contour>
      <point x="311.333" y="374" type="line"/>
      <point x="340" y="500" type="line"/>
      <point x="226" y="500" type="line"/>
      <point x="197.333" y="374" type="line"/>
    </contour>
    <contour>
      <point x="225" y="0" type="line"/>
      <point x="253.667" y="126" type="line"/>
      <point x="139.667" y="126" type="line"/>
      <point x="111" y="0" type="line"/>
    </contour>
  </outline>
</glyph>
<glyph name="semicolon" format="2">
	<unicode hex="003B"/>
	<advance width="287"/>
	<outline>
		<contour>
			<point name="n00" x="306.333" y="374" type="line"/>
			<point name="n01" x="335" y="500" type="line"/>
			<point x="221" y="500" type="line"/>
			<point x="192.333" y="374" type="line"/>
		</contour>
		<contour>
			<point x="268.333" y="126" type="line"/>
			<point x="143" y="126" type="line"/>
			<point name="n06" x="19.3333" y="-124.667" type="line"/>
			<point x="97.6667" y="-124.667" type="line"/>
		</contour>
	</outline>
</glyph>
<glyph name="less" format="2">
  <advance width="800"/>
  <unicode hex="003C"/>
  <outline>
    <contour>
      <point x="709" y="39" type="line"/>
      <point x="723" y="101" type="line"/>
      <point x="233" y="300" type="line"/>
      <point x="815" y="499" type="line"/>
      <point x="830" y="561" type="line"/>
      <point x="176" y="331" type="line"/>
      <point x="162" y="269" type="line"/>
    </contour>
  </outline>
</glyph>
<glyph name="equal" format="2">
	<unicode hex="003D"/>
	<advance width="800"/>
	<outline>
		<contour>
			<point name="n00" x="783" y="360" type="line"/>
			<point name="n01" x="797" y="422" type="line"/>
			<point x="197" y="422" type="line"/>
			<point x="183" y="360" type="line"/>
		</contour>
		<contour>
			<point name="n04" x="741" y="178" type="line"/>
			<point name="n05" x="755" y="240" type="line"/>
			<point x="155" y="240" type="line"/>
			<point x="141" y="178" type="line"/>
		</contour>
	</outline>
</glyph>
<glyph name="greater" format="2">
	<unicode hex="003E"/>
	<advance width="800"/>
	<outline>
		<contour>
			<point x="762" y="269" type="line"/>
			<point name="n01" x="776" y="331" type="line"/>
			<point x="230" y="561" type="line"/>
			<point name="n03" x="215" y="499" type="line"/>
			<point x="705" y="300" type="line"/>
			<point x="123" y="101" type="line"/>
			<point name="n06" x="109" y="39" type="line"/>
		</contour>
	</outline>
</glyph>
<glyph name="question" format="2">
	<unicode hex="003F"/>
	<advance width="524"/>
	<outline>
		<contour>
			<point x="242.667" y="273.667" type="curve"/>
			<point x="218.667" y="170.333" type="line"/>
			<point x="305.333" y="170.333" type="line"/>
			<point x="319.333" y="235.333" type="line" smooth="yes"/>
			<point x="332" y="294.333"/>
			<point x="394.667" y="339.667"/>
			<point x="454.667" y="381.333" type="curve" smooth="yes"/>
			<point x="527.333" y="432"/>
			<point x="599.333" y="490"/>
			<point x="599.333" y="583.333" type="curve" smooth="yes"/>
			<point x="599.333" y="683.667"/>
			<point x="515" y="736"/>
			<point x="403" y="736" type="curve" smooth="yes"/>
			<point x="305.667" y="736"/>
			<point x="221.333" y="683.667"/>
			<point x="162.667" y="601" type="curve"/>
			<point x="231.667" y="548.667" type="line"/>
			<point x="271.667" y="609.333"/>
			<point x="315.667" y="648.667"/>
			<point x="386.667" y="648.667" type="curve" smooth="yes"/>
			<point x="451" y="648.667"/>
			<point x="484.333" y="615.667"/>
			<point x="484.333" y="571.667" type="curve" smooth="yes"/>
			<point x="484.333" y="490.667"/>
			<point x="420" y="444.333"/>
			<point x="357" y="399.333" type="curve" smooth="yes"/>
			<point x="306.333" y="364.333"/>
			<point x="256.667" y="329.333"/>
		</contour>
		<contour>
			<point name="n28" x="275" y="-1" type="line"/>
			<point name="n29" x="298.333" y="99.6667" type="line"/>
			<point x="191.667" y="99.6667" type="line"/>
			<point x="168.333" y="-1" type="line"/>
		</contour>
	</outline>
</glyph>
<glyph name="at" format="2">
  <advance width="1013"/>
  <unicode hex="0040"/>
  <outline>
    <contour>
      <point x="102.333" y="150" type="curve" smooth="yes"/>
      <point x="102.333" y="-69.3333"/>
      <point x="250" y="-189.667"/>
      <point x="486" y="-189.667" type="curve" smooth="yes"/>
      <point x="557.333" y="-189.667"/>
      <point x="591.333" y="-185.667"/>
      <point x="670.333" y="-166.667" type="curve"/>
      <point x="693" y="-67" type="line"/>
      <point x="616.333" y="-89"/>
      <point x="577.333" y="-90"/>
      <point x="490" y="-90" type="curve" smooth="yes"/>
      <point x="314" y="-90"/>
      <point x="215" y="8.33333"/>
      <point x="215" y="169" type="curve" smooth="yes"/>
      <point x="215" y="414.333"/>
      <point x="399.333" y="624.333"/>
      <point x="656.667" y="624.333" type="curve" smooth="yes"/>
      <point x="831.333" y="624.333"/>
      <point x="931.333" y="553.333"/>
      <point x="931.333" y="405.667" type="curve" smooth="yes"/>
      <point x="931.333" y="319"/>
      <point x="884.333" y="106"/>
      <point x="787" y="106" type="curve" smooth="yes"/>
      <point x="764.333" y="106"/>
      <point x="747.667" y="117.667"/>
      <point x="746.333" y="149.667" type="curve"/>
      <point x="822.333" y="487" type="line"/>
      <point x="716.667" y="487" type="line"/>
      <point x="703.667" y="432" type="line"/>
      <point x="677.333" y="474.667"/>
      <point x="651.333" y="497"/>
      <point x="578.333" y="497" type="curve" smooth="yes"/>
      <point x="430.667" y="497"/>
      <point x="328.667" y="327.333"/>
      <point x="328.667" y="191.333" type="curve" smooth="yes"/>
      <point x="328.667" y="96.3333"/>
      <point x="378.333" y="20.6667"/>
      <point x="469.667" y="20.6667" type="curve" smooth="yes"/>
      <point x="546.667" y="20.6667"/>
      <point x="599.333" y="55.6667"/>
      <point x="642" y="106.333" type="curve"/>
      <point x="657.333" y="44.3333"/>
      <point x="697" y="16"/>
      <point x="758" y="16" type="curve" smooth="yes"/>
      <point x="937.333" y="16"/>
      <point x="1044" y="256.333"/>
      <point x="1044" y="422.667" type="curve" smooth="yes"/>
      <point x="1044" y="617.333"/>
      <point x="896" y="722.667"/>
      <point x="674.667" y="722.667" type="curve" smooth="yes"/>
      <point x="358.333" y="722.667"/>
      <point x="102.333" y="461.333"/>
    </contour>
    <contour>
      <point x="438.667" y="196" type="curve" smooth="yes"/>
      <point x="438.667" y="281.667"/>
      <point x="488.667" y="415.667"/>
      <point x="591.667" y="415.667" type="curve" smooth="yes"/>
      <point x="647.333" y="415.667"/>
      <point x="668.333" y="376"/>
      <point x="668.333" y="324" type="curve" smooth="yes"/>
      <point x="668.333" y="239"/>
      <point x="611.667" y="102"/>
      <point x="512" y="102" type="curve" smooth="yes"/>
      <point x="463" y="102"/>
      <point x="438.667" y="136"/>
    </contour>
  </outline>
</glyph>
<glyph name="A" format="2">
	<unicode hex="0041"/>
	<advance width="736"/>
	<outline>
		<contour>
			<point name="n00" x="723.333" y="0" type="line"/>
			<point name="n01" x="595.333" y="721.333" type="line"/>
			<point x="472.333" y="721.333" type="line"/>
			<point x="13.3333" y="0" type="line"/>
			<point x="130.333" y="0" type="line"/>
			<point x="243.333" y="180" type="line"/>
			<point name="n06" x="574.333" y="180" type="line"/>
			<point x="604.333" y="0" type="line"/>
		</contour>
		<contour>
			<point name="n08" x="553.667" y="275" type="line"/>
			<point x="304.667" y="275" type="line"/>
			<point x="503" y="594.333" type="line"/>
		</contour>
	</outline>
</glyph>
<glyph name="B" format="2">
  <advance width="653"/>
  <unicode hex="0042"/>
  <anchor x="283.333" y="-60" name="bottom"/>
  <anchor x="441" y="800" name="top"/>
  <outline>
    <contour>
      <point x="64" y="0" type="line"/>
      <point x="377" y="0" type="line" smooth="yes"/>
      <point x="506.667" y="0"/>
      <point x="652" y="103.333"/>
      <point x="652" y="236.667" type="curve" smooth="yes"/>
      <point x="652" y="322.333"/>
      <point x="591.667" y="360.667"/>
      <point x="531.333" y="380.333" type="curve"/>
      <point x="532" y="385" type="line"/>
      <point x="626.667" y="412.333"/>
      <point x="704" y="483.667"/>
      <point x="704" y="580.333" type="curve" smooth="yes"/>
      <point x="704" y="677.333"/>
      <point x="627.333" y="722"/>
      <point x="523.333" y="722" type="curve" smooth="yes"/>
      <point x="230.667" y="722" type="line"/>
    </contour>
    <contour>
      <point x="278.667" y="422.333" type="line"/>
      <point x="325.667" y="626" type="line"/>
      <point x="467" y="626" type="line" smooth="yes"/>
      <point x="543" y="626"/>
      <point x="583.333" y="599.333"/>
      <point x="583.333" y="548" type="curve" smooth="yes"/>
      <point x="583.333" y="455.333"/>
      <point x="496.333" y="422.333"/>
      <point x="415" y="422.333" type="curve" smooth="yes"/>
    </contour>
    <contour>
      <point x="203" y="96" type="line"/>
      <point x="257" y="329" type="line"/>
      <point x="400.667" y="329" type="line" smooth="yes"/>
      <point x="479.333" y="329"/>
      <point x="539" y="304.667"/>
      <point x="539" y="233.333" type="curve" smooth="yes"/>
      <point x="539" y="137.667"/>
      <point x="431.333" y="96"/>
      <point x="342.667" y="96" type="curve" smooth="yes"/>
    </contour>
  </outline>
</glyph>
<glyph name="C" format="2">
	<unicode hex="0043"/>
	<advance width="682"/>
	<outline>
		<contour>
			<point x="117" y="218" type="curve"/>
			<point x="119" y="80.3333"/>
			<point x="185.667" y="-12.6667"/>
			<point x="354" y="-12.6667" type="curve" smooth="yes"/>
			<point x="509" y="-12.6667"/>
			<point x="643.667" y="67"/>
			<point x="680" y="211" type="curve"/>
			<point x="559" y="211" type="line"/>
			<point x="533.667" y="125.333"/>
			<point x="474.333" y="79.3333"/>
			<point x="378" y="79.3333" type="curve" smooth="yes"/>
			<point x="269.333" y="79.3333"/>
			<point x="234.333" y="136.333"/>
			<point x="234.333" y="222.333" type="curve" smooth="yes"/>
			<point x="234.333" y="387"/>
			<point x="312.333" y="644.667"/>
			<point x="511.667" y="644.667" type="curve" smooth="yes"/>
			<point x="590" y="644.667"/>
			<point x="634.333" y="618.667"/>
			<point x="634.333" y="556.333" type="curve" smooth="yes"/>
			<point x="634.333" y="546"/>
			<point x="633" y="532.667"/>
			<point x="629.333" y="518" type="curve"/>
			<point x="744.667" y="518" type="line"/>
			<point x="748.667" y="536.667"/>
			<point x="750.667" y="554.667"/>
			<point x="750.667" y="572.333" type="curve" smooth="yes"/>
			<point x="750.667" y="682.333"/>
			<point x="667.333" y="736.667"/>
			<point x="533" y="736.667" type="curve" smooth="yes"/>
			<point x="257.667" y="736.667"/>
			<point x="117" y="458"/>
		</contour>
	</outline>
</glyph>
<glyph name="E" format="2">
	<unicode hex="0045"/>
	<advance width="593"/>
	<outline>
		<contour>
			<point name="n00" x="530.333" y="0" type="line"/>
			<point name="n01" x="552.667" y="96.3333" type="line"/>
			<point x="201.333" y="96.3333" type="line"/>
			<point name="n03" x="253.667" y="323.667" type="line"/>
			<point x="581.667" y="323.667" type="line"/>
			<point x="603.333" y="418.333" type="line"/>
			<point name="n06" x="275.333" y="418.333" type="line"/>
			<point x="323.667" y="625.667" type="line"/>
			<point name="n08" x="665" y="625.667" type="line"/>
			<point name="n09" x="687.333" y="722" type="line"/>
			<point x="230.333" y="722" type="line"/>
			<point x="63.3333" y="0" type="line"/>
		</contour>
	</outline>
</glyph>
<glyph name="F" format="2">
  <advance width="554"/>
  <unicode hex="0046"/>
  <anchor x="439.667" y="800" name="top"/>
  <outline>
    <contour>
      <point x="641" y="625.667" type="line"/>
      <point x="663.333" y="722" type="line"/>
      <point x="230.333" y="722" type="line"/>
      <point x="63.3333" y="0" type="line"/>
      <point x="180.667" y="0" type="line"/>
      <point x="255" y="322.333" type="line"/>
      <point x="550.667" y="322.333" type="line"/>
      <point x="572.667" y="418.667" type="line"/>
      <point x="277" y="418.667" type="line"/>
      <point x="325.333" y="625.667" type="line"/>
    </contour>
  </outline>
</glyph>
<glyph name="I" format="2">
  <advance width="270"/>
  <unicode hex="0049"/>
  <anchor x="187" y="-70" name="bottom"/>
  <anchor x="137.667" y="10" name="bottomUC"/>
  <anchor x="311.667" y="800" name="top"/>
  <outline>
    <contour>
      <point x="194" y="0" type="line"/>
      <point x="361" y="722" type="line"/>
      <point x="243.667" y="722" type="line"/>
      <point x="76.6667" y="0" type="line"/>
    </contour>
  </outline>
</glyph>
<glyph name="K" format="2">
	<unicode hex="004B"/>
	<advance width="655"/>
	<outline>
		<contour>
			<point name="n00" x="633.333" y="0" type="line"/>
			<point x="403.333" y="407" type="line"/>
			<point name="n02" x="765.667" y="722" type="line"/>
			<point x="626.333" y="722" type="line"/>
			<point x="274.667" y="414" type="line"/>
			<point x="346" y="722" type="line"/>
			<point x="230.333" y="722" type="line"/>
			<point x="63.3333" y="0" type="line"/>
			<point x="179" y="0" type="line"/>
			<point x="265.667" y="374.667" type="line"/>
			<point x="483.333" y="0" type="line"/>
		</contour>
	</outline>
</glyph>
<glyph name="L" format="2">
	<unicode hex="004C"/>
	<advance width="520"/>
	<outline>
		<contour>
			<point name="n00" x="502" y="0" type="line"/>
			<point name="n01" x="524.333" y="96.3333" type="line"/>
			<point x="201.333" y="96.3333" type="line"/>
			<point name="n03" x="346" y="722" type="line"/>
			<point x="230.333" y="722" type="line"/>
			<point x="63.3333" y="0" type="line"/>
		</contour>
	</outline>
</glyph>
<glyph name="M" format="2">
  <advance width="900"/>
  <unicode hex="004D"/>
  <anchor x="617" y="800" name="top"/>
  <outline>
    <contour>
      <point x="828" y="0" type="line"/>
      <point x="995.333" y="723.333" type="line"/>
      <point x="809.333" y="723.333" type="line"/>
      <point x="486.333" y="160" type="line"/>
      <point x="425.667" y="722" type="line"/>
      <point x="239.667" y="722" type="line"/>
      <point x="72.6667" y="0" type="line"/>
      <point x="186.667" y="0" type="line"/>
      <point x="329" y="614.667" type="line"/>
      <point x="399" y="0" type="line"/>
      <point x="500.333" y="0" type="line"/>
      <point x="857" y="618" type="line"/>
      <point x="714" y="0" type="line"/>
    </contour>
  </outline>
</glyph>
<glyph name="N" format="2">
	<unicode hex="004E"/>
	<advance width="711"/>
	<outline>
		<contour>
			<point name="n00" x="648" y="0" type="line"/>
			<point name="n01" x="815" y="722" type="line"/>
			<point x="701" y="722" type="line"/>
			<point x="565" y="135" type="line"/>
			<point x="395.667" y="722" type="line"/>
			<point x="230.333" y="722" type="line"/>
			<point x="63.3333" y="0" type="line"/>
			<point x="177.333" y="0" type="line"/>
			<point x="313" y="587" type="line"/>
			<point x="482" y="0" type="line"/>
		</contour>
	</outline>
</glyph>
<glyph name="O" format="2">
  <advance width="767"/>
  <unicode hex="004F"/>
  <anchor x="370.333" y="-60" name="bottom"/>
  <anchor x="381.667" y="10" name="bottomUC"/>
  <anchor x="555.333" y="800" name="top"/>
  <outline>
    <contour>
      <point x="468.667" y="89.6667" type="line"/>
      <point x="447.333" y="82.6667"/>
      <point x="424.667" y="80"/>
      <point x="400.333" y="80" type="curve" smooth="yes"/>
      <point x="290" y="80"/>
      <point x="242.667" y="148.667"/>
      <point x="242.667" y="253.333" type="curve" smooth="yes"/>
      <point x="242.667" y="407.333"/>
      <point x="311" y="592.667"/>
      <point x="468.667" y="634.667" type="curve"/>
      <point x="468.667" y="726.667" type="line"/>
      <point x="252.333" y="681"/>
      <point x="122.667" y="469.333"/>
      <point x="122.667" y="248.667" type="curve" smooth="yes"/>
      <point x="122.667" y="89"/>
      <point x="210" y="-12.6667"/>
      <point x="378.667" y="-12.6667" type="curve" smooth="yes"/>
      <point x="410.333" y="-12.6667"/>
      <point x="440" y="-9"/>
      <point x="468.667" y="-2.33333" type="curve"/>
    </contour>
    <contour>
      <point x="468.667" y="634.667" type="line"/>
      <point x="490" y="641.667"/>
      <point x="512.667" y="644.333"/>
      <point x="537" y="644.333" type="curve" smooth="yes"/>
      <point x="647.333" y="644.333"/>
      <point x="694.667" y="575.667"/>
      <point x="694.667" y="471" type="curve" smooth="yes"/>
      <point x="694.667" y="317"/>
      <point x="626.333" y="131.667"/>
      <point x="468.667" y="89.6667" type="curve"/>
      <point x="468.667" y="-2.33333" type="line"/>
      <point x="685" y="43.3333"/>
      <point x="814.667" y="255"/>
      <point x="814.667" y="475.667" type="curve" smooth="yes"/>
      <point x="814.667" y="635.333"/>
      <point x="727.333" y="737"/>
      <point x="558.667" y="737" type="curve" smooth="yes"/>
      <point x="527" y="737"/>
      <point x="497.333" y="733.333"/>
      <point x="468.667" y="726.667" type="curve"/>
    </contour>
  </outline>
  <guideline angle="90" x="463" y="0"/>
</glyph>
<glyph name="P" format="2">
  <advance width="624"/>
  <unicode hex="0050"/>
  <anchor x="439.667" y="800" name="top"/>
  <outline>
    <contour>
      <point x="696.333" y="569.667" type="curve" smooth="yes"/>
      <point x="696.333" y="688"/>
      <point x="589.333" y="721.667"/>
      <point x="459.333" y="721.667" type="curve" smooth="yes"/>
      <point x="239.333" y="721.667" type="line"/>
      <point x="72.6667" y="-0.333333" type="line"/>
      <point x="188.333" y="-0.333333" type="line"/>
      <point x="256.667" y="295" type="line"/>
      <point x="361" y="295" type="line" smooth="yes"/>
      <point x="538" y="295"/>
      <point x="696.333" y="373.333"/>
    </contour>
    <contour>
      <point x="373" y="392" type="curve" smooth="yes"/>
      <point x="279" y="392" type="line"/>
      <point x="333" y="625.333" type="line"/>
      <point x="427" y="625.333" type="line" smooth="yes"/>
      <point x="516.667" y="625.333"/>
      <point x="577.667" y="609.667"/>
      <point x="577.667" y="542" type="curve" smooth="yes"/>
      <point x="577.667" y="417.667"/>
      <point x="477.333" y="392"/>
    </contour>
  </outline>
</glyph>
<glyph name="Q" format="2">
  <advance width="815"/>
  <unicode hex="0051"/>
  <anchor x="562.667" y="800" name="top"/>
  <outline>
    <contour>
      <point x="122.333" y="256" type="curve" smooth="yes"/>
      <point x="122.333" y="97.3333"/>
      <point x="203" y="-12.6667"/>
      <point x="376.667" y="-12.6667" type="curve" smooth="yes"/>
      <point x="420.667" y="-12.6667"/>
      <point x="452.333" y="-9.66667"/>
      <point x="487" y="-6.33333" type="curve" smooth="yes"/>
      <point x="519.333" y="-3.33333"/>
      <point x="557" y="0"/>
      <point x="607" y="0" type="curve" smooth="yes"/>
      <point x="770.667" y="0" type="line"/>
      <point x="793.667" y="97.3333" type="line"/>
      <point x="734.667" y="96.3333"/>
      <point x="679.667" y="91.6667"/>
      <point x="625.333" y="78.6667" type="curve"/>
      <point x="741.333" y="172"/>
      <point x="816" y="333.333"/>
      <point x="816" y="480.667" type="curve" smooth="yes"/>
      <point x="816" y="637.667"/>
      <point x="730.333" y="734.667"/>
      <point x="558" y="734.667" type="curve" smooth="yes"/>
      <point x="287.333" y="734.667"/>
      <point x="122.333" y="497"/>
    </contour>
    <contour>
      <point x="241.333" y="253.667" type="curve" smooth="yes"/>
      <point x="241.333" y="429.333"/>
      <point x="327.667" y="642"/>
      <point x="536.333" y="642" type="curve" smooth="yes"/>
      <point x="652" y="642"/>
      <point x="697" y="576.667"/>
      <point x="697" y="475" type="curve" smooth="yes"/>
      <point x="697" y="304.667"/>
      <point x="601.667" y="80"/>
      <point x="398.667" y="80" type="curve" smooth="yes"/>
      <point x="288.667" y="80"/>
      <point x="241.333" y="147.333"/>
    </contour>
  </outline>
</glyph>
<glyph name="S" format="2">
  <advance width="655"/>
  <unicode hex="0053"/>
  <anchor x="481.333" y="800" name="top"/>
  <outline>
    <contour>
      <point x="101.333" y="220.667" type="line"/>
      <point x="96.3333" y="199.667"/>
      <point x="94.3333" y="180.333"/>
      <point x="94.3333" y="164.667" type="curve" smooth="yes"/>
      <point x="94.3333" y="47.3333"/>
      <point x="212.333" y="-12.6667"/>
      <point x="328" y="-12.6667" type="curve" smooth="yes"/>
      <point x="540.667" y="-12.6667"/>
      <point x="655.667" y="69.3333"/>
      <point x="655.667" y="233.333" type="curve" smooth="yes"/>
      <point x="655.667" y="327.667"/>
      <point x="582" y="381.667"/>
      <point x="495.333" y="403.333" type="curve"/>
      <point x="387.667" y="431.667" type="line"/>
      <point x="337.333" y="443.667"/>
      <point x="302.333" y="464"/>
      <point x="302.333" y="510" type="curve" smooth="yes"/>
      <point x="302.333" y="595.333"/>
      <point x="368" y="642"/>
      <point x="449" y="642" type="curve" smooth="yes"/>
      <point x="521.333" y="642"/>
      <point x="588.333" y="623.667"/>
      <point x="588.333" y="563.333" type="curve" smooth="yes"/>
      <point x="588.333" y="555"/>
      <point x="587" y="543.333"/>
      <point x="584" y="531.667" type="curve"/>
      <point x="701" y="531.667" type="line"/>
      <point x="705.333" y="550.333"/>
      <point x="707.333" y="567.333"/>
      <point x="707.333" y="583" type="curve" smooth="yes"/>
      <point x="707.333" y="693.333"/>
      <point x="601" y="734.667"/>
      <point x="480.667" y="734.667" type="curve" smooth="yes"/>
      <point x="292.667" y="734.667"/>
      <point x="179" y="644.333"/>
      <point x="179" y="499.333" type="curve" smooth="yes"/>
      <point x="179" y="394.667"/>
      <point x="250.667" y="358"/>
      <point x="328.333" y="339" type="curve"/>
      <point x="446.333" y="308.333" type="line"/>
      <point x="511" y="293"/>
      <point x="536.667" y="254.667"/>
      <point x="536.667" y="199.667" type="curve" smooth="yes"/>
      <point x="536.667" y="128.667"/>
      <point x="466.667" y="80"/>
      <point x="352.333" y="80" type="curve" smooth="yes"/>
      <point x="281.333" y="80"/>
      <point x="213.333" y="121"/>
      <point x="213.333" y="184.667" type="curve" smooth="yes"/>
      <point x="213.333" y="194"/>
      <point x="214.667" y="207"/>
      <point x="218" y="220.667" type="curve"/>
    </contour>
  </outline>
</glyph>
<glyph name="T" format="2">
	<unicode hex="0054"/>
	<advance width="626"/>
	<outline>
		<contour>
			<point name="n00" x="742" y="625.667" type="line"/>
			<point name="n01" x="764.333" y="722" type="line"/>
			<point x="190.333" y="722" type="line"/>
			<point x="168" y="625.667" type="line"/>
			<point x="396.333" y="625.667" type="line"/>
			<point name="n05" x="251.667" y="0" type="line"/>
			<point x="369" y="0" type="line"/>
			<point x="513.667" y="625.667" type="line"/>
		</contour>
	</outline>
</glyph>
<glyph name="U" format="2">
  <advance width="717"/>
  <unicode hex="0055"/>
  <anchor x="360" y="10" name="bottomUC"/>
  <anchor x="525.333" y="800" name="top"/>
  <outline>
    <contour>
      <point x="119" y="187.667" type="curve" smooth="yes"/>
      <point x="119" y="50"/>
      <point x="194.667" y="-12.6667"/>
      <point x="358" y="-12.6667" type="curve" smooth="yes"/>
      <point x="564" y="-12.6667"/>
      <point x="671.333" y="87.3333"/>
      <point x="723.667" y="314.333" type="curve" smooth="yes"/>
      <point x="818.333" y="722" type="line"/>
      <point x="702.667" y="722" type="line"/>
      <point x="608" y="314.333" type="line" smooth="yes"/>
      <point x="574.667" y="169.667"/>
      <point x="510" y="84"/>
      <point x="375.333" y="84" type="curve" smooth="yes"/>
      <point x="277" y="84"/>
      <point x="236.667" y="129.333"/>
      <point x="236.667" y="212" type="curve" smooth="yes"/>
      <point x="236.667" y="242"/>
      <point x="242" y="276.333"/>
      <point x="250.667" y="314.333" type="curve" smooth="yes"/>
      <point x="345.333" y="722" type="line"/>
      <point x="229.667" y="722" type="line"/>
      <point x="135.667" y="314.333" type="line" smooth="yes"/>
      <point x="124.333" y="266.333"/>
      <point x="119" y="224.333"/>
    </contour>
  </outline>
</glyph>
<glyph name="V" format="2">
  <advance width="682"/>
  <unicode hex="0056"/>
  <anchor x="508" y="800" name="top"/>
  <outline>
    <contour>
      <point x="835.667" y="722" type="line"/>
      <point x="707" y="722" type="line"/>
      <point x="374" y="142.333" type="line"/>
      <point x="309" y="722" type="line"/>
      <point x="180.333" y="722" type="line"/>
      <point x="273" y="0" type="line"/>
      <point x="405.667" y="0" type="line"/>
    </contour>
  </outline>
</glyph>
<glyph name="W" format="2">
  <advance width="981"/>
  <unicode hex="0057"/>
  <anchor x="483.333" y="-60" name="bottom"/>
  <anchor x="667.667" y="800" name="top"/>
  <outline>
    <contour>
      <point x="1135" y="722" type="line"/>
      <point x="1011" y="722" type="line"/>
      <point x="742.667" y="160" type="line"/>
      <point x="724" y="722" type="line"/>
      <point x="591.333" y="722" type="line"/>
      <point x="313.333" y="160" type="line"/>
      <point x="304.333" y="722" type="line"/>
      <point x="180.333" y="722" type="line"/>
      <point x="216" y="0" type="line"/>
      <point x="332.667" y="0" type="line"/>
      <point x="625" y="581.667" type="line"/>
      <point x="648.667" y="0" type="line"/>
      <point x="765.333" y="0" type="line"/>
    </contour>
  </outline>
</glyph>
<glyph name="X" format="2">
  <advance width="687"/>
  <unicode hex="0058"/>
  <anchor x="522" y="800" name="top"/>
  <outline>
    <contour>
      <point x="673.667" y="0" type="line"/>
      <point x="499.667" y="382" type="line"/>
      <point x="810.667" y="722" type="line"/>
      <point x="680.333" y="722" type="line"/>
      <point x="458" y="463.667" type="line"/>
      <point x="352" y="722" type="line"/>
      <point x="210" y="722" type="line"/>
      <point x="362.333" y="382" type="line"/>
      <point x="13.3333" y="0" type="line"/>
      <point x="142" y="0" type="line"/>
      <point x="403.667" y="300.667" type="line"/>
      <point x="531.667" y="0" type="line"/>
    </contour>
  </outline>
</glyph>
<glyph name="Z" format="2">
  <advance width="628"/>
  <unicode hex="005A"/>
  <anchor x="482.667" y="800" name="top"/>
  <outline>
    <contour>
      <point x="580" y="0" type="line"/>
      <point x="602.333" y="96.3333" type="line"/>
      <point x="201.667" y="96.3333" type="line"/>
      <point x="710.667" y="607" type="line"/>
      <point x="737.667" y="722" type="line"/>
      <point x="236" y="722" type="line"/>
      <point x="213.667" y="625.667" type="line"/>
      <point x="584.333" y="625.667" type="line"/>
      <point x="74.6667" y="115" type="line"/>
      <point x="48.3333" y="0" type="line"/>
    </contour>
  </outline>
</glyph>
<glyph name="bracketleft" format="2">
	<unicode hex="005B"/>
	<advance width="394"/>
	<outline>
		<contour>
			<point name="n00" x="251.333" y="-198" type="line"/>
			<point name="n01" x="266.333" y="-134" type="line"/>
			<point x="164.667" y="-134" type="line"/>
			<point x="347.667" y="658" type="line"/>
			<point name="n04" x="449.333" y="658" type="line"/>
			<point name="n05" x="464.333" y="722" type="line"/>
			<point x="265.333" y="722" type="line"/>
			<point x="52.3333" y="-198" type="line"/>
		</contour>
	</outline>
</glyph>
<glyph name="bracketright" format="2">
	<unicode hex="005D"/>
	<advance width="394"/>
	<outline>
		<contour>
			<point x="251.333" y="-198" type="line"/>
			<point x="464.333" y="722" type="line"/>
			<point name="n02" x="265.333" y="722" type="line"/>
			<point name="n03" x="250.333" y="658" type="line"/>
			<point x="351.333" y="658" type="line"/>
			<point x="168.333" y="-134" type="line"/>
			<point name="n06" x="67.3333" y="-134" type="line"/>
			<point name="n07" x="52.3333" y="-198" type="line"/>
		</contour>
	</outline>
</glyph>
<glyph name="asciicircum" format="2">
	<unicode hex="005E"/>
	<advance width="748"/>
	<outline>
		<contour>
			<point name="n00" x="637" y="10" type="line"/>
			<point x="546" y="610" type="line"/>
			<point name="n02" x="484" y="610" type="line"/>
			<point name="n03" x="115" y="10" type="line"/>
			<point x="177" y="10" type="line"/>
			<point name="n05" x="500" y="546" type="line"/>
			<point x="575" y="10" type="line"/>
		</contour>
	</outline>
</glyph>
<glyph name="underscore" format="2">
	<unicode hex="005F"/>
	<advance width="500"/>
	<outline>
		<contour>
			<point name="n00" x="468.667" y="-135.667" type="line"/>
			<point name="n01" x="483" y="-74" type="line"/>
			<point x="-17" y="-74" type="line"/>
			<point x="-31.3333" y="-135.667" type="line"/>
		</contour>
	</outline>
</glyph>
<glyph name="grave" format="2">
  <advance width="236"/>
  <unicode hex="0060"/>
  <outline>
    <contour>
      <point x="321.667" y="600" type="line"/>
      <point x="264.333" y="774" type="line"/>
      <point x="153.667" y="774" type="line"/>
      <point x="257.667" y="600" type="line"/>
    </contour>
  </outline>
</glyph>
<glyph name="a" format="2">
	<unicode hex="0061"/>
	<advance width="578"/>
	<outline>
		<contour>
			<point x="90" y="177" type="curve" smooth="yes"/>
			<point x="90" y="66.6667"/>
			<point x="148.667" y="-12.6667"/>
			<point x="270.333" y="-12.6667" type="curve" smooth="yes"/>
			<point x="331.667" y="-12.6667"/>
			<point x="398.333" y="29.6667"/>
			<point x="432.333" y="60.3333" type="curve"/>
			<point name="n07" x="418.667" y="0" type="line"/>
			<point x="523.667" y="0" type="line"/>
			<point name="n09" x="638.667" y="500.333" type="line"/>
			<point x="528.667" y="476" type="line"/>
			<point x="520.333" y="441.333" type="line"/>
			<point x="499.333" y="481.667"/>
			<point x="461" y="512.667"/>
			<point x="387.667" y="512.667" type="curve" smooth="yes"/>
			<point x="210.667" y="512.667"/>
			<point x="90" y="334.333"/>
		</contour>
		<contour>
			<point x="197.667" y="185.333" type="curve" smooth="yes"/>
			<point x="197.667" y="286.667"/>
			<point x="265.667" y="441.333"/>
			<point x="378.333" y="441.333" type="curve" smooth="yes"/>
			<point x="450.667" y="441.333"/>
			<point x="485.333" y="395"/>
			<point x="485.333" y="317.333" type="curve" smooth="yes"/>
			<point x="485.333" y="213.333"/>
			<point x="423.667" y="62"/>
			<point x="301.667" y="62" type="curve" smooth="yes"/>
			<point x="226" y="62"/>
			<point x="197.667" y="120"/>
		</contour>
	</outline>
	<anchor name="top" x="364.333" y="596.333"/>
</glyph>
<glyph name="b" format="2">
  <advance width="621"/>
  <unicode hex="0062"/>
  <anchor x="336.333" y="-60" name="bottom"/>
  <anchor x="316.333" y="800" name="top"/>
  <outline>
    <contour>
      <point x="86.6667" y="0.333333" type="line"/>
      <point x="189.667" y="0.333333" type="line"/>
      <point x="204.333" y="63.6667" type="line"/>
      <point x="230.333" y="25.6667"/>
      <point x="274" y="-12.6667"/>
      <point x="340.667" y="-12.6667" type="curve" smooth="yes"/>
      <point x="514" y="-12.6667"/>
      <point x="639.333" y="181"/>
      <point x="639.333" y="337.667" type="curve" smooth="yes"/>
      <point x="639.333" y="442"/>
      <point x="583.667" y="512.667"/>
      <point x="465.667" y="512.667" type="curve" smooth="yes"/>
      <point x="395.333" y="512.667"/>
      <point x="340.333" y="490.667"/>
      <point x="291.333" y="439" type="curve"/>
      <point x="356.667" y="722" type="line"/>
      <point x="253.667" y="722" type="line"/>
    </contour>
    <contour>
      <point x="237.667" y="181" type="curve" smooth="yes"/>
      <point x="237.667" y="287.333"/>
      <point x="302.667" y="445.667"/>
      <point x="429" y="445.667" type="curve" smooth="yes"/>
      <point x="501.667" y="445.667"/>
      <point x="526.667" y="393.667"/>
      <point x="526.667" y="329.333" type="curve" smooth="yes"/>
      <point x="526.667" y="223.333"/>
      <point x="460.333" y="63"/>
      <point x="335.333" y="63" type="curve" smooth="yes"/>
      <point x="270" y="63"/>
      <point x="237.667" y="107"/>
    </contour>
  </outline>
</glyph>
<glyph name="d" format="2">
  <advance width="624"/>
  <unicode hex="0064"/>
  <anchor x="276.667" y="-60" name="bottom"/>
  <anchor x="750.333" y="722.333" name="dcaron"/>
  <anchor x="655" y="800" name="top"/>
  <outline>
    <contour>
      <point x="104.667" y="173.667" type="curve" smooth="yes"/>
      <point x="104.667" y="61.3333"/>
      <point x="163.333" y="-12.6667"/>
      <point x="285" y="-12.6667" type="curve" smooth="yes"/>
      <point x="346.333" y="-12.6667"/>
      <point x="413" y="29.6667"/>
      <point x="447" y="59.6667" type="curve"/>
      <point x="433.333" y="-0.333333" type="line"/>
      <point x="538.333" y="-0.333333" type="line"/>
      <point x="705" y="721.667" type="line"/>
      <point x="600" y="721.667" type="line"/>
      <point x="535" y="441.333" type="line"/>
      <point x="512" y="484"/>
      <point x="475.667" y="512.667"/>
      <point x="399.333" y="512.667" type="curve" smooth="yes"/>
      <point x="221.667" y="512.667"/>
      <point x="104.667" y="331.333"/>
    </contour>
    <contour>
      <point x="212.333" y="184.667" type="curve" smooth="yes"/>
      <point x="212.333" y="286.667"/>
      <point x="280.333" y="441.333"/>
      <point x="393" y="441.333" type="curve" smooth="yes"/>
      <point x="465.333" y="441.333"/>
      <point x="500" y="395"/>
      <point x="500" y="317.333" type="curve" smooth="yes"/>
      <point x="500" y="212.667"/>
      <point x="438.333" y="62"/>
      <point x="316.333" y="62" type="curve" smooth="yes"/>
      <point x="240.667" y="62"/>
      <point x="212.333" y="119.333"/>
    </contour>
  </outline>
</glyph>
<glyph name="e" format="2">
  <advance width="566"/>
  <unicode hex="0065"/>
  <anchor x="274.667" y="-60" name="bottom"/>
  <anchor x="410.333" y="580" name="top"/>
  <outline>
    <contour>
      <point x="103.667" y="166" type="curve" smooth="yes"/>
      <point x="103.667" y="55"/>
      <point x="157.667" y="-12.6667"/>
      <point x="288.333" y="-12.6667" type="curve" smooth="yes"/>
      <point x="415" y="-12.6667"/>
      <point x="506" y="52"/>
      <point x="548.333" y="159.667" type="curve"/>
      <point x="438.333" y="159.667" type="line"/>
      <point x="419.333" y="102.333"/>
      <point x="372" y="59.3333"/>
      <point x="306.667" y="59.3333" type="curve" smooth="yes"/>
      <point x="240.333" y="59.3333"/>
      <point x="211.333" y="103.667"/>
      <point x="211.333" y="164" type="curve" smooth="yes"/>
      <point x="211.333" y="185.333"/>
      <point x="215.333" y="208.667"/>
      <point x="220.333" y="231.333" type="curve"/>
      <point x="567" y="231.333" type="line"/>
      <point x="578" y="268"/>
      <point x="586.667" y="306.667"/>
      <point x="586.667" y="346" type="curve" smooth="yes"/>
      <point x="586.667" y="447.333"/>
      <point x="528.667" y="512.667"/>
      <point x="411.333" y="512.667" type="curve" smooth="yes"/>
      <point x="216.333" y="512.667"/>
      <point x="103.667" y="333.667"/>
    </contour>
    <contour>
      <point x="237.667" y="303" type="line"/>
      <point x="259.333" y="390.667"/>
      <point x="315.667" y="441"/>
      <point x="389" y="441" type="curve" smooth="yes"/>
      <point x="457.667" y="441"/>
      <point x="479" y="397"/>
      <point x="479" y="348.333" type="curve" smooth="yes"/>
      <point x="479" y="333.667"/>
      <point x="477" y="318"/>
      <point x="473.667" y="303" type="curve"/>
    </contour>
  </outline>
</glyph>
<glyph name="f" format="2">
	<unicode hex="0066"/>
	<advance width="340"/>
	<outline>
		<contour>
			<point x="243" y="575" type="curve" smooth="yes"/>
			<point x="225" y="500" type="line"/>
			<point name="n02" x="125" y="500" type="line"/>
			<point name="n03" x="110" y="435" type="line"/>
			<point x="210" y="435" type="line"/>
			<point x="101" y="-39" type="line" smooth="yes"/>
			<point x="87" y="-98"/>
			<point x="62" y="-126"/>
			<point x="8" y="-126" type="curve" smooth="yes"/>
			<point name="n09" x="-1" y="-126" type="line" smooth="yes"/>
			<point x="-20" y="-126"/>
			<point x="-35" y="-122"/>
			<point x="-47" y="-114" type="curve"/>
			<point x="-64" y="-188" type="line"/>
			<point x="-46" y="-195"/>
			<point x="-25" y="-198"/>
			<point name="n16" x="-2" y="-198" type="curve" smooth="yes"/>
			<point x="4" y="-198" type="line" smooth="yes"/>
			<point x="111" y="-198"/>
			<point x="165" y="-154"/>
			<point x="191" y="-41" type="curve" smooth="yes"/>
			<point x="300" y="435" type="line"/>
			<point x="420" y="435" type="line"/>
			<point x="435" y="500" type="line"/>
			<point x="315" y="500" type="line"/>
			<point x="332" y="573" type="line" smooth="yes"/>
			<point x="346" y="632"/>
			<point x="371" y="660"/>
			<point x="425" y="660" type="curve" smooth="yes"/>
			<point name="n29" x="434" y="660" type="line" smooth="yes"/>
			<point x="453" y="660"/>
			<point x="469" y="656"/>
			<point x="481" y="648" type="curve"/>
			<point x="498" y="722" type="line"/>
			<point x="480" y="729"/>
			<point x="458" y="732"/>
			<point name="n36" x="435" y="732" type="curve" smooth="yes"/>
			<point x="429" y="732" type="line" smooth="yes"/>
			<point x="322" y="732"/>
			<point x="269" y="688"/>
		</contour>
	</outline>
</glyph>
<glyph name="g" format="2">
  <advance width="618"/>
  <unicode hex="0067"/>
  <anchor x="401" y="580" name="top"/>
  <outline>
    <contour>
      <point x="106" y="179.333" type="curve" smooth="yes"/>
      <point x="106" y="70.6667"/>
      <point x="161.667" y="9.66667"/>
      <point x="277.667" y="9.66667" type="curve" smooth="yes"/>
      <point x="358" y="9.66667"/>
      <point x="412" y="49.6667"/>
      <point x="454" y="89.6667" type="curve"/>
      <point x="422.333" y="-57"/>
      <point x="375.667" y="-128.667"/>
      <point x="276.667" y="-128.667" type="curve" smooth="yes"/>
      <point x="222.667" y="-128.667"/>
      <point x="178" y="-107.333"/>
      <point x="178" y="-63" type="curve" smooth="yes"/>
      <point x="178" y="-57.3333"/>
      <point x="179" y="-51"/>
      <point x="180.667" y="-44.3333" type="curve"/>
      <point x="74" y="-44.3333" type="line"/>
      <point x="71.3333" y="-56.3333"/>
      <point x="70" y="-66.3333"/>
      <point x="70" y="-77.3333" type="curve" smooth="yes"/>
      <point x="70" y="-165"/>
      <point x="157" y="-200"/>
      <point x="248.667" y="-200" type="curve" smooth="yes"/>
      <point x="398.333" y="-200"/>
      <point x="510.333" y="-114.333"/>
      <point x="542" y="21" type="curve" smooth="yes"/>
      <point x="652" y="500" type="line"/>
      <point x="547" y="500" type="line"/>
      <point x="535.667" y="447.333" type="line"/>
      <point x="516.667" y="484.667"/>
      <point x="469" y="512.667"/>
      <point x="394.667" y="512.667" type="curve" smooth="yes"/>
      <point x="222" y="512.667"/>
      <point x="106" y="336.667"/>
    </contour>
    <contour>
      <point x="214" y="197.333" type="curve" smooth="yes"/>
      <point x="214" y="296"/>
      <point x="274" y="441.333"/>
      <point x="395.333" y="441.333" type="curve" smooth="yes"/>
      <point x="471.333" y="441.333"/>
      <point x="501.667" y="398"/>
      <point x="501.667" y="325.333" type="curve" smooth="yes"/>
      <point x="501.667" y="222.667"/>
      <point x="441" y="81"/>
      <point x="315" y="81" type="curve" smooth="yes"/>
      <point x="243.333" y="81"/>
      <point x="214" y="127"/>
    </contour>
  </outline>
</glyph>
<glyph name="h" format="2">
	<unicode hex="0068"/>
	<advance width="533"/>
	<outline>
		<contour>
			<point name="n00" x="425" y="512" type="curve" smooth="yes"/>
			<point x="346" y="512"/>
			<point x="281" y="479"/>
			<point x="241" y="437" type="curve"/>
			<point name="n04" x="307" y="722" type="line"/>
			<point x="217" y="722" type="line"/>
			<point name="n06" x="50" y="0" type="line"/>
			<point x="140" y="0" type="line"/>
			<point x="209" y="301" type="line" smooth="yes"/>
			<point x="231" y="396"/>
			<point x="321" y="445"/>
			<point name="n11" x="391" y="445" type="curve" smooth="yes"/>
			<point x="458" y="445"/>
			<point x="482" y="387"/>
			<point x="465" y="314" type="curve" smooth="yes"/>
			<point x="393" y="0" type="line"/>
			<point x="483" y="0" type="line"/>
			<point x="555" y="310" type="line" smooth="yes"/>
			<point x="588" y="451"/>
			<point x="544" y="512"/>
		</contour>
	</outline>
</glyph>
<glyph name="i" format="2">
  <advance width="277"/>
  <unicode hex="0069"/>
  <anchor x="129.667" y="-60" name="bottom"/>
  <anchor x="138" y="10" name="bottomUC"/>
  <outline>
    <contour>
      <point x="188.667" y="0" type="line"/>
      <point x="303.667" y="500" type="line"/>
      <point x="198.667" y="500" type="line"/>
      <point x="83.6667" y="0" type="line"/>
    </contour>
    <contour>
      <point x="339.667" y="617.333" type="line"/>
      <point x="364.333" y="722" type="line"/>
      <point x="242" y="722" type="line"/>
      <point x="217.333" y="617.333" type="line"/>
    </contour>
  </outline>
</glyph>
<glyph name="k" format="2">
	<unicode hex="006B"/>
	<advance width="503"/>
	<outline>
		<contour>
			<point name="n00" x="484.333" y="0" type="line"/>
			<point x="340.333" y="282.667" type="line"/>
			<point name="n02" x="583.333" y="500" type="line"/>
			<point x="454" y="500" type="line"/>
			<point x="227.667" y="295" type="line"/>
			<point name="n05" x="327" y="722" type="line"/>
			<point x="222" y="722" type="line"/>
			<point x="55" y="0" type="line"/>
			<point x="160" y="0" type="line"/>
			<point x="221.333" y="265" type="line"/>
			<point x="350.333" y="0" type="line"/>
		</contour>
	</outline>
</glyph>
<glyph name="l" format="2">
  <advance width="272"/>
  <unicode hex="006C"/>
  <anchor x="121.667" y="-60" name="bottom"/>
  <anchor x="374.333" y="361" name="dotCN"/>
  <anchor x="310.667" y="800" name="top"/>
  <outline>
    <contour>
      <point x="188.667" y="0" type="line"/>
      <point x="355.667" y="722" type="line"/>
      <point x="250.667" y="722" type="line"/>
      <point x="83.6667" y="0" type="line"/>
    </contour>
  </outline>
</glyph>
<glyph name="n" format="2">
  <advance width="612"/>
  <unicode hex="006E"/>
  <anchor x="305" y="-60" name="bottom"/>
  <anchor x="425" y="580" name="top"/>
  <outline>
    <contour>
      <point x="86.3333" y="0" type="line"/>
      <point x="191.333" y="0" type="line"/>
      <point x="262.667" y="308.333" type="line" smooth="yes"/>
      <point x="279.333" y="381.667"/>
      <point x="341.333" y="445.667"/>
      <point x="416.667" y="445.667" type="curve" smooth="yes"/>
      <point x="472.333" y="445.667"/>
      <point x="505.667" y="410.667"/>
      <point x="505.667" y="358.333" type="curve" smooth="yes"/>
      <point x="505.667" y="346.667"/>
      <point x="504" y="334"/>
      <point x="501" y="320.333" type="curve" smooth="yes"/>
      <point x="427.333" y="0" type="line"/>
      <point x="532.333" y="0" type="line"/>
      <point x="609" y="332.333" type="line" smooth="yes"/>
      <point x="614" y="353.667"/>
      <point x="616" y="373"/>
      <point x="616" y="389.333" type="curve" smooth="yes"/>
      <point x="616" y="471"/>
      <point x="565.667" y="512.667"/>
      <point x="468.333" y="512.667" type="curve" smooth="yes"/>
      <point x="379" y="512.667"/>
      <point x="337.667" y="484"/>
      <point x="292" y="435" type="curve"/>
      <point x="306.333" y="500" type="line"/>
      <point x="201.333" y="500" type="line"/>
    </contour>
  </outline>
</glyph>
<glyph name="o" format="2">
	<unicode hex="006F"/>
	<advance width="580"/>
	<outline>
		<contour>
			<point x="503" y="248" type="curve" smooth="yes"/>
			<point x="480" y="148"/>
			<point x="405" y="51"/>
			<point name="n03" x="302" y="51" type="curve" smooth="yes"/>
			<point x="199" y="51"/>
			<point x="168" y="148"/>
			<point x="191" y="248" type="curve" smooth="yes"/>
			<point x="214" y="349"/>
			<point x="290" y="447"/>
			<point name="n09" x="393" y="447" type="curve" smooth="yes"/>
			<point x="496" y="447"/>
			<point x="526" y="349"/>
		</contour>
		<contour>
			<point x="598" y="250" type="line"/>
			<point x="635" y="410"/>
			<point x="564" y="512"/>
			<point name="n15" x="408" y="512" type="curve" smooth="yes"/>
			<point x="253" y="512"/>
			<point x="134" y="408"/>
			<point x="97" y="249" type="curve" smooth="yes"/>
			<point x="60" y="90"/>
			<point x="132" y="-14"/>
			<point name="n21" x="287" y="-14" type="curve" smooth="yes"/>
			<point x="443" y="-14"/>
			<point x="560" y="88"/>
			<point x="597" y="248" type="curve"/>
		</contour>
	</outline>
</glyph>
<glyph name="p" format="2">
	<unicode hex="0070"/>
	<advance width="563"/>
	<outline>
		<contour>
			<point x="195" y="252" type="curve" smooth="yes"/>
			<point x="225" y="381"/>
			<point x="292" y="448"/>
			<point name="n03" x="390" y="448" type="curve" smooth="yes"/>
			<point x="483" y="448"/>
			<point x="516" y="381"/>
			<point x="486" y="253" type="curve" smooth="yes"/>
			<point x="456" y="123"/>
			<point x="386" y="52"/>
			<point name="n09" x="290" y="52" type="curve" smooth="yes"/>
			<point x="177" y="52"/>
			<point x="174" y="160"/>
		</contour>
		<contour>
			<point x="4" y="-200" type="line"/>
			<point x="94" y="-200" type="line"/>
			<point x="153" y="58" type="line"/>
			<point x="172" y="12"/>
			<point x="223" y="-14"/>
			<point name="n17" x="291" y="-14" type="curve" smooth="yes"/>
			<point x="432" y="-14"/>
			<point x="543" y="89"/>
			<point x="581" y="252" type="curve" smooth="yes"/>
			<point x="618" y="413"/>
			<point x="560" y="512"/>
			<point name="n23" x="430" y="512" type="curve" smooth="yes"/>
			<point x="355" y="512"/>
			<point x="285" y="479"/>
			<point x="238" y="421" type="curve"/>
			<point name="n27" x="254" y="500" type="line"/>
			<point name="n28" x="162" y="500" type="line"/>
			<point x="158" y="474"/>
			<point x="153" y="447"/>
			<point x="147" y="421" type="curve" smooth="yes"/>
		</contour>
	</outline>
</glyph>
<glyph name="q" format="2">
  <advance width="627"/>
  <unicode hex="0071"/>
  <anchor x="271.333" y="-60" name="bottom"/>
  <anchor x="419.667" y="580" name="top"/>
  <outline>
    <contour>
      <point x="104.333" y="161" type="curve" smooth="yes"/>
      <point x="104.333" y="54.6667"/>
      <point x="158.333" y="-13.3333"/>
      <point x="279.333" y="-13.3333" type="curve" smooth="yes"/>
      <point x="332" y="-13.3333"/>
      <point x="388.667" y="9.33333"/>
      <point x="450.667" y="50.3333" type="curve"/>
      <point x="393.333" y="-200" type="line"/>
      <point x="499.667" y="-200" type="line"/>
      <point x="660.667" y="500" type="line"/>
      <point x="556.667" y="500" type="line"/>
      <point x="541.333" y="433.667" type="line"/>
      <point x="512.667" y="484.667"/>
      <point x="471.333" y="513"/>
      <point x="401.333" y="513" type="curve" smooth="yes"/>
      <point x="212.667" y="513"/>
      <point x="104.333" y="335.333"/>
    </contour>
    <contour>
      <point x="216" y="182" type="curve" smooth="yes"/>
      <point x="216" y="288.667"/>
      <point x="281.333" y="439.333"/>
      <point x="404" y="439.333" type="curve" smooth="yes"/>
      <point x="476.667" y="439.333"/>
      <point x="507" y="387.333"/>
      <point x="507" y="317" type="curve" smooth="yes"/>
      <point x="507" y="211.667"/>
      <point x="440.333" y="58.3333"/>
      <point x="317.667" y="58.3333" type="curve" smooth="yes"/>
      <point x="244.333" y="58.3333"/>
      <point x="216" y="112"/>
    </contour>
  </outline>
</glyph>
<glyph name="r" format="2">
	<unicode hex="0072"/>
	<advance width="343"/>
	<outline>
		<contour>
			<point name="n00" x="420" y="420" type="curve"/>
			<point name="n01" x="438" y="500" type="line"/>
			<point x="318" y="500"/>
			<point x="280" y="481"/>
			<point x="241" y="432" type="curve"/>
			<point x="256" y="500" type="line"/>
			<point x="166" y="500" type="line"/>
			<point name="n07" x="51" y="0" type="line"/>
			<point x="141" y="0" type="line"/>
			<point x="206" y="280" type="line" smooth="yes"/>
			<point x="227" y="373"/>
			<point x="299" y="420"/>
		</contour>
	</outline>
</glyph>
<glyph name="s" format="2">
  <advance width="519"/>
  <unicode hex="0073"/>
  <anchor x="261" y="-60" name="bottom"/>
  <anchor x="377.667" y="580" name="top"/>
  <outline>
    <contour>
      <point x="91.3333" y="147.333" type="line"/>
      <point x="87.6667" y="131.667"/>
      <point x="86.3333" y="116.667"/>
      <point x="86.3333" y="104.667" type="curve" smooth="yes"/>
      <point x="86.3333" y="20"/>
      <point x="152.333" y="-14"/>
      <point x="245.333" y="-14" type="curve" smooth="yes"/>
      <point x="368.333" y="-14"/>
      <point x="508.333" y="46.3333"/>
      <point x="508.333" y="184.333" type="curve" smooth="yes"/>
      <point x="508.333" y="262.667"/>
      <point x="433.667" y="281.667"/>
      <point x="365" y="296.333" type="curve" smooth="yes"/>
      <point x="321" y="305.333"/>
      <point x="259.333" y="320"/>
      <point x="260" y="365" type="curve" smooth="yes"/>
      <point x="260.667" y="416.667"/>
      <point x="312.667" y="441"/>
      <point x="366.333" y="441" type="curve" smooth="yes"/>
      <point x="411.333" y="441"/>
      <point x="440.333" y="425.667"/>
      <point x="440.333" y="388" type="curve" smooth="yes"/>
      <point x="440.333" y="381.333"/>
      <point x="439.333" y="371.667"/>
      <point x="437.333" y="362" type="curve"/>
      <point x="542.333" y="362" type="line"/>
      <point x="546" y="378.667"/>
      <point x="548" y="393.667"/>
      <point x="548" y="407" type="curve" smooth="yes"/>
      <point x="548" y="487.667"/>
      <point x="477.667" y="512.667"/>
      <point x="382" y="512.667" type="curve" smooth="yes"/>
      <point x="268" y="512.667"/>
      <point x="152" y="462.333"/>
      <point x="152" y="340" type="curve" smooth="yes"/>
      <point x="152" y="258.333"/>
      <point x="235.667" y="230"/>
      <point x="303.333" y="214" type="curve" smooth="yes"/>
      <point x="354.667" y="202.333"/>
      <point x="400.333" y="188.333"/>
      <point x="400.333" y="144.333" type="curve" smooth="yes"/>
      <point x="400.333" y="89.3333"/>
      <point x="327" y="57.6667"/>
      <point x="272.333" y="57.6667" type="curve" smooth="yes"/>
      <point x="221.333" y="57.6667"/>
      <point x="194" y="77.3333"/>
      <point x="194" y="118" type="curve" smooth="yes"/>
      <point x="194" y="126.667"/>
      <point x="195.333" y="136.333"/>
      <point x="197.667" y="147.333" type="curve"/>
    </contour>
  </outline>
</glyph>
<glyph name="v" format="2">
	<unicode hex="0076"/>
	<advance width="538"/>
	<outline>
		<contour>
			<point name="n00" x="639.667" y="500" type="line"/>
			<point x="528.333" y="500" type="line"/>
			<point x="301" y="123.667" type="line"/>
			<point x="246.333" y="500" type="line"/>
			<point x="128.333" y="500" type="line"/>
			<point name="n05" x="213.667" y="0" type="line"/>
			<point x="325" y="0" type="line"/>
		</contour>
	</outline>
</glyph>
<glyph name="w" format="2">
	<unicode hex="0077"/>
	<advance width="828"/>
	<outline>
		<contour>
			<point name="n00" x="929.667" y="500" type="line"/>
			<point x="819.333" y="500" type="line"/>
			<point x="623.333" y="130" type="line"/>
			<point x="595" y="500" type="line"/>
			<point x="463" y="500" type="line"/>
			<point x="264" y="130" type="line"/>
			<point name="n06" x="238.667" y="500" type="line"/>
			<point name="n07" x="128.333" y="500" type="line"/>
			<point name="n08" x="177" y="0" type="line"/>
			<point x="290.333" y="0" type="line"/>
			<point x="505" y="393.333" type="line"/>
			<point x="537.667" y="0" type="line"/>
			<point x="651" y="0" type="line"/>
		</contour>
	</outline>
</glyph>
<glyph name="x" format="2">
	<unicode hex="0078"/>
	<advance width="540"/>
	<outline>
		<contour>
			<point name="n00" x="527" y="0" type="line"/>
			<point x="396.667" y="262" type="line"/>
			<point name="n02" x="627.667" y="500" type="line"/>
			<point x="507.667" y="500" type="line"/>
			<point x="355.333" y="331.667" type="line"/>
			<point x="273.333" y="500" type="line"/>
			<point x="144" y="500" type="line"/>
			<point x="266" y="262" type="line"/>
			<point x="13.3333" y="0" type="line"/>
			<point x="133.333" y="0" type="line"/>
			<point x="306.667" y="191" type="line"/>
			<point x="397.667" y="0" type="line"/>
		</contour>
	</outline>
</glyph>
<glyph name="y" format="2">
	<unicode hex="0079"/>
	<advance width="537"/>
	<outline>
		<contour>
			<point x="189" y="-56.3333" type="line" smooth="yes"/>
			<point x="146.667" y="-127.667"/>
			<point x="118.333" y="-175.333"/>
			<point x="103.333" y="-199.333" type="curve"/>
			<point x="214" y="-199.333" type="line"/>
			<point x="354.667" y="35.3333"/>
			<point x="498" y="267"/>
			<point name="n07" x="640.333" y="500.667" type="curve"/>
			<point x="528" y="500.667" type="line"/>
			<point x="311.667" y="142.667" type="line"/>
			<point x="250.333" y="500.667" type="line"/>
			<point x="129.333" y="500.667" type="line"/>
			<point x="223" y="0.666667" type="line"/>
		</contour>
	</outline>
</glyph>
<glyph name="z" format="2">
	<unicode hex="007A"/>
	<advance width="468"/>
	<outline>
		<contour>
			<point name="n00" x="426.333" y="0" type="line"/>
			<point name="n01" x="443.667" y="75" type="line"/>
			<point x="172.333" y="75" type="line"/>
			<point x="516.333" y="409.667" type="line"/>
			<point x="537" y="500" type="line"/>
			<point name="n05" x="171.667" y="500" type="line"/>
			<point name="n06" x="154.667" y="425" type="line"/>
			<point x="405.333" y="425" type="line"/>
			<point x="62.3333" y="90.3333" type="line"/>
			<point x="41.6667" y="0" type="line"/>
		</contour>
	</outline>
</glyph>
<glyph name="exclamdown" format="2">
	<unicode hex="00A1"/>
	<advance width="266"/>
	<outline>
		<contour>
			<point name="n00" x="185.667" y="-3.66667" type="line"/>
			<point x="275.667" y="387.333" type="line"/>
			<point x="177" y="387.333" type="line"/>
			<point name="n03" x="87" y="-3.66667" type="line"/>
		</contour>
		<contour>
			<point name="n04" x="237.333" y="204" type="line"/>
			<point name="n05" x="281.667" y="436.333" type="line"/>
			<point x="182.333" y="436.333" type="line"/>
			<point x="120.667" y="204" type="line"/>
		</contour>
	</outline>
</glyph>
<glyph name="cent" format="2">
	<unicode hex="00A2"/>
	<advance width="558"/>
	<outline>
		<contour>
			<point x="418" y="442" type="curve"/>
			<point x="223" y="91" type="line"/>
			<point x="200" y="118"/>
			<point x="197" y="172"/>
			<point x="216" y="253" type="curve" smooth="yes"/>
			<point x="246" y="381"/>
			<point x="300" y="445"/>
			<point name="n07" x="377" y="445" type="curve" smooth="yes"/>
			<point x="391" y="445"/>
			<point x="404" y="444"/>
		</contour>
		<contour>
			<point name="n10" x="304" y="58" type="curve" smooth="yes"/>
			<point x="279" y="58"/>
			<point x="262" y="65"/>
			<point x="261" y="65" type="curve"/>
			<point x="464" y="429" type="line"/>
			<point x="483" y="420"/>
			<point x="488" y="392"/>
			<point name="n17" x="479" y="345" type="curve"/>
			<point name="n18" x="564" y="345" type="line"/>
			<point x="568" y="376" type="line" smooth="yes"/>
			<point x="575" y="428"/>
			<point x="547" y="481"/>
			<point x="502" y="496" type="curve"/>
			<point x="566" y="612" type="line"/>
			<point x="520" y="625" type="line"/>
			<point x="456" y="510" type="line"/>
			<point x="445" y="512"/>
			<point x="426" y="513"/>
			<point name="n28" x="399" y="513" type="curve" smooth="yes"/>
			<point x="230" y="513"/>
			<point x="164" y="400"/>
			<point x="128" y="245" type="curve" smooth="yes"/>
			<point x="99" y="120"/>
			<point x="118" y="42"/>
			<point x="179" y="11" type="curve"/>
			<point x="102" y="-126" type="line"/>
			<point x="147" y="-139" type="line"/>
			<point x="224" y="-2" type="line"/>
			<point x="241" y="-9"/>
			<point x="262" y="-12"/>
			<point name="n40" x="287" y="-12" type="curve" smooth="yes"/>
			<point x="408" y="-12"/>
			<point x="505" y="72"/>
			<point name="n43" x="528" y="171" type="curve"/>
			<point name="n44" x="439" y="171" type="line"/>
			<point x="424" y="105"/>
			<point x="370" y="58"/>
		</contour>
	</outline>
</glyph>
<glyph name="sterling" format="2">
	<unicode hex="00A3"/>
	<advance width="558"/>
	<outline>
		<contour>
			<point x="247" y="579" type="curve" smooth="yes"/>
			<point name="n01" x="218" y="456" type="line"/>
			<point x="149" y="456" type="line"/>
			<point x="134" y="392" type="line"/>
			<point name="n04" x="204" y="392" type="line"/>
			<point x="128" y="64" type="line"/>
			<point name="n06" x="59" y="64" type="line"/>
			<point name="n07" x="44" y="0" type="line"/>
			<point x="523" y="0" type="line"/>
			<point x="538" y="64" type="line"/>
			<point x="217" y="64" type="line"/>
			<point x="292" y="392" type="line"/>
			<point x="458" y="392" type="line"/>
			<point x="472" y="456" type="line"/>
			<point x="307" y="456" type="line"/>
			<point x="336" y="579" type="line" smooth="yes"/>
			<point x="350" y="638"/>
			<point x="423" y="672"/>
			<point name="n18" x="483" y="672" type="curve" smooth="yes"/>
			<point x="542" y="672"/>
			<point x="601" y="637"/>
			<point name="n21" x="588" y="579" type="curve"/>
			<point name="n22" x="677" y="579" type="line"/>
			<point x="700" y="677"/>
			<point x="602" y="736"/>
			<point name="n25" x="498" y="736" type="curve" smooth="yes"/>
			<point x="394" y="736"/>
			<point x="270" y="677"/>
		</contour>
	</outline>
</glyph>
<glyph name="yen" format="2">
	<unicode hex="00A5"/>
	<advance width="563"/>
	<outline>
		<contour>
			<point name="n00" x="728.333" y="722" type="line"/>
			<point x="608.667" y="722" type="line"/>
			<point x="371.333" y="383" type="line"/>
			<point x="290" y="722" type="line"/>
			<point x="170.333" y="722" type="line"/>
			<point x="227.667" y="513" type="line"/>
			<point name="n06" x="132" y="513" type="line"/>
			<point name="n07" x="119.667" y="457" type="line"/>
			<point x="242.667" y="457" type="line"/>
			<point x="272.667" y="338" type="line"/>
			<point name="n10" x="91.6667" y="338" type="line"/>
			<point name="n11" x="78.6667" y="282" type="line"/>
			<point x="291" y="282" type="line"/>
			<point name="n13" x="226" y="0" type="line"/>
			<point x="338.667" y="0" type="line"/>
			<point x="403.667" y="282" type="line"/>
			<point x="616" y="282" type="line"/>
			<point x="629" y="338" type="line"/>
			<point x="449.333" y="338" type="line"/>
			<point x="535.333" y="457" type="line"/>
			<point x="657" y="457" type="line"/>
			<point x="669.333" y="513" type="line"/>
			<point x="574.667" y="513" type="line"/>
		</contour>
	</outline>
</glyph>
<glyph name="section" format="2">
	<unicode hex="00A7"/>
	<advance width="467"/>
	<outline>
		<contour>
			<point x="265" y="204" type="line"/>
			<point x="244" y="210" type="line" smooth="yes"/>
			<point x="220" y="217"/>
			<point x="188" y="249"/>
			<point x="196" y="283" type="curve" smooth="yes"/>
			<point x="205" y="324"/>
			<point x="285" y="386"/>
			<point x="326" y="386" type="curve" smooth="yes"/>
			<point x="353" y="386"/>
			<point x="411" y="355"/>
			<point x="398" y="298" type="curve" smooth="yes"/>
			<point x="387" y="250"/>
			<point x="311" y="216"/>
			<point x="265" y="205" type="curve"/>
		</contour>
		<contour>
			<point x="409" y="670" type="line"/>
			<point x="455" y="670"/>
			<point x="496" y="657"/>
			<point x="531" y="631" type="curve"/>
			<point x="546" y="699" type="line"/>
			<point x="505" y="730"/>
			<point x="483" y="735"/>
			<point name="n21" x="415" y="735" type="curve" smooth="yes"/>
			<point x="313" y="735"/>
			<point x="214" y="650"/>
			<point x="198" y="579" type="curve" smooth="yes"/>
			<point x="182" y="509"/>
			<point x="225" y="451"/>
			<point x="273" y="428" type="curve"/>
			<point x="184" y="404"/>
			<point x="130" y="348"/>
			<point x="109" y="259" type="curve" smooth="yes"/>
			<point x="73" y="104"/>
			<point x="347" y="117"/>
			<point x="319" y="-6" type="curve" smooth="yes"/>
			<point x="306" y="-63"/>
			<point x="223" y="-105"/>
			<point name="n36" x="164" y="-105" type="curve" smooth="yes"/>
			<point x="122" y="-105"/>
			<point x="83" y="-89"/>
			<point x="48" y="-64" type="curve"/>
			<point x="31" y="-140" type="line"/>
			<point x="54" y="-158"/>
			<point x="142" y="-173"/>
			<point name="n43" x="172" y="-173" type="curve" smooth="yes"/>
			<point x="267" y="-173"/>
			<point x="394" y="-97"/>
			<point x="420" y="14" type="curve" smooth="yes"/>
			<point x="435" y="80"/>
			<point x="379" y="132"/>
			<point x="331" y="160" type="curve"/>
			<point x="351" y="170" type="line" smooth="yes"/>
			<point x="402" y="195"/>
			<point x="470" y="240"/>
			<point x="486" y="311" type="curve" smooth="yes"/>
			<point x="522" y="465"/>
			<point x="268" y="470"/>
			<point x="295" y="588" type="curve" smooth="yes"/>
			<point x="305" y="631"/>
			<point x="364" y="671"/>
			<point name="n59" x="408" y="671" type="curve"/>
		</contour>
	</outline>
</glyph>
<glyph name="dieresis" format="2">
	<unicode hex="00A8"/>
	<advance width="299"/>
	<outline>
		<contour>
			<point name="n00" x="311.667" y="630" type="line"/>
			<point name="n01" x="335.667" y="731.333" type="line"/>
			<point x="239" y="731.333" type="line"/>
			<point name="n03" x="215" y="630" type="line"/>
		</contour>
		<contour>
			<point x="375" y="630" type="line"/>
			<point name="n05" x="399" y="731.333" type="line"/>
			<point x="302.333" y="731.333" type="line"/>
			<point x="278.333" y="630" type="line"/>
		</contour>
	</outline>
</glyph>
<glyph name="copyright" format="2">
  <advance width="867"/>
  <unicode hex="00A9"/>
  <outline>
    <contour>
      <point x="296.667" y="275" type="curve" smooth="yes"/>
      <point x="296.667" y="184.667"/>
      <point x="351" y="123.333"/>
      <point x="460.333" y="123.333" type="curve" smooth="yes"/>
      <point x="575.333" y="123.333"/>
      <point x="658.333" y="191.667"/>
      <point x="690.333" y="287.667" type="curve"/>
      <point x="597.333" y="287.667" type="line"/>
      <point x="581.333" y="229.667"/>
      <point x="542" y="195"/>
      <point x="474" y="195" type="curve" smooth="yes"/>
      <point x="413" y="195"/>
      <point x="389.333" y="213.333"/>
      <point x="389.333" y="273.333" type="curve" smooth="yes"/>
      <point x="389.333" y="369.667"/>
      <point x="441" y="529"/>
      <point x="545.333" y="529" type="curve" smooth="yes"/>
      <point x="603" y="529"/>
      <point x="631" y="506.333"/>
      <point x="631" y="462" type="curve" smooth="yes"/>
      <point x="631" y="453"/>
      <point x="630" y="443.333"/>
      <point x="628" y="432.667" type="curve"/>
      <point x="720.667" y="432.667" type="line"/>
      <point x="724" y="446.667"/>
      <point x="726" y="461"/>
      <point x="726" y="474.333" type="curve" smooth="yes"/>
      <point x="726" y="543.333"/>
      <point x="675.667" y="591.333"/>
      <point x="576.667" y="591.333" type="curve" smooth="yes"/>
      <point x="396.667" y="591.333"/>
      <point x="296.667" y="434"/>
    </contour>
    <contour>
      <point x="131.667" y="282" type="curve" smooth="yes"/>
      <point x="131.667" y="105.333"/>
      <point x="254.333" y="-12.6667"/>
      <point x="430" y="-12.6667" type="curve" smooth="yes"/>
      <point x="676" y="-12.6667"/>
      <point x="901.333" y="178"/>
      <point x="901.333" y="440" type="curve" smooth="yes"/>
      <point x="901.333" y="614.333"/>
      <point x="777.333" y="734.667"/>
      <point x="596" y="734.667" type="curve" smooth="yes"/>
      <point x="355" y="734.667"/>
      <point x="131.667" y="520.667"/>
    </contour>
    <contour>
      <point x="191.667" y="287" type="curve" smooth="yes"/>
      <point x="191.667" y="486.667"/>
      <point x="383.667" y="675"/>
      <point x="585.667" y="675" type="curve" smooth="yes"/>
      <point x="735.667" y="675"/>
      <point x="840" y="570.667"/>
      <point x="840" y="421.667" type="curve" smooth="yes"/>
      <point x="840" y="215.333"/>
      <point x="641.333" y="41.3333"/>
      <point x="444" y="41.3333" type="curve" smooth="yes"/>
      <point x="292" y="41.3333"/>
      <point x="191.667" y="143.667"/>
    </contour>
  </outline>
</glyph>
<glyph name="ordfeminine" format="2">
  <advance width="447"/>
  <unicode hex="00AA"/>
  <outline>
    <component base="a" xScale="0.7202" yScale="0.7202" xOffset="78.6667" yOffset="350"/>
    <contour>
      <point x="463.333" y="239.333" type="line"/>
      <point x="472.667" y="279.667" type="line"/>
      <point x="123.667" y="279.667" type="line"/>
      <point x="114.333" y="239.333" type="line"/>
    </contour>
  </outline>
</glyph>
<glyph name="guillemotleft" format="2">
	<unicode hex="00AB"/>
	<advance width="572"/>
	<outline>
		<contour>
			<point name="n00" x="389.333" y="57" type="line"/>
			<point x="324.333" y="252" type="line"/>
			<point x="479.333" y="447" type="line"/>
			<point name="n03" x="384" y="447" type="line"/>
			<point name="n04" x="211" y="252" type="line"/>
			<point x="294" y="57" type="line"/>
		</contour>
		<contour>
			<point x="433.333" y="57" type="line"/>
			<point x="368.333" y="252" type="line"/>
			<point name="n08" x="523.333" y="447" type="line"/>
			<point x="428" y="447" type="line"/>
			<point x="255" y="252" type="line"/>
			<point x="338" y="57" type="line"/>
		</contour>
	</outline>
</glyph>
<glyph name="uni00AD" format="2">
  <advance width="320"/>
  <unicode hex="00AD"/>
  <outline>
    <contour>
      <point x="342" y="250" type="line"/>
      <point x="362.667" y="348" type="line"/>
      <point x="119.333" y="348" type="line"/>
      <point x="98.6667" y="250" type="line"/>
    </contour>
  </outline>
</glyph>
<glyph name="macron" format="2">
	<unicode hex="00AF"/>
	<advance width="299"/>
	<outline>
		<contour>
			<point name="n00" x="445" y="630" type="line"/>
			<point name="n01" x="462" y="702.333" type="line"/>
			<point x="162" y="702.333" type="line"/>
			<point name="n03" x="145" y="630" type="line"/>
		</contour>
	</outline>
</glyph>
<glyph name="plusminus" format="2">
	<unicode hex="00B1"/>
	<advance width="1000"/>
	<outline>
		<contour>
			<point name="n00" x="800" y="0" type="line"/>
			<point name="n01" x="814" y="62" type="line"/>
			<point x="214" y="62" type="line"/>
			<point x="200" y="0" type="line"/>
		</contour>
		<contour>
			<point name="n04" x="883" y="358" type="line"/>
			<point name="n05" x="897" y="420" type="line"/>
			<point x="628" y="420" type="line"/>
			<point x="670" y="600" type="line"/>
			<point x="608" y="600" type="line"/>
			<point x="566" y="420" type="line"/>
			<point x="297" y="420" type="line"/>
			<point x="283" y="358" type="line"/>
			<point x="552" y="358" type="line"/>
			<point x="510" y="178" type="line"/>
			<point x="572" y="178" type="line"/>
			<point x="614" y="358" type="line"/>
		</contour>
	</outline>
</glyph>
<glyph name="threesuperior" format="2">
  <advance width="369"/>
  <unicode hex="00B3"/>
  <outline>
    <contour>
      <point x="359.333" y="542.667" type="line"/>
      <point x="436" y="563.667"/>
      <point x="476" y="601.667"/>
      <point x="476" y="653.333" type="curve" smooth="yes"/>
      <point x="476" y="706.333"/>
      <point x="431.333" y="738"/>
      <point x="356.667" y="738" type="curve" smooth="yes"/>
      <point x="269.667" y="738"/>
      <point x="204" y="695"/>
      <point x="188" y="627.333" type="curve"/>
      <point x="266.333" y="627.333" type="line"/>
      <point x="281" y="666"/>
      <point x="303.667" y="683"/>
      <point x="339" y="683" type="curve" smooth="yes"/>
      <point x="371.667" y="683"/>
      <point x="389.333" y="668"/>
      <point x="389.333" y="641.333" type="curve" smooth="yes"/>
      <point x="389.333" y="599"/>
      <point x="346.667" y="572.333"/>
      <point x="279.333" y="572.333" type="curve"/>
      <point x="266.667" y="517.333" type="line"/>
      <point x="330.667" y="517.333"/>
      <point x="357.667" y="503"/>
      <point x="357.667" y="470" type="curve" smooth="yes"/>
      <point x="357.667" y="430.333"/>
      <point x="318" y="399.667"/>
      <point x="268" y="399.667" type="curve" smooth="yes"/>
      <point x="233.667" y="399.667"/>
      <point x="217.333" y="413.667"/>
      <point x="217.333" y="442.333" type="curve" smooth="yes"/>
      <point x="217.333" y="449.333"/>
      <point x="217.667" y="454"/>
      <point x="219" y="459.667" type="curve"/>
      <point x="137" y="459.667" type="line"/>
      <point x="135.667" y="451"/>
      <point x="134.333" y="442.333"/>
      <point x="134.333" y="432.333" type="curve" smooth="yes"/>
      <point x="134.333" y="376.333"/>
      <point x="180.667" y="340.667"/>
      <point x="256" y="340.667" type="curve" smooth="yes"/>
      <point x="364.667" y="340.667"/>
      <point x="440.667" y="391.667"/>
      <point x="440.667" y="465.333" type="curve" smooth="yes"/>
      <point x="440.667" y="510"/>
      <point x="412.333" y="540.333"/>
      <point x="359.667" y="552.667" type="curve"/>
      <point x="363" y="547.667" type="line"/>
    </contour>
  </outline>
</glyph>
<glyph name="acute" format="2">
	<unicode hex="00B4"/>
	<advance width="181"/>
	<outline>
		<contour>
			<point name="n00" x="352" y="741.333" type="line"/>
			<point name="n01" x="242" y="741.333" type="line"/>
			<point name="n02" x="125.333" y="541.333" type="line"/>
			<point name="n03" x="195.333" y="541.333" type="line"/>
		</contour>
	</outline>
</glyph>
<glyph name="periodcentered" format="2">
  <advance width="278"/>
  <unicode hex="00B7"/>
  <anchor x="161.333" y="344" name="_dotCN"/>
  <anchor x="218.333" y="478.333" name="top"/>
  <outline>
    <contour>
      <point x="260.333" y="277.333" type="line"/>
      <point x="289.667" y="403.333" type="line"/>
      <point x="175.667" y="403.333" type="line"/>
      <point x="146.333" y="277.333" type="line"/>
    </contour>
  </outline>
</glyph>
<glyph name="cedilla" format="2">
	<unicode hex="00B8"/>
	<advance width="250"/>
	<outline>
		<contour>
			<point x="257.667" y="-156.333" type="line"/>
			<point x="274.333" y="-85.3333"/>
			<point x="232.333" y="-50"/>
			<point name="n03" x="134.667" y="-50.3333" type="curve"/>
			<point name="n04" x="146.667" y="-0.333333" type="line"/>
			<point x="103.333" y="-0.333333" type="line"/>
			<point x="80.3333" y="-100.333" type="line"/>
			<point name="n07" x="111.667" y="-100.333" type="line" smooth="yes"/>
			<point x="142" y="-100.333"/>
			<point x="177" y="-114.667"/>
			<point x="176.333" y="-144.333" type="curve"/>
			<point x="177.667" y="-164"/>
			<point x="161" y="-176.667"/>
			<point x="128.333" y="-182.667" type="curve"/>
			<point x="126.089" y="-190"/>
			<point x="116.281" y="-193.667"/>
			<point name="n16" x="103" y="-193.667" type="curve" smooth="yes"/>
			<point x="73" y="-193.667"/>
			<point x="40" y="-189.667"/>
			<point x="4" y="-181.333" type="curve"/>
			<point name="n20" x="-8.33333" y="-234.667" type="line"/>
			<point x="29.6667" y="-240.667"/>
			<point x="60.3333" y="-243.667"/>
			<point name="n23" x="85.3333" y="-243.667" type="curve" smooth="yes"/>
			<point x="152" y="-243.667"/>
			<point x="244" y="-219"/>
			<point name="n26" x="258.667" y="-157" type="curve"/>
		</contour>
	</outline>
</glyph>
<glyph name="guillemotright" format="2">
  <advance width="572"/>
  <unicode hex="00BB"/>
  <outline>
    <contour>
      <point x="434.333" y="252" type="line"/>
      <point x="351.333" y="447" type="line"/>
      <point x="256" y="447" type="line"/>
      <point x="320.333" y="252" type="line"/>
      <point x="166" y="57" type="line"/>
      <point x="261.333" y="57" type="line"/>
    </contour>
    <contour>
      <point x="478.333" y="252" type="line"/>
      <point x="395.333" y="447" type="line"/>
      <point x="300" y="447" type="line"/>
      <point x="364.333" y="252" type="line"/>
      <point x="210" y="57" type="line"/>
      <point x="305.333" y="57" type="line"/>
    </contour>
  </outline>
</glyph>
<glyph name="onequarter" format="2">
	<unicode hex="00BC"/>
	<advance width="799"/>
	<outline>
		<contour>
			<point name="n00" x="633" y="149" type="line"/>
			<point x="512" y="149" type="line"/>
			<point x="671" y="314" type="line"/>
		</contour>
		<contour>
			<point x="298" y="351" type="line"/>
			<point x="386" y="731" type="line"/>
			<point x="324" y="731" type="line"/>
			<point x="286" y="707" type="line" smooth="yes"/>
			<point x="261" y="691"/>
			<point x="236" y="682"/>
			<point x="212" y="674" type="curve"/>
			<point x="199" y="619" type="line"/>
			<point x="229" y="624"/>
			<point x="265" y="640"/>
			<point x="307" y="667" type="curve"/>
			<point x="234" y="352" type="line"/>
		</contour>
		<contour>
			<point x="783" y="736" type="line"/>
			<point x="714" y="736" type="line"/>
			<point name="n17" x="115" y="-14" type="line"/>
			<point x="184" y="-14" type="line"/>
		</contour>
		<contour>
			<point x="766" y="95" type="line"/>
			<point x="778" y="148" type="line"/>
			<point x="697" y="148" type="line"/>
			<point x="753" y="390" type="line"/>
			<point x="683" y="390" type="line"/>
			<point x="453" y="147" type="line"/>
			<point x="441" y="95" type="line"/>
			<point name="n26" x="621" y="95" type="line"/>
			<point x="599" y="0" type="line"/>
			<point x="663" y="0" type="line"/>
			<point x="685" y="95" type="line"/>
		</contour>
	</outline>
</glyph>
<glyph name="onehalf" format="2">
  <advance width="799"/>
  <unicode hex="00BD"/>
  <outline>
    <component base="twosuperior" xOffset="343" yOffset="-351"/>
    <component base="onesuperior"/>
    <contour>
      <point x="788.667" y="736.333" type="line"/>
      <point x="709.667" y="736.333" type="line"/>
      <point x="110.667" y="-13.6667" type="line"/>
      <point x="189.667" y="-13.6667" type="line"/>
    </contour>
  </outline>
</glyph>
<glyph name="threequarters" format="2">
  <advance width="799"/>
  <unicode hex="00BE"/>
  <outline>
    <component base="threesuperior"/>
    <contour>
      <point x="840.333" y="736" type="line"/>
      <point x="761.333" y="736" type="line"/>
      <point x="162.333" y="-14" type="line"/>
      <point x="241.333" y="-14" type="line"/>
    </contour>
    <contour>
      <point x="787.667" y="86.6667" type="line"/>
      <point x="800.333" y="141.667" type="line"/>
      <point x="731.667" y="141.667" type="line"/>
      <point x="787.667" y="384" type="line"/>
      <point x="702.667" y="384" type="line"/>
      <point x="478.333" y="145.333" type="line"/>
      <point x="465" y="86.6667" type="line"/>
      <point x="644.333" y="86.6667" type="line"/>
      <point x="623.333" y="-4.66667" type="line"/>
      <point x="698" y="-4.66667" type="line"/>
      <point x="719" y="86.6667" type="line"/>
    </contour>
    <contour>
      <point x="655" y="141.667" type="line"/>
      <point x="543" y="141.667" type="line"/>
      <point x="691.667" y="301.333" type="line"/>
    </contour>
  </outline>
</glyph>
<glyph name="Acircumflex" format="2">
	<unicode hex="00C2"/>
	<advance width="750"/>
	<outline>
		<contour>
			<point name="n00" x="573" y="278" type="line"/>
			<point x="300" y="278" type="line"/>
			<point x="512" y="611" type="line"/>
		</contour>
		<contour>
			<point name="n03" x="735" y="0" type="line"/>
			<point name="n04" x="595" y="722" type="line"/>
			<point x="485" y="722" type="line"/>
			<point x="15" y="0" type="line"/>
			<point x="118" y="0" type="line"/>
			<point x="242" y="193" type="line"/>
			<point name="n09" x="596" y="193" type="line"/>
			<point x="629" y="0" type="line"/>
		</contour>
		<contour>
			<point x="710" y="821" type="line"/>
			<point x="659" y="991" type="line"/>
			<point x="549" y="991" type="line"/>
			<point x="420" y="821" type="line"/>
			<point x="480" y="821" type="line"/>
			<point x="590" y="931" type="line"/>
			<point x="650" y="821" type="line"/>
		</contour>
	</outline>
</glyph>
<glyph name="AE" format="2">
	<unicode hex="00C6"/>
	<advance width="976"/>
	<outline>
		<contour>
			<point name="n00" x="524" y="278" type="line"/>
			<point x="342" y="278" type="line"/>
			<point x="608" y="641" type="line"/>
		</contour>
		<contour>
			<point name="n03" x="917" y="0" type="line"/>
			<point name="n04" x="937" y="87" type="line"/>
			<point x="581" y="87" type="line"/>
			<point name="n06" x="636" y="326" type="line"/>
			<point x="972" y="326" type="line"/>
			<point x="992" y="413" type="line"/>
			<point name="n09" x="656" y="413" type="line"/>
			<point x="708" y="635" type="line"/>
			<point name="n11" x="1054" y="635" type="line"/>
			<point name="n12" x="1074" y="722" type="line"/>
			<point x="565" y="722" type="line"/>
			<point x="15" y="0" type="line"/>
			<point x="121" y="0" type="line"/>
			<point x="274" y="193" type="line"/>
			<point name="n17" x="505" y="193" type="line"/>
			<point x="460" y="0" type="line"/>
		</contour>
	</outline>
</glyph>
<glyph name="Egrave" format="2">
	<unicode hex="00C8"/>
	<advance width="606"/>
	<outline>
		<contour>
			<point name="n00" x="537" y="0" type="line"/>
			<point name="n01" x="557" y="87" type="line"/>
			<point x="201" y="87" type="line"/>
			<point name="n03" x="256" y="326" type="line"/>
			<point x="592" y="326" type="line"/>
			<point x="612" y="413" type="line"/>
			<point name="n06" x="276" y="413" type="line"/>
			<point x="328" y="635" type="line"/>
			<point name="n08" x="674" y="635" type="line"/>
			<point name="n09" x="694" y="722" type="line"/>
			<point x="247" y="722" type="line"/>
			<point x="80" y="0" type="line"/>
		</contour>
		<contour>
			<point x="554" y="821" type="line"/>
			<point x="493" y="992" type="line"/>
			<point x="392" y="992" type="line"/>
			<point x="493" y="821" type="line"/>
		</contour>
	</outline>
</glyph>
<glyph name="Igrave" format="2">
	<unicode hex="00CC"/>
	<advance width="270"/>
	<outline>
		<contour>
			<point name="n00" x="247.667" y="273.333" type="line"/>
			<point name="n01" x="342.667" y="814.667" type="line"/>
			<point x="232" y="814.667" type="line"/>
			<point name="n03" x="157" y="273.333" type="line"/>
		</contour>
		<contour>
			<point name="n04" x="326.667" y="547.333" type="line"/>
			<point x="335" y="902" type="line"/>
			<point x="224.333" y="902" type="line"/>
			<point x="236" y="547.333" type="line"/>
		</contour>
	</outline>
</glyph>
<glyph name="Iacute" format="2">
	<unicode hex="00CD"/>
	<advance width="261"/>
	<outline>
		<contour>
			<point name="n00" x="297.333" y="333.333" type="line"/>
			<point name="n01" x="365.333" y="814.667" type="line"/>
			<point x="253.667" y="754.667" type="line"/>
			<point x="165.667" y="273.333" type="line"/>
		</contour>
		<contour>
			<point x="405.667" y="662" type="line"/>
			<point x="394" y="902.667" type="line"/>
			<point x="251.333" y="788.667" type="line"/>
			<point x="236.333" y="548" type="line"/>
		</contour>
	</outline>
</glyph>
<glyph name="Icircumflex" format="2">
	<unicode hex="00CE"/>
	<advance width="260"/>
	<outline>
		<contour>
			<point name="n00" x="181" y="0" type="line"/>
			<point name="n01" x="348" y="722" type="line"/>
			<point x="247" y="722" type="line"/>
			<point x="80" y="0" type="line"/>
		</contour>
		<contour>
			<point x="466" y="821" type="line"/>
			<point x="415" y="991" type="line"/>
			<point x="305" y="991" type="line"/>
			<point x="176" y="821" type="line"/>
			<point x="236" y="821" type="line"/>
			<point x="346" y="931" type="line"/>
			<point x="406" y="821" type="line"/>
		</contour>
	</outline>
</glyph>
<glyph name="Idieresis" format="2">
	<unicode hex="00CF"/>
	<advance width="270"/>
	<outline>
		<contour>
			<point name="n00" x="288" y="284" type="line"/>
			<point name="n01" x="408.333" y="805.333" type="line"/>
			<point x="304.333" y="805.333" type="line"/>
			<point x="184" y="284" type="line"/>
		</contour>
		<contour>
			<point name="n04" x="278.667" y="850.667" type="line"/>
			<point name="n05" x="301.667" y="952" type="line"/>
			<point x="205" y="952" type="line"/>
			<point x="182" y="850.667" type="line"/>
		</contour>
		<contour>
			<point x="388" y="566.667" type="line"/>
			<point x="457.667" y="868.667" type="line"/>
			<point x="347.667" y="868.667" type="line"/>
			<point x="278" y="566.667" type="line"/>
		</contour>
	</outline>
</glyph>
<glyph name="Ocircumflex" format="2">
	<unicode hex="00D4"/>
	<advance width="773"/>
	<outline>
		<contour>
			<point x="696" y="374" type="line"/>
			<point x="657" y="206"/>
			<point x="572" y="73"/>
			<point name="n03" x="403" y="73" type="curve" smooth="yes"/>
			<point x="239" y="73"/>
			<point x="209" y="204"/>
			<point x="248" y="375" type="curve" smooth="yes"/>
			<point x="290" y="558"/>
			<point x="386" y="649"/>
			<point name="n09" x="536" y="649" type="curve" smooth="yes"/>
			<point x="702" y="649"/>
			<point x="734" y="540"/>
			<point x="696" y="375" type="curve"/>
		</contour>
		<contour>
			<point x="801" y="375" type="line"/>
			<point x="850" y="588"/>
			<point x="773" y="735"/>
			<point name="n16" x="558" y="735" type="curve" smooth="yes"/>
			<point x="342" y="735"/>
			<point x="195" y="588"/>
			<point x="146" y="375" type="curve" smooth="yes"/>
			<point x="102" y="184"/>
			<point x="148" y="-14"/>
			<point name="n22" x="383" y="-14" type="curve" smooth="yes"/>
			<point x="586" y="-14"/>
			<point x="746" y="143"/>
			<point x="799" y="374" type="curve"/>
		</contour>
		<contour>
			<point x="723" y="821" type="line"/>
			<point x="672" y="991" type="line"/>
			<point x="562" y="991" type="line"/>
			<point x="433" y="821" type="line"/>
			<point x="493" y="821" type="line"/>
			<point x="603" y="931" type="line"/>
			<point x="663" y="821" type="line"/>
		</contour>
	</outline>
</glyph>
<glyph name="multiply" format="2">
	<unicode hex="00D7"/>
	<advance width="760"/>
	<outline>
		<contour>
			<point x="666" y="69" type="line"/>
			<point x="489" y="300" type="line"/>
			<point name="n02" x="773" y="531" type="line"/>
			<point x="743" y="570" type="line"/>
			<point x="458" y="338" type="line"/>
			<point name="n05" x="281" y="570" type="line"/>
			<point x="233" y="531" type="line"/>
			<point x="409" y="300" type="line"/>
			<point name="n08" x="126" y="69" type="line"/>
			<point name="n09" x="156" y="30" type="line"/>
			<point x="440" y="262" type="line"/>
			<point x="618" y="30" type="line"/>
		</contour>
	</outline>
</glyph>
<glyph name="Oslash" format="2">
  <advance width="780"/>
  <unicode hex="00D8"/>
  <anchor x="545.333" y="800" name="top"/>
  <outline>
    <component base="O" xOffset="6"/>
    <contour>
      <point x="94.6667" y="-83.6667" type="line"/>
      <point x="909.333" y="752.667" type="line"/>
      <point x="851.333" y="803" type="line"/>
      <point x="36.3333" y="-33" type="line"/>
    </contour>
  </outline>
</glyph>
<glyph name="Thorn" format="2">
  <advance width="633"/>
  <unicode hex="00DE"/>
  <outline>
    <contour>
      <point x="72.3333" y="0" type="line"/>
      <point x="189.667" y="0" type="line"/>
      <point x="229" y="169" type="line"/>
      <point x="331" y="169" type="line" smooth="yes"/>
      <point x="509.333" y="169"/>
      <point x="666.333" y="242.667"/>
      <point x="666.333" y="441.667" type="curve" smooth="yes"/>
      <point x="666.333" y="558"/>
      <point x="566.667" y="592.333"/>
      <point x="428.667" y="592.333" type="curve" smooth="yes"/>
      <point x="326.667" y="592.333" type="line"/>
      <point x="356.667" y="722" type="line"/>
      <point x="239.333" y="722" type="line"/>
    </contour>
    <contour>
      <point x="251" y="266" type="line"/>
      <point x="304.333" y="496" type="line"/>
      <point x="408.333" y="496" type="line" smooth="yes"/>
      <point x="494.333" y="496"/>
      <point x="548.667" y="478.333"/>
      <point x="548.667" y="414.667" type="curve" smooth="yes"/>
      <point x="548.667" y="297.667"/>
      <point x="457.333" y="266"/>
      <point x="355" y="266" type="curve" smooth="yes"/>
    </contour>
  </outline>
</glyph>
<glyph name="germandbls" format="2">
	<unicode hex="00DF"/>
	<advance width="558"/>
	<outline>
		<contour>
			<point x="429" y="58" type="line"/>
			<point x="365" y="58"/>
			<point x="322" y="91"/>
			<point name="n03" x="334" y="141" type="curve"/>
			<point name="n04" x="241" y="141" type="line"/>
			<point x="223" y="63"/>
			<point x="292" y="-12"/>
			<point x="389" y="-14" type="curve"/>
			<point name="n08" x="392" y="-14" type="line" smooth="yes"/>
			<point x="498" y="-14"/>
			<point x="568" y="43"/>
			<point x="593" y="152" type="curve" smooth="yes"/>
			<point x="623" y="283"/>
			<point x="513" y="305"/>
			<point x="454" y="354" type="curve" smooth="yes"/>
			<point x="442" y="364"/>
			<point x="437" y="375"/>
			<point x="440" y="386" type="curve"/>
			<point x="453" y="441"/>
			<point x="586" y="471"/>
			<point x="610" y="577" type="curve" smooth="yes"/>
			<point x="633" y="678"/>
			<point x="574" y="730"/>
			<point name="n23" x="439" y="733" type="curve"/>
			<point x="433" y="733" type="line" smooth="yes"/>
			<point x="338" y="733"/>
			<point x="203" y="655"/>
			<point x="185" y="579" type="curve" smooth="yes"/>
			<point name="n28" x="50" y="-3" type="line"/>
			<point x="140" y="-3" type="line"/>
			<point x="270" y="557" type="line" smooth="yes"/>
			<point x="283" y="613"/>
			<point x="366" y="659"/>
			<point name="n33" x="445" y="659" type="curve" smooth="yes"/>
			<point x="512" y="659"/>
			<point x="522" y="607"/>
			<point x="511" y="559" type="curve" smooth="yes"/>
			<point x="495" y="488"/>
			<point x="368" y="491"/>
			<point x="344" y="389" type="curve" smooth="yes"/>
			<point x="311" y="244"/>
			<point x="530" y="267"/>
			<point x="502" y="146" type="curve" smooth="yes"/>
			<point x="494" y="113" type="line" smooth="yes"/>
			<point x="485" y="75"/>
			<point name="hr02" x="464" y="53"/>
			<point name="n46" x="424" y="53" type="curve"/>
		</contour>
	</outline>
</glyph>
<glyph name="igrave" format="2">
	<unicode hex="00EC"/>
	<advance width="241"/>
	<outline>
		<contour>
			<point name="n00" x="218" y="200" type="line"/>
			<point name="n01" x="278" y="593.333" type="line"/>
			<point x="174.667" y="593.333" type="line"/>
			<point name="n03" x="134.667" y="200" type="line"/>
		</contour>
		<contour>
			<point name="n04" x="276.667" y="400" type="line"/>
			<point x="270.333" y="680.667" type="line"/>
			<point x="162" y="680.667" type="line"/>
			<point x="191" y="400" type="line"/>
		</contour>
	</outline>
</glyph>
<glyph name="iacute" format="2">
	<unicode hex="00ED"/>
	<advance width="229"/>
	<outline>
		<contour>
			<point name="n00" x="257.333" y="260" type="line"/>
			<point name="n01" x="290.667" y="593.333" type="line"/>
			<point x="186.667" y="533.333" type="line"/>
			<point x="133.333" y="200" type="line"/>
		</contour>
		<contour>
			<point x="355.333" y="514" type="line"/>
			<point x="326.333" y="680.667" type="line"/>
			<point x="188.667" y="566.667" type="line"/>
			<point x="191" y="400" type="line"/>
		</contour>
	</outline>
</glyph>
<glyph name="icircumflex" format="2">
	<unicode hex="00EE"/>
	<advance width="229"/>
	<outline>
		<contour>
			<point name="n00" x="160" y="0" type="line"/>
			<point name="n01" x="275" y="500" type="line"/>
			<point x="185" y="500" type="line"/>
			<point name="n03" x="70" y="0" type="line"/>
		</contour>
		<contour>
			<point name="n04" x="399" y="600" type="line"/>
			<point x="348" y="770" type="line"/>
			<point x="238" y="770" type="line"/>
			<point x="109" y="600" type="line"/>
			<point x="169" y="600" type="line"/>
			<point x="279" y="710" type="line"/>
			<point x="339" y="600" type="line"/>
		</contour>
	</outline>
</glyph>
<glyph name="idieresis" format="2">
	<unicode hex="00EF"/>
	<advance width="241"/>
	<outline>
		<contour>
			<point name="n00" x="252.333" y="210" type="line"/>
			<point name="n01" x="338.333" y="583.333" type="line"/>
			<point x="241.667" y="583.333" type="line"/>
			<point x="155.667" y="210" type="line"/>
		</contour>
		<contour>
			<point x="212.333" y="630" type="line"/>
			<point x="243" y="731.333" type="line"/>
			<point name="n06" x="139.667" y="731.333" type="line"/>
			<point name="n07" x="115.667" y="630" type="line"/>
		</contour>
		<contour>
			<point x="336.667" y="420" type="line"/>
			<point x="389.667" y="648" type="line"/>
			<point x="284.667" y="648" type="line"/>
			<point x="231.667" y="420" type="line"/>
		</contour>
	</outline>
</glyph>
<glyph name="eth" format="2">
  <advance width="593"/>
  <unicode hex="00F0"/>
  <outline>
    <contour>
      <point x="94" y="169.333" type="curve" smooth="yes"/>
      <point x="94" y="50.3333"/>
      <point x="165.667" y="-13.6667"/>
      <point x="291.333" y="-13.6667" type="curve" smooth="yes"/>
      <point x="502" y="-13.6667"/>
      <point x="615" y="164"/>
      <point x="615" y="349" type="curve" smooth="yes"/>
      <point x="615" y="486.333"/>
      <point x="550" y="580.667"/>
      <point x="491.667" y="629.333" type="curve"/>
      <point x="640.333" y="692" type="line"/>
      <point x="629" y="738.333" type="line"/>
      <point x="453.333" y="666" type="line"/>
      <point x="435.426" y="679.471"/>
      <point x="360.65" y="726.532"/>
      <point x="336" y="737.667" type="curve"/>
      <point x="277" y="705.667" type="line"/>
      <point x="296.295" y="693.511"/>
      <point x="351.885" y="650.238"/>
      <point x="371.667" y="631.667" type="curve"/>
      <point x="211.333" y="566" type="line"/>
      <point x="221.333" y="519.667" type="line"/>
      <point x="411.667" y="596.667" type="line"/>
      <point x="434" y="577"/>
      <point x="463" y="540.333"/>
      <point x="465.667" y="506" type="curve"/>
      <point x="454.824" y="508.272"/>
      <point x="421.745" y="512.157"/>
      <point x="401" y="512.667" type="curve"/>
      <point x="213.333" y="512.667"/>
      <point x="94" y="346.333"/>
    </contour>
    <contour>
      <point x="201" y="182.667" type="curve" smooth="yes"/>
      <point x="201" y="289.667"/>
      <point x="273.333" y="436"/>
      <point x="400.333" y="436" type="curve" smooth="yes"/>
      <point x="470" y="436"/>
      <point x="503.667" y="393"/>
      <point x="503.667" y="316.667" type="curve" smooth="yes"/>
      <point x="503.667" y="210"/>
      <point x="438" y="69.3333"/>
      <point x="305" y="69.3333" type="curve" smooth="yes"/>
      <point x="234.667" y="69.3333"/>
      <point x="201" y="109.333"/>
    </contour>
  </outline>
</glyph>
<glyph name="ograve" format="2">
	<unicode hex="00F2"/>
	<advance width="573"/>
	<outline>
		<contour>
			<point x="503" y="248" type="curve" smooth="yes"/>
			<point x="480" y="148"/>
			<point x="405" y="51"/>
			<point name="n03" x="302" y="51" type="curve" smooth="yes"/>
			<point x="199" y="51"/>
			<point x="168" y="148"/>
			<point x="191" y="248" type="curve" smooth="yes"/>
			<point x="214" y="349"/>
			<point x="290" y="447"/>
			<point name="n09" x="393" y="447" type="curve" smooth="yes"/>
			<point x="496" y="447"/>
			<point x="526" y="349"/>
		</contour>
		<contour>
			<point x="598" y="250" type="line"/>
			<point x="635" y="410"/>
			<point x="564" y="512"/>
			<point name="n15" x="408" y="512" type="curve" smooth="yes"/>
			<point x="253" y="512"/>
			<point x="134" y="408"/>
			<point x="97" y="249" type="curve" smooth="yes"/>
			<point x="60" y="90"/>
			<point x="132" y="-14"/>
			<point name="n21" x="287" y="-14" type="curve" smooth="yes"/>
			<point x="443" y="-14"/>
			<point x="560" y="88"/>
			<point x="597" y="248" type="curve"/>
		</contour>
		<contour>
			<point x="493" y="600" type="line"/>
			<point x="432" y="771" type="line"/>
			<point x="331" y="771" type="line"/>
			<point x="432" y="600" type="line"/>
		</contour>
	</outline>
</glyph>
<glyph name="divide" format="2">
	<unicode hex="00F7"/>
	<advance width="1000"/>
	<outline>
		<contour>
			<point name="n00" x="570.667" y="306.333" type="curve" smooth="yes"/>
			<point x="538" y="306.333"/>
			<point x="504.667" y="279.333"/>
			<point x="496.667" y="246.333" type="curve" smooth="yes"/>
			<point x="488.667" y="213.333"/>
			<point x="510.667" y="187"/>
			<point name="n06" x="543" y="187" type="curve" smooth="yes"/>
			<point x="575.333" y="187"/>
			<point x="609.333" y="214"/>
			<point x="616.667" y="246.333" type="curve" smooth="yes"/>
			<point x="624.667" y="279.333"/>
			<point x="603.333" y="306.333"/>
		</contour>
		<contour>
			<point name="n12" x="862" y="269" type="line"/>
			<point name="n13" x="876" y="331" type="line"/>
			<point x="276" y="331" type="line"/>
			<point x="262" y="269" type="line"/>
		</contour>
		<contour>
			<point name="n16" x="595.333" y="413.667" type="curve" smooth="yes"/>
			<point name="hr02" x="563" y="413.667"/>
			<point x="529.333" y="386.667"/>
			<point x="521.333" y="353.667" type="curve" smooth="yes"/>
			<point x="513.333" y="320.667"/>
			<point x="535.333" y="294"/>
			<point name="n22" x="568" y="294" type="curve" smooth="yes"/>
			<point x="600.667" y="294"/>
			<point x="633.667" y="321"/>
			<point x="641.333" y="353.667" type="curve" smooth="yes"/>
			<point x="649.333" y="386.667"/>
			<point x="627.667" y="413.667"/>
		</contour>
	</outline>
</glyph>
<glyph name="oslash" format="2">
	<unicode hex="00F8"/>
	<advance width="591"/>
	<outline>
		<contour>
			<point x="504" y="248" type="curve" smooth="yes"/>
			<point x="480" y="145"/>
			<point x="406" y="49"/>
			<point name="n03" x="306" y="49" type="curve" smooth="yes"/>
			<point x="273" y="49"/>
			<point x="245" y="59"/>
			<point x="224" y="80" type="curve"/>
			<point x="504" y="371" type="line"/>
			<point x="514" y="332"/>
			<point x="514" y="291"/>
		</contour>
		<contour>
			<point x="472" y="421" type="curve"/>
			<point x="198" y="135" type="line"/>
			<point x="190" y="169"/>
			<point x="191" y="207"/>
			<point x="200" y="248" type="curve" smooth="yes"/>
			<point x="224" y="351"/>
			<point x="298" y="447"/>
			<point name="n17" x="398" y="447" type="curve" smooth="yes"/>
			<point x="430" y="447"/>
			<point x="455" y="438"/>
		</contour>
		<contour>
			<point x="678" y="554" type="line"/>
			<point x="635" y="591" type="line"/>
			<point x="532" y="484" type="line"/>
			<point x="500" y="503"/>
			<point x="461" y="513"/>
			<point name="n25" x="414" y="513" type="curve" smooth="yes"/>
			<point x="272" y="513"/>
			<point x="147" y="420"/>
			<point x="108" y="250" type="curve" smooth="yes"/>
			<point x="89" y="166"/>
			<point x="94" y="103"/>
			<point x="127" y="62" type="curve"/>
			<point x="21" y="-44" type="line"/>
			<point x="63" y="-81" type="line"/>
			<point x="165" y="22" type="line"/>
			<point x="199" y="-1"/>
			<point x="241" y="-13"/>
			<point name="n37" x="293" y="-13" type="curve" smooth="yes"/>
			<point x="434" y="-13"/>
			<point x="559" y="78"/>
			<point x="598" y="249" type="curve" smooth="yes"/>
			<point x="619" y="338"/>
			<point x="611" y="403"/>
			<point x="572" y="444" type="curve"/>
		</contour>
	</outline>
</glyph>
<glyph name="uacute" format="2">
	<unicode hex="00FA"/>
	<advance width="572"/>
	<outline>
		<contour>
			<point name="n00" x="292" y="48" type="line"/>
			<point x="226" y="48"/>
			<point x="184" y="103"/>
			<point x="199" y="169" type="curve" smooth="yes"/>
			<point name="n04" x="275" y="500" type="line"/>
			<point x="185" y="500" type="line"/>
			<point x="109" y="171" type="line" smooth="yes"/>
			<point x="80" y="46"/>
			<point x="130" y="-13"/>
			<point name="n09" x="258" y="-13" type="curve" smooth="yes"/>
			<point x="327" y="-13"/>
			<point x="384" y="13"/>
			<point x="429" y="64" type="curve"/>
			<point name="n13" x="414" y="0" type="line"/>
			<point x="504" y="0" type="line"/>
			<point x="619" y="500" type="line"/>
			<point x="529" y="500" type="line"/>
			<point x="455" y="178" type="line" smooth="yes"/>
			<point x="438" y="103"/>
			<point name="hr02" x="367" y="48"/>
			<point x="293" y="48" type="curve"/>
		</contour>
		<contour>
			<point x="605" y="771" type="line"/>
			<point x="504" y="771" type="line"/>
			<point x="365" y="600" type="line"/>
			<point x="426" y="600" type="line"/>
		</contour>
	</outline>
</glyph>
<glyph name="ucircumflex" format="2">
	<unicode hex="00FB"/>
	<advance width="572"/>
	<outline>
		<contour>
			<point name="n00" x="292" y="48" type="line"/>
			<point x="226" y="48"/>
			<point x="184" y="103"/>
			<point x="199" y="169" type="curve" smooth="yes"/>
			<point name="n04" x="275" y="500" type="line"/>
			<point x="185" y="500" type="line"/>
			<point x="109" y="171" type="line" smooth="yes"/>
			<point x="80" y="46"/>
			<point x="130" y="-13"/>
			<point name="n09" x="258" y="-13" type="curve" smooth="yes"/>
			<point x="327" y="-13"/>
			<point x="384" y="13"/>
			<point x="429" y="64" type="curve"/>
			<point x="405" y="-39" type="line" smooth="yes"/>
			<point x="391" y="-98"/>
			<point x="366" y="-126"/>
			<point x="312" y="-126" type="curve" smooth="yes"/>
			<point name="n17" x="303" y="-126" type="line" smooth="yes"/>
			<point x="284" y="-126"/>
			<point x="269" y="-122"/>
			<point x="257" y="-114" type="curve"/>
			<point x="240" y="-188" type="line"/>
			<point x="258" y="-195"/>
			<point x="279" y="-198"/>
			<point name="n24" x="302" y="-198" type="curve" smooth="yes"/>
			<point x="308" y="-198" type="line" smooth="yes"/>
			<point x="415" y="-198"/>
			<point x="469" y="-154"/>
			<point x="495" y="-41" type="curve" smooth="yes"/>
			<point x="619" y="500" type="line"/>
			<point x="529" y="500" type="line"/>
			<point x="455" y="178" type="line" smooth="yes"/>
			<point x="438" y="103"/>
			<point x="367" y="48"/>
			<point x="293" y="48" type="curve"/>
		</contour>
		<contour>
			<point x="571" y="600" type="line"/>
			<point x="520" y="770" type="line"/>
			<point x="410" y="770" type="line"/>
			<point x="281" y="600" type="line"/>
			<point x="341" y="600" type="line"/>
			<point x="451" y="710" type="line"/>
			<point x="511" y="600" type="line"/>
		</contour>
	</outline>
</glyph>
<glyph name="thorn" format="2">
  <advance width="608"/>
  <unicode hex="00FE"/>
  <outline>
    <contour>
      <point x="626.333" y="344.667" type="curve"/>
      <point x="624.667" y="446.333"/>
      <point x="570.667" y="512.667"/>
      <point x="451" y="512.667" type="curve" smooth="yes"/>
      <point x="379" y="512.667"/>
      <point x="322.333" y="488.333"/>
      <point x="275.333" y="434.667" type="curve"/>
      <point x="341.667" y="722" type="line"/>
      <point x="236.667" y="722" type="line"/>
      <point x="23.6667" y="-200" type="line"/>
      <point x="128.667" y="-200" type="line"/>
      <point x="186" y="51.3333" type="line"/>
      <point x="218" y="5"/>
      <point x="268.333" y="-12.6667"/>
      <point x="326.667" y="-12.6667" type="curve" smooth="yes"/>
      <point x="519.667" y="-12.6667"/>
      <point x="626.333" y="170"/>
    </contour>
    <contour>
      <point x="414.667" y="439.333" type="curve" smooth="yes"/>
      <point x="485.333" y="439.333"/>
      <point x="514.667" y="390.667"/>
      <point x="514.667" y="320.667" type="curve" smooth="yes"/>
      <point x="514.667" y="214.667"/>
      <point x="446.667" y="58.3333"/>
      <point x="320.667" y="58.3333" type="curve" smooth="yes"/>
      <point x="249.333" y="58.3333"/>
      <point x="223" y="107.667"/>
      <point x="223" y="174.667" type="curve" smooth="yes"/>
      <point x="223" y="282.667"/>
      <point x="289.333" y="439.333"/>
    </contour>
  </outline>
</glyph>
<glyph name="ydieresis" format="2">
	<unicode hex="00FF"/>
	<advance width="534"/>
	<outline>
		<contour>
			<point x="195" y="-56" type="line" smooth="yes"/>
			<point x="178" y="-84"/>
			<point x="151" y="-132"/>
			<point x="113" y="-200" type="curve"/>
			<point x="206" y="-200" type="line"/>
			<point x="220" y="-172" type="line" smooth="yes"/>
			<point x="229" y="-153"/>
			<point x="241" y="-133"/>
			<point x="255" y="-111" type="curve" smooth="yes"/>
			<point name="n09" x="635" y="500" type="line"/>
			<point x="538" y="500" type="line"/>
			<point x="305" y="123" type="line"/>
			<point x="235" y="500" type="line"/>
			<point x="130" y="500" type="line"/>
			<point x="229" y="0" type="line"/>
		</contour>
		<contour>
			<point x="358" y="630" type="line"/>
			<point x="396" y="722" type="line"/>
			<point name="n17" x="290" y="722" type="line"/>
			<point name="n18" x="268" y="630" type="line"/>
		</contour>
		<contour>
			<point x="558" y="630" type="line"/>
			<point x="580" y="722" type="line"/>
			<point x="490" y="722" type="line"/>
			<point x="468" y="630" type="line"/>
		</contour>
	</outline>
</glyph>
<glyph name="abreve" format="2">
	<unicode hex="0103"/>
	<advance width="535"/>
	<outline>
		<contour>
			<point name="n00" x="424" y="637" type="curve" smooth="yes"/>
			<point x="387" y="637"/>
			<point x="349" y="661"/>
			<point name="n03" x="349" y="691" type="curve"/>
			<point name="n04" x="297" y="691" type="line"/>
			<point x="290" y="627"/>
			<point x="337" y="574"/>
			<point name="n07" x="410" y="574" type="curve" smooth="yes"/>
			<point x="484" y="574"/>
			<point x="554" y="628"/>
			<point x="578" y="691" type="curve"/>
			<point x="526" y="691" type="line"/>
			<point x="512" y="660"/>
			<point x="462" y="637"/>
		</contour>
		<contour>
			<point name="n14" x="382" y="447" type="curve" smooth="yes"/>
			<point x="451" y="447"/>
			<point x="486" y="412"/>
			<point x="472" y="350" type="curve"/>
			<point x="469" y="339"/>
			<point x="465" y="327"/>
			<point x="459" y="314" type="curve"/>
			<point x="445" y="314"/>
			<point x="405" y="316"/>
			<point name="n23" x="391" y="316" type="curve" smooth="yes"/>
			<point x="263" y="316"/>
			<point x="111" y="281"/>
			<point x="77" y="132" type="curve" smooth="yes"/>
			<point x="56" y="40"/>
			<point x="143" y="-13"/>
			<point name="n29" x="235" y="-13" type="curve" smooth="yes"/>
			<point x="313" y="-13"/>
			<point x="357" y="25"/>
			<point x="409" y="73" type="curve"/>
			<point x="406" y="62"/>
			<point x="405" y="38"/>
			<point name="n35" x="403" y="0" type="curve"/>
			<point name="n36" x="493" y="0" type="line"/>
			<point x="490" y="25"/>
			<point x="500" y="86"/>
			<point x="522" y="183" type="curve" smooth="yes"/>
			<point x="547" y="290" type="line" smooth="yes"/>
			<point x="565" y="366"/>
			<point x="571" y="412"/>
			<point x="568" y="429" type="curve" smooth="yes"/>
			<point x="558" y="486"/>
			<point x="501" y="514"/>
			<point name="n46" x="395" y="514" type="curve" smooth="yes"/>
			<point x="261" y="514"/>
			<point x="181" y="463"/>
			<point name="n49" x="159" y="366" type="curve"/>
			<point name="n50" x="252" y="366" type="line"/>
			<point x="265" y="424"/>
			<point x="325" y="447"/>
		</contour>
		<contour>
			<point x="174" y="144" type="curve" smooth="yes"/>
			<point x="194" y="229"/>
			<point x="312" y="249"/>
			<point name="n56" x="392" y="249" type="curve"/>
			<point x="393" y="249"/>
			<point x="410" y="248"/>
			<point x="443" y="246" type="curve"/>
			<point x="415" y="126"/>
			<point x="369" y="55"/>
			<point name="n62" x="253" y="55" type="curve" smooth="yes"/>
			<point name="hr02" x="199" y="55"/>
			<point x="162" y="91"/>
		</contour>
	</outline>
</glyph>
<glyph name="Aogonek" format="2">
	<unicode hex="0104"/>
	<advance width="750"/>
	<outline>
		<contour>
			<point name="n00" x="573" y="278" type="line"/>
			<point x="300" y="278" type="line"/>
			<point x="512" y="611" type="line"/>
		</contour>
		<contour>
			<point name="n03" x="621" y="-213" type="curve" smooth="yes"/>
			<point x="633" y="-213"/>
			<point x="657" y="-212"/>
			<point x="693" y="-209" type="curve"/>
			<point x="709" y="-139" type="line"/>
			<point name="n08" x="668" y="-143" type="line"/>
			<point x="635" y="-143"/>
			<point x="622" y="-132"/>
			<point x="627" y="-109" type="curve" smooth="yes"/>
			<point x="637" y="-65"/>
			<point x="678" y="-15"/>
			<point name="n14" x="695" y="0" type="curve"/>
			<point x="735" y="0" type="line"/>
			<point name="n16" x="595" y="722" type="line"/>
			<point x="485" y="722" type="line"/>
			<point x="15" y="0" type="line"/>
			<point x="118" y="0" type="line"/>
			<point x="242" y="193" type="line"/>
			<point name="n21" x="596" y="193" type="line"/>
			<point x="629" y="0" type="line"/>
			<point x="655" y="0" type="line"/>
			<point x="640" y="-12" type="line"/>
			<point x="611" y="-32"/>
			<point x="562" y="-85"/>
			<point x="552" y="-128" type="curve" smooth="yes"/>
			<point x="539" y="-183"/>
			<point x="566" y="-213"/>
		</contour>
	</outline>
</glyph>
<glyph name="Cacute" format="2">
	<unicode hex="0106"/>
	<advance width="660"/>
	<outline>
		<contour>
			<point x="626" y="529" type="curve"/>
			<point x="727" y="529" type="line"/>
			<point x="759" y="668"/>
			<point x="669" y="736"/>
			<point name="n04" x="518" y="736" type="curve" smooth="yes"/>
			<point x="301" y="736"/>
			<point x="181" y="572"/>
			<point x="131" y="357" type="curve" smooth="yes"/>
			<point x="82" y="143"/>
			<point x="128" y="-14"/>
			<point name="n10" x="343" y="-14" type="curve" smooth="yes"/>
			<point x="487" y="-14"/>
			<point x="623" y="58"/>
			<point x="654" y="193" type="curve"/>
			<point x="553" y="193" type="line"/>
			<point x="534" y="109"/>
			<point x="468" y="67"/>
			<point name="n17" x="360" y="67" type="curve" smooth="yes"/>
			<point x="207" y="67"/>
			<point x="193" y="183"/>
			<point x="233" y="356" type="curve" smooth="yes"/>
			<point x="279" y="557"/>
			<point x="369" y="657"/>
			<point name="n23" x="501" y="657" type="curve" smooth="yes"/>
			<point x="601" y="657"/>
			<point x="648" y="623"/>
		</contour>
		<contour>
			<point x="742" y="967" type="line"/>
			<point x="641" y="967" type="line"/>
			<point x="502" y="796" type="line"/>
			<point x="563" y="796" type="line"/>
		</contour>
	</outline>
</glyph>
<glyph name="cacute" format="2">
	<unicode hex="0107"/>
	<advance width="501"/>
	<outline>
		<contour>
			<point name="n00" x="542" y="341" type="line"/>
			<point x="560" y="453"/>
			<point x="496" y="512"/>
			<point name="n03" x="385" y="512" type="curve" smooth="yes"/>
			<point x="236" y="512"/>
			<point x="131" y="399"/>
			<point x="95" y="244" type="curve" smooth="yes"/>
			<point x="57" y="79"/>
			<point x="117" y="-14"/>
			<point name="n09" x="261" y="-14" type="curve" smooth="yes"/>
			<point x="376" y="-14"/>
			<point x="475" y="58"/>
			<point name="n12" x="506" y="167" type="curve"/>
			<point name="n13" x="411" y="167" type="line"/>
			<point x="392" y="95"/>
			<point x="340" y="50"/>
			<point name="n16" x="275" y="50" type="curve" smooth="yes"/>
			<point x="189" y="50"/>
			<point x="161" y="118"/>
			<point x="193" y="255" type="curve" smooth="yes"/>
			<point x="213" y="342"/>
			<point x="261" y="447"/>
			<point name="n22" x="371" y="447" type="curve" smooth="yes"/>
			<point x="431" y="447"/>
			<point x="456" y="402"/>
			<point name="n25" x="447" y="341" type="curve"/>
		</contour>
		<contour>
			<point x="594" y="744" type="line"/>
			<point x="493" y="744" type="line"/>
			<point x="353" y="573" type="line"/>
			<point x="414" y="573" type="line"/>
		</contour>
	</outline>
</glyph>
<glyph name="cdotaccent" format="2">
	<unicode hex="010B"/>
	<advance width="501"/>
	<outline>
		<contour>
			<point name="n00" x="543" y="341" type="line"/>
			<point x="561" y="453"/>
			<point x="497" y="512"/>
			<point name="n03" x="386" y="512" type="curve" smooth="yes"/>
			<point x="237" y="512"/>
			<point x="132" y="399"/>
			<point x="96" y="244" type="curve" smooth="yes"/>
			<point x="58" y="79"/>
			<point x="118" y="-14"/>
			<point name="n09" x="262" y="-14" type="curve" smooth="yes"/>
			<point x="377" y="-14"/>
			<point x="476" y="58"/>
			<point name="n12" x="507" y="167" type="curve"/>
			<point name="n13" x="412" y="167" type="line"/>
			<point x="393" y="95"/>
			<point x="341" y="50"/>
			<point name="n16" x="276" y="50" type="curve" smooth="yes"/>
			<point x="190" y="50"/>
			<point x="162" y="118"/>
			<point x="194" y="255" type="curve" smooth="yes"/>
			<point x="214" y="342"/>
			<point x="262" y="447"/>
			<point name="n22" x="372" y="447" type="curve" smooth="yes"/>
			<point x="432" y="447"/>
			<point x="457" y="402"/>
			<point name="n25" x="448" y="341" type="curve"/>
		</contour>
		<contour>
			<point name="n26" x="429" y="573" type="line"/>
			<point name="n27" x="452" y="673" type="line"/>
			<point x="362" y="673" type="line"/>
			<point x="339" y="573" type="line"/>
		</contour>
	</outline>
</glyph>
<glyph name="Dcaron" format="2">
	<unicode hex="010E"/>
	<advance width="690"/>
	<outline>
		<contour>
			<point name="n00" x="307" y="87" type="curve" smooth="yes"/>
			<point x="181" y="87" type="line"/>
			<point x="308" y="635" type="line"/>
			<point name="n03" x="434" y="635" type="line" smooth="yes"/>
			<point x="598" y="635"/>
			<point x="664" y="530"/>
			<point x="625" y="362" type="curve" smooth="yes"/>
			<point x="587" y="196"/>
			<point x="470" y="87"/>
		</contour>
		<contour>
			<point x="724" y="362" type="curve" smooth="yes"/>
			<point x="777" y="593"/>
			<point x="686" y="722"/>
			<point name="n12" x="452" y="722" type="curve" smooth="yes"/>
			<point x="227" y="722" type="line"/>
			<point x="60" y="0" type="line"/>
			<point name="n15" x="285" y="0" type="line" smooth="yes"/>
			<point x="514" y="0"/>
			<point x="671" y="134"/>
		</contour>
		<contour>
			<point x="718" y="966" type="line"/>
			<point x="658" y="966" type="line"/>
			<point x="548" y="856" type="line"/>
			<point x="488" y="966" type="line"/>
			<point x="428" y="966" type="line"/>
			<point x="479" y="796" type="line"/>
			<point x="589" y="796" type="line"/>
		</contour>
	</outline>
</glyph>
<glyph name="dcroat" format="2">
  <advance width="585"/>
  <unicode hex="0111"/>
  <outline>
    <component base="d"/>
    <contour>
      <point x="429.333" y="569.667" type="line"/>
      <point x="731.333" y="569.667" type="line"/>
      <point x="748.667" y="645.333" type="line"/>
      <point x="446.667" y="645.333" type="line"/>
    </contour>
  </outline>
</glyph>
<glyph name="Emacron" format="2">
	<unicode hex="0112"/>
	<advance width="577"/>
	<outline>
		<contour>
			<point name="n00" x="516" y="0" type="line"/>
			<point name="n01" x="536" y="87" type="line"/>
			<point x="180" y="87" type="line"/>
			<point name="n03" x="235" y="326" type="line"/>
			<point x="571" y="326" type="line"/>
			<point x="591" y="413" type="line"/>
			<point name="n06" x="255" y="413" type="line"/>
			<point x="307" y="635" type="line"/>
			<point name="n08" x="653" y="635" type="line"/>
			<point name="n09" x="673" y="722" type="line"/>
			<point x="226" y="722" type="line"/>
			<point x="59" y="0" type="line"/>
		</contour>
		<contour>
			<point name="n12" x="598" y="796" type="line"/>
			<point name="n13" x="614" y="865" type="line"/>
			<point x="352" y="865" type="line"/>
			<point x="336" y="796" type="line"/>
		</contour>
	</outline>
</glyph>
<glyph name="Hcircumflex" format="2">
	<unicode hex="0124"/>
	<advance width="669"/>
	<outline>
		<contour>
			<point name="n00" x="608" y="0" type="line"/>
			<point name="n01" x="775" y="722" type="line"/>
			<point x="674" y="722" type="line"/>
			<point x="602" y="413" type="line"/>
			<point name="n04" x="255" y="413" type="line"/>
			<point x="327" y="722" type="line"/>
			<point x="226" y="722" type="line"/>
			<point x="59" y="0" type="line"/>
			<point x="160" y="0" type="line"/>
			<point name="n09" x="235" y="326" type="line"/>
			<point x="582" y="326" type="line"/>
			<point x="507" y="0" type="line"/>
		</contour>
		<contour>
			<point x="663" y="796" type="line"/>
			<point x="612" y="966" type="line"/>
			<point x="502" y="966" type="line"/>
			<point x="373" y="796" type="line"/>
			<point x="433" y="796" type="line"/>
			<point x="543" y="906" type="line"/>
			<point x="603" y="796" type="line"/>
		</contour>
	</outline>
</glyph>
<glyph name="Hbar" format="2">
  <advance width="669"/>
  <unicode hex="0126"/>
  <outline>
    <component base="H" xOffset="-6.66667"/>
    <contour>
      <point x="134" y="517" type="line"/>
      <point x="792.333" y="517" type="line"/>
      <point x="809.333" y="591" type="line"/>
      <point x="151" y="591" type="line"/>
    </contour>
  </outline>
</glyph>
<glyph name="hbar" format="2">
  <advance width="583"/>
  <unicode hex="0127"/>
  <outline>
    <component base="h"/>
    <contour>
      <point x="96.9869" y="563.667" type="line"/>
      <point x="470.306" y="563.667" type="line"/>
      <point x="479.946" y="637.667" type="line"/>
      <point x="106.627" y="637.667" type="line"/>
    </contour>
  </outline>
</glyph>
<glyph name="Imacron" format="2">
	<unicode hex="012A"/>
	<advance width="270"/>
	<outline>
		<contour>
			<point name="n00" x="283" y="265" type="line"/>
			<point name="n01" x="400.333" y="772.667" type="line"/>
			<point x="226.333" y="772.667" type="line"/>
			<point x="109" y="265" type="line"/>
		</contour>
		<contour>
			<point name="n04" x="370" y="530.667" type="line"/>
			<point name="n05" x="436.333" y="817.333" type="line"/>
			<point x="211.667" y="817.333" type="line"/>
			<point x="145.333" y="530.667" type="line"/>
		</contour>
	</outline>
</glyph>
<glyph name="ibreve" format="2">
	<unicode hex="012D"/>
	<advance width="229"/>
	<outline>
		<contour>
			<point name="n00" x="157" y="0" type="line"/>
			<point name="n01" x="272" y="500" type="line"/>
			<point x="182" y="500" type="line"/>
			<point x="67" y="0" type="line"/>
		</contour>
		<contour>
			<point name="n04" x="260" y="636" type="curve" smooth="yes"/>
			<point x="223" y="636"/>
			<point x="184" y="660"/>
			<point name="n07" x="184" y="690" type="curve"/>
			<point name="n08" x="132" y="690" type="line"/>
			<point x="125" y="626"/>
			<point x="172" y="573"/>
			<point name="n11" x="245" y="573" type="curve" smooth="yes"/>
			<point x="319" y="573"/>
			<point x="389" y="627"/>
			<point x="413" y="690" type="curve"/>
			<point x="361" y="690" type="line"/>
			<point x="347" y="659"/>
			<point x="298" y="636"/>
		</contour>
	</outline>
</glyph>
<glyph name="Iogonek" format="2">
	<unicode hex="012E"/>
	<advance width="261"/>
	<outline>
		<contour>
			<point name="n00" x="69" y="-213" type="curve" smooth="yes"/>
			<point x="81" y="-213"/>
			<point x="105" y="-212"/>
			<point x="141" y="-209" type="curve"/>
			<point x="157" y="-139" type="line"/>
			<point name="n05" x="116" y="-143" type="line"/>
			<point x="83" y="-143"/>
			<point x="70" y="-132"/>
			<point x="75" y="-109" type="curve" smooth="yes"/>
			<point x="85" y="-65"/>
			<point x="126" y="-15"/>
			<point x="143" y="0" type="curve"/>
			<point x="180" y="0" type="line"/>
			<point name="n13" x="347" y="722" type="line"/>
			<point x="246" y="722" type="line"/>
			<point x="79" y="0" type="line"/>
			<point x="103" y="0" type="line"/>
			<point x="88" y="-12" type="line"/>
			<point x="59" y="-32"/>
			<point x="10" y="-85"/>
			<point x="0" y="-128" type="curve" smooth="yes"/>
			<point x="-13" y="-183"/>
			<point x="14" y="-213"/>
		</contour>
	</outline>
</glyph>
<glyph name="Idotaccent" format="2">
	<unicode hex="0130"/>
	<advance width="270"/>
	<outline>
		<contour>
			<point name="n00" x="249.667" y="265" type="line"/>
			<point name="n01" x="371" y="789.667" type="line"/>
			<point x="263.667" y="789.667" type="line"/>
			<point name="n03" x="142.333" y="265" type="line"/>
		</contour>
		<contour>
			<point name="n04" x="312.667" y="530.667" type="line"/>
			<point name="n05" x="383.667" y="838" type="line"/>
			<point x="273.667" y="838" type="line"/>
			<point x="202.667" y="530.667" type="line"/>
		</contour>
	</outline>
</glyph>
<glyph name="dotlessi" format="2">
	<unicode hex="0131"/>
	<advance width="241"/>
	<outline>
		<contour>
			<point name="n00" x="173.333" y="0" type="line"/>
			<point name="n01" x="288.333" y="500" type="line"/>
			<point x="183.333" y="500" type="line"/>
			<point name="n03" x="68.3333" y="0" type="line"/>
		</contour>
	</outline>
</glyph>
<glyph name="jcircumflex" format="2">
	<unicode hex="0135"/>
	<advance width="235"/>
	<outline>
		<contour>
			<point x="23" y="-140" type="line"/>
			<point x="12" y="-140"/>
			<point x="-4" y="-140"/>
			<point name="n03" x="-23" y="-141" type="curve"/>
			<point x="-37" y="-205" type="line"/>
			<point name="n05" x="-26" y="-205" type="line" smooth="yes"/>
			<point x="-18" y="-205"/>
			<point x="-11" y="-205"/>
			<point x="-2" y="-206" type="curve"/>
			<point x="7" y="-206" type="line" smooth="yes"/>
			<point x="77" y="-206"/>
			<point x="138" y="-167"/>
			<point x="158" y="-80" type="curve" smooth="yes"/>
			<point name="n13" x="291" y="500" type="line"/>
			<point x="201" y="500" type="line"/>
			<point x="74" y="-50" type="line" smooth="yes"/>
			<point x="63" y="-97"/>
			<point x="54" y="-140"/>
			<point x="22" y="-140" type="curve"/>
		</contour>
		<contour>
			<point x="423" y="632" type="line"/>
			<point x="372" y="802" type="line"/>
			<point x="262" y="802" type="line"/>
			<point x="133" y="632" type="line"/>
			<point x="193" y="632" type="line"/>
			<point x="303" y="742" type="line"/>
			<point x="363" y="632" type="line"/>
		</contour>
	</outline>
</glyph>
<glyph name="kcedilla" format="2">
	<unicode hex="0137"/>
	<advance width="479"/>
	<outline>
		<contour>
			<point name="n00" x="458" y="0" type="line"/>
			<point x="307" y="282" type="line"/>
			<point name="n02" x="557" y="500" type="line"/>
			<point x="444" y="500" type="line"/>
			<point x="206" y="292" type="line"/>
			<point name="n05" x="306" y="722" type="line"/>
			<point x="216" y="722" type="line"/>
			<point x="49" y="0" type="line"/>
			<point x="139" y="0" type="line"/>
			<point x="201" y="267" type="line"/>
			<point x="339" y="0" type="line"/>
		</contour>
		<contour>
			<point x="330" y="-60" type="line"/>
			<point x="210" y="-60" type="line"/>
			<point x="92" y="-310" type="line"/>
			<point x="162" y="-310" type="line"/>
		</contour>
	</outline>
</glyph>
<glyph name="kgreenlandic" format="2">
  <advance width="479"/>
  <unicode hex="0138"/>
  <anchor x="238.667" y="-60" name="bottom"/>
  <anchor x="278.333" y="800" name="top"/>
  <outline>
    <contour>
      <point x="484.333" y="0" type="line"/>
      <point x="340.333" y="282.667" type="line"/>
      <point x="583.333" y="500" type="line"/>
      <point x="454" y="500" type="line"/>
      <point x="227.667" y="295" type="line"/>
      <point x="275" y="500" type="line"/>
      <point x="160" y="462.667" type="line"/>
      <point x="55" y="0" type="line"/>
      <point x="160" y="0" type="line"/>
      <point x="221.333" y="265" type="line"/>
      <point x="350.333" y="0" type="line"/>
    </contour>
  </outline>
</glyph>
<glyph name="lacute" format="2">
	<unicode hex="013A"/>
	<advance width="241"/>
	<outline>
		<contour>
			<point name="n00" x="286" y="320.667" type="line"/>
			<point name="n01" x="354" y="802" type="line"/>
			<point x="250" y="742" type="line"/>
			<point x="162" y="260.667" type="line"/>
		</contour>
		<contour>
			<point x="403.333" y="635.333" type="line"/>
			<point x="391.667" y="876" type="line"/>
			<point x="254" y="762" type="line"/>
			<point x="239" y="521.333" type="line"/>
		</contour>
	</outline>
</glyph>
<glyph name="lcaron" format="2">
	<unicode hex="013E"/>
	<advance width="349"/>
	<outline>
		<contour>
			<point name="n00" x="385" y="481.333" type="line"/>
			<point name="n01" x="446.333" y="962.667" type="line"/>
			<point x="372.667" y="866" type="line"/>
			<point x="294" y="384.667" type="line"/>
		</contour>
		<contour>
			<point x="434.667" y="481.333" type="line"/>
			<point x="410.333" y="722" type="line"/>
			<point x="286.667" y="555.333" type="line"/>
			<point x="277.667" y="314.667" type="line"/>
		</contour>
	</outline>
</glyph>
<glyph name="Lslash" format="2">
	<unicode hex="0141"/>
	<advance width="609"/>
	<outline>
		<contour>
			<point name="n00" x="571.333" y="0" type="line"/>
			<point name="n01" x="593.667" y="96.3333" type="line"/>
			<point x="272.333" y="96.3333" type="line"/>
			<point x="342.333" y="399.333" type="line"/>
			<point x="475" y="506" type="line"/>
			<point x="497" y="601.333" type="line"/>
			<point x="364.333" y="494" type="line"/>
			<point name="n07" x="417" y="722" type="line"/>
			<point x="299.667" y="722" type="line"/>
			<point x="220.333" y="378.667" type="line"/>
			<point x="93.6667" y="277" type="line"/>
			<point x="72.3333" y="183.667" type="line"/>
			<point x="198.333" y="284.667" type="line"/>
			<point x="132.667" y="0" type="line"/>
		</contour>
	</outline>
</glyph>
<glyph name="lslash" format="2">
  <advance width="348"/>
  <unicode hex="0142"/>
  <outline>
    <contour>
      <point x="429.333" y="477" type="line"/>
      <point x="451" y="572.333" type="line"/>
      <point x="338" y="481.333" type="line"/>
      <point x="394" y="722" type="line"/>
      <point x="289" y="722" type="line"/>
      <point x="212.333" y="391" type="line"/>
      <point x="99.3333" y="300" type="line"/>
      <point x="78.3333" y="207.667" type="line"/>
      <point x="190.333" y="297.667" type="line"/>
      <point x="122" y="0" type="line"/>
      <point x="227" y="0" type="line"/>
      <point x="316.667" y="387" type="line"/>
    </contour>
  </outline>
</glyph>
<glyph name="napostrophe" format="2">
	<unicode hex="0149"/>
	<advance width="680"/>
	<outline>
		<contour>
			<point name="n00" x="292" y="722" type="line"/>
			<point x="186" y="722" type="line"/>
			<point x="142" y="434" type="line"/>
			<point x="202" y="434" type="line"/>
		</contour>
		<contour>
			<point name="n04" x="523" y="453" type="line"/>
			<point x="590" y="453"/>
			<point x="632" y="398"/>
			<point x="617" y="331" type="curve" smooth="yes"/>
			<point name="n08" x="541" y="0" type="line"/>
			<point x="630" y="0" type="line"/>
			<point x="706" y="329" type="line" smooth="yes"/>
			<point x="734" y="452"/>
			<point x="684" y="513"/>
			<point name="n13" x="556" y="513" type="curve" smooth="yes"/>
			<point x="456" y="513"/>
			<point x="432" y="473"/>
			<point x="386" y="436" type="curve"/>
			<point name="n17" x="400" y="500" type="line"/>
			<point x="310" y="500" type="line"/>
			<point x="195" y="0" type="line"/>
			<point x="285" y="0" type="line"/>
			<point x="360" y="323" type="line" smooth="yes"/>
			<point x="377" y="398"/>
			<point name="hr02" x="448" y="453"/>
			<point x="522" y="453" type="curve"/>
		</contour>
	</outline>
</glyph>
<glyph name="Eng" format="2">
	<unicode hex="014A"/>
	<advance width="683"/>
	<outline>
		<contour>
			<point name="n00" x="534" y="0" type="line"/>
			<point x="520" y="-62" type="line" smooth="yes"/>
			<point x="511" y="-101"/>
			<point x="479" y="-130"/>
			<point name="n04" x="442" y="-130" type="curve" smooth="yes"/>
			<point x="413" y="-130"/>
			<point x="391" y="-115"/>
			<point x="377" y="-86" type="curve"/>
			<point x="307" y="-143" type="line"/>
			<point x="333" y="-181"/>
			<point x="375" y="-200"/>
			<point name="n11" x="432" y="-200" type="curve" smooth="yes"/>
			<point x="518" y="-200"/>
			<point x="590" y="-146"/>
			<point x="609" y="-62" type="curve" smooth="yes"/>
			<point name="n15" x="790" y="722" type="line"/>
			<point x="689" y="722" type="line"/>
			<point x="552" y="130" type="line"/>
			<point x="370" y="722" type="line"/>
			<point x="227" y="722" type="line"/>
			<point x="60" y="0" type="line"/>
			<point x="161" y="0" type="line"/>
			<point x="298" y="592" type="line"/>
			<point x="479" y="0" type="line"/>
		</contour>
	</outline>
</glyph>
<glyph name="eng" format="2">
  <advance width="744"/>
  <unicode hex="014B"/>
  <outline>
    <component base="n" xOffset="0.333333"/>
    <contour>
      <point x="432.667" y="19.3333" type="line"/>
      <point x="415.667" y="-56" type="line" smooth="yes"/>
      <point x="407.333" y="-91.6667"/>
      <point x="381.667" y="-117.333"/>
      <point x="345.333" y="-117.333" type="curve" smooth="yes"/>
      <point x="322.333" y="-117.333"/>
      <point x="298.333" y="-106.667"/>
      <point x="284.333" y="-85" type="curve"/>
      <point x="216.667" y="-143.667" type="line"/>
      <point x="242.667" y="-181"/>
      <point x="284.667" y="-200"/>
      <point x="338.333" y="-200" type="curve" smooth="yes"/>
      <point x="427.667" y="-200"/>
      <point x="500.333" y="-146.667"/>
      <point x="518.667" y="-62.6667" type="curve" smooth="yes"/>
      <point x="537" y="19.3333" type="line"/>
    </contour>
  </outline>
</glyph>
<glyph name="obreve" format="2">
	<unicode hex="014F"/>
	<advance width="572"/>
	<outline>
		<contour>
			<point x="493" y="248" type="curve" smooth="yes"/>
			<point x="470" y="148"/>
			<point x="397" y="51"/>
			<point name="n03" x="296" y="51" type="curve" smooth="yes"/>
			<point x="195" y="51"/>
			<point x="166" y="148"/>
			<point x="189" y="248" type="curve" smooth="yes"/>
			<point x="212" y="349"/>
			<point x="286" y="447"/>
			<point name="n09" x="387" y="447" type="curve" smooth="yes"/>
			<point x="488" y="447"/>
			<point x="516" y="349"/>
		</contour>
		<contour>
			<point x="588" y="250" type="line"/>
			<point x="625" y="410"/>
			<point x="555" y="512"/>
			<point name="n15" x="402" y="512" type="curve" smooth="yes"/>
			<point x="249" y="512"/>
			<point x="132" y="408"/>
			<point x="95" y="249" type="curve" smooth="yes"/>
			<point x="58" y="90"/>
			<point x="128" y="-14"/>
			<point name="n21" x="281" y="-14" type="curve" smooth="yes"/>
			<point x="434" y="-14"/>
			<point x="550" y="88"/>
			<point x="587" y="248" type="curve"/>
		</contour>
		<contour>
			<point name="n25" x="431" y="636" type="curve" smooth="yes"/>
			<point x="394" y="636"/>
			<point x="355" y="660"/>
			<point name="n28" x="355" y="690" type="curve"/>
			<point name="n29" x="303" y="690" type="line"/>
			<point x="296" y="626"/>
			<point x="343" y="573"/>
			<point name="n32" x="416" y="573" type="curve" smooth="yes"/>
			<point x="490" y="573"/>
			<point x="560" y="627"/>
			<point x="584" y="690" type="curve"/>
			<point x="532" y="690" type="line"/>
			<point x="518" y="659"/>
			<point x="469" y="636"/>
		</contour>
	</outline>
</glyph>
<glyph name="OE" format="2">
	<unicode hex="0152"/>
	<advance width="1004"/>
	<outline>
		<contour>
			<point x="564" y="128" type="line"/>
			<point x="546" y="113" type="line"/>
			<point x="515" y="92"/>
			<point x="453" y="72"/>
			<point name="n04" x="403" y="72" type="curve" smooth="yes"/>
			<point x="253" y="72"/>
			<point x="209" y="199"/>
			<point x="246" y="359" type="curve" smooth="yes"/>
			<point x="277" y="495"/>
			<point x="367" y="647"/>
			<point name="n10" x="535" y="647" type="curve" smooth="yes"/>
			<point x="596" y="647"/>
			<point x="651" y="616"/>
			<point x="672" y="600" type="curve"/>
		</contour>
		<contour>
			<point name="n14" x="945" y="0" type="line"/>
			<point name="n15" x="965" y="87" type="line"/>
			<point x="655" y="87" type="line"/>
			<point name="n17" x="710" y="326" type="line"/>
			<point x="1000" y="326" type="line"/>
			<point x="1020" y="413" type="line"/>
			<point name="n20" x="730" y="413" type="line"/>
			<point x="782" y="635" type="line"/>
			<point name="n22" x="1092" y="635" type="line"/>
			<point name="n23" x="1112" y="722" type="line"/>
			<point x="661" y="722" type="line"/>
			<point x="626" y="731"/>
			<point name="hr02" x="591" y="736"/>
			<point name="n27" x="556" y="736" type="curve" smooth="yes"/>
			<point x="357" y="736"/>
			<point x="191" y="570"/>
			<point x="143" y="360" type="curve" smooth="yes"/>
			<point x="95" y="150"/>
			<point x="183" y="-16"/>
			<point name="n33" x="382" y="-16" type="curve" smooth="yes"/>
			<point x="409" y="-16"/>
			<point x="443" y="-11"/>
			<point x="481" y="-2" type="curve"/>
		</contour>
	</outline>
</glyph>
<glyph name="rcaron" format="2">
	<unicode hex="0159"/>
	<advance width="343"/>
	<outline>
		<contour>
			<point x="419" y="420" type="line"/>
			<point name="n01" x="437" y="500" type="line"/>
			<point x="317" y="500"/>
			<point x="279" y="481"/>
			<point x="240" y="432" type="curve"/>
			<point x="255" y="500" type="line"/>
			<point x="165" y="500" type="line"/>
			<point name="n07" x="50" y="0" type="line"/>
			<point x="140" y="0" type="line"/>
			<point x="205" y="280" type="line" smooth="yes"/>
			<point x="226" y="373"/>
			<point x="298" y="420"/>
			<point x="420" y="420" type="curve"/>
		</contour>
		<contour>
			<point x="503" y="743" type="line"/>
			<point x="443" y="743" type="line"/>
			<point x="332" y="633" type="line"/>
			<point x="273" y="743" type="line"/>
			<point x="213" y="743" type="line"/>
			<point x="263" y="573" type="line"/>
			<point x="373" y="573" type="line"/>
		</contour>
	</outline>
</glyph>
<glyph name="Sacute" format="2">
	<unicode hex="015A"/>
	<advance width="642"/>
	<outline>
		<contour>
			<point x="586" y="540" type="line"/>
			<point x="687" y="540" type="line"/>
			<point x="719" y="678"/>
			<point x="622" y="737"/>
			<point name="n04" x="474" y="737" type="curve" smooth="yes"/>
			<point x="381" y="737"/>
			<point x="214" y="680"/>
			<point x="181" y="538" type="curve" smooth="yes"/>
			<point x="112" y="237"/>
			<point x="586" y="418"/>
			<point x="534" y="193" type="curve" smooth="yes"/>
			<point x="510" y="90"/>
			<point x="403" y="73"/>
			<point name="n13" x="301" y="73" type="curve" smooth="yes"/>
			<point x="223" y="73"/>
			<point x="181" y="136"/>
			<point x="199" y="214" type="curve"/>
			<point x="97" y="214" type="line"/>
			<point x="65" y="75"/>
			<point x="145" y="-15"/>
			<point name="n20" x="284" y="-15" type="curve" smooth="yes"/>
			<point x="429" y="-15"/>
			<point x="597" y="32"/>
			<point x="636" y="199" type="curve" smooth="yes"/>
			<point x="704" y="494"/>
			<point x="237" y="341"/>
			<point x="281" y="533" type="curve" smooth="yes"/>
			<point x="299" y="609"/>
			<point x="353" y="647"/>
			<point name="n29" x="446" y="647" type="curve" smooth="yes"/>
			<point x="537" y="647"/>
			<point x="604" y="630"/>
			<point x="583" y="538" type="curve"/>
		</contour>
		<contour>
			<point x="699" y="967" type="line"/>
			<point x="598" y="967" type="line"/>
			<point x="459" y="796" type="line"/>
			<point x="520" y="796" type="line"/>
		</contour>
		<contour>
			<point name="n37" x="708" y="1027" type="line"/>
			<point name="n38" x="731" y="1127" type="line"/>
			<point x="641" y="1127" type="line"/>
			<point x="618" y="1027" type="line"/>
		</contour>
	</outline>
</glyph>
<glyph name="Tbar" format="2">
  <advance width="622"/>
  <unicode hex="0166"/>
  <outline>
    <component base="T"/>
    <contour>
      <point x="223.333" y="369.667" type="line"/>
      <point x="206.333" y="295.667" type="line"/>
      <point x="552.667" y="295.667" type="line"/>
      <point x="570" y="369.667" type="line"/>
    </contour>
  </outline>
</glyph>
<glyph name="uogonek" format="2">
	<unicode hex="0173"/>
	<advance width="533"/>
	<outline>
		<contour>
			<point name="n00" x="272" y="48" type="line"/>
			<point x="206" y="48"/>
			<point x="164" y="103"/>
			<point x="179" y="169" type="curve" smooth="yes"/>
			<point name="n04" x="255" y="500" type="line"/>
			<point x="165" y="500" type="line"/>
			<point x="89" y="171" type="line" smooth="yes"/>
			<point x="60" y="46"/>
			<point x="110" y="-13"/>
			<point name="n09" x="238" y="-13" type="curve" smooth="yes"/>
			<point x="307" y="-13"/>
			<point x="364" y="13"/>
			<point x="409" y="64" type="curve"/>
			<point name="n13" x="394" y="0" type="line"/>
			<point x="484" y="0" type="line"/>
			<point x="599" y="500" type="line"/>
			<point x="509" y="500" type="line"/>
			<point x="435" y="178" type="line" smooth="yes"/>
			<point x="418" y="103"/>
			<point name="hr02" x="347" y="48"/>
			<point x="273" y="48" type="curve"/>
		</contour>
		<contour>
			<point name="n21" x="390" y="-198" type="curve" smooth="yes"/>
			<point x="402" y="-198"/>
			<point x="426" y="-197"/>
			<point x="462" y="-194" type="curve"/>
			<point x="478" y="-124" type="line"/>
			<point name="n26" x="437" y="-128" type="line"/>
			<point x="404" y="-128"/>
			<point x="391" y="-117"/>
			<point x="396" y="-94" type="curve" smooth="yes"/>
			<point x="408" y="-44"/>
			<point x="451" y="4"/>
			<point x="473" y="22" type="curve"/>
			<point x="433" y="22" type="line"/>
			<point x="410" y="3" type="line"/>
			<point x="381" y="-17"/>
			<point x="332" y="-70"/>
			<point x="322" y="-113" type="curve" smooth="yes"/>
			<point x="309" y="-168"/>
			<point x="335" y="-198"/>
		</contour>
	</outline>
</glyph>
<glyph name="Ycircumflex" format="2">
	<unicode hex="0176"/>
	<advance width="666"/>
	<outline>
		<contour>
			<point name="n00" x="818" y="722" type="line"/>
			<point x="704" y="722" type="line"/>
			<point x="426" y="375" type="line"/>
			<point x="305" y="722" type="line"/>
			<point x="182" y="722" type="line"/>
			<point x="348" y="287" type="line"/>
			<point name="n06" x="282" y="0" type="line"/>
			<point x="383" y="0" type="line"/>
			<point x="449" y="287" type="line"/>
		</contour>
		<contour>
			<point x="662" y="796" type="line"/>
			<point x="606" y="966" type="line"/>
			<point x="501" y="966" type="line"/>
			<point x="372" y="796" type="line"/>
			<point x="432" y="796" type="line"/>
			<point x="542" y="906" type="line"/>
			<point x="602" y="796" type="line"/>
		</contour>
	</outline>
</glyph>
<glyph name="Zacute" format="2">
	<unicode hex="0179"/>
	<advance width="626"/>
	<outline>
		<contour>
			<point name="n00" x="575" y="0" type="line"/>
			<point name="n01" x="595" y="87" type="line"/>
			<point x="179" y="87" type="line"/>
			<point x="706" y="612" type="line"/>
			<point x="732" y="722" type="line"/>
			<point name="n05" x="236" y="722" type="line"/>
			<point name="n06" x="216" y="635" type="line"/>
			<point x="602" y="635" type="line"/>
			<point x="74" y="110" type="line"/>
			<point x="49" y="0" type="line"/>
		</contour>
		<contour>
			<point x="711" y="967" type="line"/>
			<point x="610" y="967" type="line"/>
			<point x="471" y="796" type="line"/>
			<point x="532" y="796" type="line"/>
		</contour>
	</outline>
</glyph>
<glyph name="zacute" format="2">
	<unicode hex="017A"/>
	<advance width="448"/>
	<outline>
		<contour>
			<point name="n00" x="407" y="0" type="line"/>
			<point name="n01" x="423" y="70" type="line"/>
			<point x="155" y="70" type="line"/>
			<point x="503" y="417" type="line"/>
			<point x="522" y="500" type="line"/>
			<point name="n05" x="174" y="500" type="line"/>
			<point name="n06" x="158" y="430" type="line"/>
			<point x="404" y="430" type="line"/>
			<point x="58" y="83" type="line"/>
			<point x="39" y="0" type="line"/>
		</contour>
		<contour>
			<point x="576" y="744" type="line"/>
			<point x="475" y="744" type="line"/>
			<point x="335" y="573" type="line"/>
			<point x="396" y="573" type="line"/>
		</contour>
	</outline>
</glyph>
<glyph name="Zdotaccent" format="2">
	<unicode hex="017B"/>
	<advance width="626"/>
	<outline>
		<contour>
			<point name="n00" x="576" y="0" type="line"/>
			<point name="n01" x="596" y="87" type="line"/>
			<point x="180" y="87" type="line"/>
			<point x="707" y="612" type="line"/>
			<point x="733" y="722" type="line"/>
			<point name="n05" x="237" y="722" type="line"/>
			<point name="n06" x="217" y="635" type="line"/>
			<point x="603" y="635" type="line"/>
			<point x="75" y="110" type="line"/>
			<point x="50" y="0" type="line"/>
		</contour>
		<contour>
			<point name="n10" x="547" y="796" type="line"/>
			<point name="n11" x="570" y="896" type="line"/>
			<point x="480" y="896" type="line"/>
			<point x="457" y="796" type="line"/>
		</contour>
	</outline>
</glyph>
<glyph name="longs" format="2">
  <advance width="345"/>
  <unicode hex="017F"/>
  <outline>
    <contour>
      <point x="108.667" y="428.333" type="line"/>
      <point x="205.333" y="428.333" type="line"/>
      <point x="109" y="0" type="line"/>
      <point x="215.667" y="0" type="line"/>
      <point x="343.667" y="573" type="line" smooth="yes"/>
      <point x="356.667" y="629.333"/>
      <point x="379.667" y="655.667"/>
      <point x="433.333" y="655.667" type="curve" smooth="yes"/>
      <point x="452" y="655.667"/>
      <point x="470.667" y="652.333"/>
      <point x="487.667" y="643" type="curve"/>
      <point x="505.667" y="720.667" type="line"/>
      <point x="480.333" y="729.333"/>
      <point x="453" y="733.333"/>
      <point x="422.667" y="733.333" type="curve" smooth="yes"/>
      <point x="320" y="733.333"/>
      <point x="266" y="688.667"/>
      <point x="239.667" y="575.333" type="curve" smooth="yes"/>
      <point x="221.667" y="500" type="line"/>
      <point x="125" y="500" type="line"/>
    </contour>
  </outline>
</glyph>
<glyph name="florin" format="2">
	<unicode hex="0192"/>
	<advance width="503"/>
	<outline>
		<contour>
			<point x="690" y="722" type="line"/>
			<point x="672" y="729"/>
			<point x="651" y="732"/>
			<point x="629" y="732" type="curve" smooth="yes"/>
			<point name="n04" x="623" y="732" type="line" smooth="yes"/>
			<point x="474" y="732"/>
			<point x="433" y="645"/>
			<point x="359" y="500" type="curve"/>
			<point x="259" y="500" type="line"/>
			<point x="227" y="435" type="line"/>
			<point x="327" y="435" type="line"/>
			<point x="108" y="-3" type="line" smooth="yes"/>
			<point x="58" y="-103"/>
			<point x="20" y="-138"/>
			<point name="n14" x="-45" y="-138" type="curve" smooth="yes"/>
			<point x="-63" y="-138"/>
			<point x="-75" y="-133"/>
			<point x="-82" y="-124" type="curve"/>
			<point x="-119" y="-199" type="line"/>
			<point x="-105" y="-208"/>
			<point x="-88" y="-212"/>
			<point name="n21" x="-69" y="-212" type="curve" smooth="yes"/>
			<point x="54" y="-212"/>
			<point x="117" y="-163"/>
			<point x="197" y="-4" type="curve" smooth="yes"/>
			<point name="n25" x="416" y="434" type="line"/>
			<point x="536" y="434" type="line"/>
			<point x="568" y="499" type="line"/>
			<point name="n28" x="448" y="499" type="line"/>
			<point x="508" y="627"/>
			<point x="537" y="659"/>
			<point name="n31" x="599" y="659" type="curve" smooth="yes"/>
			<point x="622" y="659"/>
			<point x="639" y="655"/>
			<point x="650" y="647" type="curve"/>
		</contour>
	</outline>
</glyph>
<glyph name="uni019E" format="2">
  <advance width="610"/>
  <unicode hex="019E"/>
  <outline>
    <contour>
      <point x="86.3333" y="0" type="line"/>
      <point x="191.333" y="0" type="line"/>
      <point x="261.667" y="308.333" type="line" smooth="yes"/>
      <point x="278" y="381.667"/>
      <point x="340.333" y="445.667"/>
      <point x="415.667" y="445.667" type="curve" smooth="yes"/>
      <point x="471.333" y="445.667"/>
      <point x="504.667" y="410.667"/>
      <point x="504.667" y="358.333" type="curve" smooth="yes"/>
      <point x="504.667" y="346.667"/>
      <point x="503" y="334"/>
      <point x="500" y="320.333" type="curve" smooth="yes"/>
      <point x="386.333" y="-200" type="line"/>
      <point x="491.333" y="-200" type="line"/>
      <point x="608" y="332.333" type="line" smooth="yes"/>
      <point x="612.667" y="353.667"/>
      <point x="615" y="373"/>
      <point x="615" y="390" type="curve" smooth="yes"/>
      <point x="615" y="471"/>
      <point x="564.667" y="512.667"/>
      <point x="467.333" y="512.667" type="curve" smooth="yes"/>
      <point x="378" y="512.667"/>
      <point x="336" y="484"/>
      <point x="290.333" y="435" type="curve"/>
      <point x="304.667" y="500" type="line"/>
      <point x="199.333" y="500" type="line"/>
    </contour>
  </outline>
</glyph>
<glyph name="Cdotaccent.001" format="2">
	<unicode hex="01A8"/>
	<advance width="683"/>
	<outline>
		<contour>
			<point name="n00" x="622" y="0" type="line"/>
			<point name="n01" x="789" y="722" type="line"/>
			<point x="688" y="722" type="line"/>
			<point x="551" y="130" type="line"/>
			<point x="369" y="722" type="line"/>
			<point x="226" y="722" type="line"/>
			<point x="59" y="0" type="line"/>
			<point x="160" y="0" type="line"/>
			<point x="297" y="592" type="line"/>
			<point x="478" y="0" type="line"/>
		</contour>
		<contour>
			<point x="433" y="-230" type="line"/>
			<point x="382" y="-60" type="line"/>
			<point x="272" y="-60" type="line"/>
			<point x="143" y="-230" type="line"/>
			<point x="203" y="-230" type="line"/>
			<point x="313" y="-120" type="line"/>
			<point x="373" y="-230" type="line"/>
		</contour>
	</outline>
</glyph>
<glyph name="uni01C0" format="2">
	<unicode hex="01C0"/>
	<advance width="344"/>
	<outline>
		<contour>
			<point x="141.333" y="-258" type="line"/>
			<point name="n01" x="385.333" y="796" type="line"/>
			<point x="327.667" y="796" type="line"/>
			<point name="n03" x="83.6667" y="-258" type="line"/>
		</contour>
	</outline>
</glyph>
<glyph name="uni01C1" format="2">
  <advance width="688"/>
  <unicode hex="01C1"/>
  <outline>
    <contour>
      <point x="141.333" y="-258" type="line"/>
      <point x="385.333" y="796" type="line"/>
      <point x="327.667" y="796" type="line"/>
      <point x="83.6667" y="-258" type="line"/>
    </contour>
    <contour>
      <point x="485.333" y="-258" type="line"/>
      <point x="729.333" y="796" type="line"/>
      <point x="671.667" y="796" type="line"/>
      <point x="427.667" y="-258" type="line"/>
    </contour>
  </outline>
</glyph>
<glyph name="uni01C3" format="2">
	<unicode hex="01C3"/>
	<advance width="369"/>
	<outline>
		<contour>
			<point name="n00" x="231" y="0" type="line"/>
			<point name="n01" x="253" y="95" type="line"/>
			<point x="153" y="95" type="line"/>
			<point name="n03" x="131" y="0" type="line"/>
		</contour>
		<contour>
			<point name="n04" x="381" y="722" type="line"/>
			<point x="298" y="722" type="line"/>
			<point x="170" y="169" type="line"/>
			<point x="253" y="169" type="line"/>
		</contour>
	</outline>
</glyph>
<glyph name="uni01C4" format="2">
	<unicode hex="01C4"/>
	<advance width="1305"/>
	<outline>
		<contour>
			<point x="307" y="87" type="curve" smooth="yes"/>
			<point x="181" y="87" type="line"/>
			<point x="308" y="635" type="line"/>
			<point name="n03" x="434" y="635" type="line" smooth="yes"/>
			<point x="598" y="635"/>
			<point x="664" y="530"/>
			<point x="625" y="362" type="curve" smooth="yes"/>
			<point x="587" y="196"/>
			<point x="470" y="87"/>
		</contour>
		<contour>
			<point x="724" y="362" type="curve" smooth="yes"/>
			<point x="777" y="593"/>
			<point x="686" y="722"/>
			<point name="n12" x="452" y="722" type="curve" smooth="yes"/>
			<point x="227" y="722" type="line"/>
			<point x="60" y="0" type="line"/>
			<point x="285" y="0" type="line" smooth="yes"/>
			<point x="514" y="0"/>
			<point x="671" y="134"/>
		</contour>
		<contour>
			<point name="n18" x="1261" y="0" type="line"/>
			<point name="n19" x="1281" y="87" type="line"/>
			<point x="865" y="87" type="line"/>
			<point x="1392" y="612" type="line"/>
			<point x="1418" y="722" type="line"/>
			<point x="922" y="722" type="line"/>
			<point x="902" y="635" type="line"/>
			<point x="1288" y="635" type="line"/>
			<point x="760" y="110" type="line"/>
			<point x="735" y="0" type="line"/>
		</contour>
		<contour>
			<point x="1362" y="992" type="line"/>
			<point x="1302" y="992" type="line"/>
			<point x="1192" y="882" type="line"/>
			<point x="1132" y="992" type="line"/>
			<point x="1072" y="992" type="line"/>
			<point x="1123" y="822" type="line"/>
			<point x="1233" y="822" type="line"/>
		</contour>
	</outline>
</glyph>
<glyph name="uni01C9" format="2">
	<unicode hex="01C9"/>
	<advance width="465"/>
	<outline>
		<contour>
			<point name="n00" x="159" y="0" type="line"/>
			<point x="326" y="722" type="line"/>
			<point x="236" y="722" type="line"/>
			<point x="69" y="0" type="line"/>
		</contour>
		<contour>
			<point x="253" y="-140" type="line"/>
			<point x="242" y="-140"/>
			<point x="226" y="-140"/>
			<point name="n07" x="207" y="-141" type="curve"/>
			<point x="193" y="-205" type="line"/>
			<point name="n09" x="204" y="-205" type="line" smooth="yes"/>
			<point x="212" y="-205"/>
			<point x="219" y="-205"/>
			<point x="228" y="-206" type="curve"/>
			<point x="237" y="-206" type="line" smooth="yes"/>
			<point x="307" y="-206"/>
			<point x="368" y="-167"/>
			<point x="388" y="-80" type="curve" smooth="yes"/>
			<point name="n17" x="521" y="500" type="line"/>
			<point x="431" y="500" type="line"/>
			<point x="304" y="-50" type="line" smooth="yes"/>
			<point x="293" y="-97"/>
			<point x="284" y="-140"/>
			<point x="252" y="-140" type="curve"/>
		</contour>
		<contour>
			<point name="n23" x="560" y="630" type="line"/>
			<point name="n24" x="582" y="722" type="line"/>
			<point x="476" y="722" type="line"/>
			<point x="454" y="630" type="line"/>
		</contour>
	</outline>
</glyph>
<glyph name="uni01CB" format="2">
	<unicode hex="01CB"/>
	<advance width="918"/>
	<outline>
		<contour>
			<point name="n00" x="622" y="0" type="line"/>
			<point x="789" y="722" type="line"/>
			<point x="688" y="722" type="line"/>
			<point x="551" y="130" type="line"/>
			<point x="369" y="722" type="line"/>
			<point x="226" y="722" type="line"/>
			<point x="59" y="0" type="line"/>
			<point x="160" y="0" type="line"/>
			<point x="297" y="592" type="line"/>
			<point x="478" y="0" type="line"/>
		</contour>
		<contour>
			<point x="707" y="-134" type="line"/>
			<point x="696" y="-134"/>
			<point x="681" y="-134"/>
			<point name="n13" x="662" y="-135" type="curve"/>
			<point x="647" y="-199" type="line"/>
			<point name="n15" x="658" y="-199" type="line" smooth="yes"/>
			<point x="666" y="-199"/>
			<point x="674" y="-199"/>
			<point x="683" y="-200" type="curve"/>
			<point x="692" y="-200" type="line" smooth="yes"/>
			<point x="762" y="-200"/>
			<point x="822" y="-161"/>
			<point x="842" y="-74" type="curve" smooth="yes"/>
			<point name="n23" x="974" y="500" type="line"/>
			<point x="884" y="500" type="line"/>
			<point x="759" y="-44" type="line" smooth="yes"/>
			<point x="748" y="-91"/>
			<point x="738" y="-134"/>
			<point x="706" y="-134" type="curve"/>
		</contour>
		<contour>
			<point name="n29" x="1013" y="630" type="line"/>
			<point name="n30" x="1035" y="722" type="line"/>
			<point x="929" y="722" type="line"/>
			<point x="907" y="630" type="line"/>
		</contour>
	</outline>
</glyph>
<glyph name="uni01DF" format="2">
	<unicode hex="01DF"/>
	<advance width="551"/>
	<outline>
		<contour>
			<point x="179" y="142" type="curve" smooth="yes"/>
			<point x="199" y="227"/>
			<point x="289" y="249"/>
			<point name="n03" x="372" y="249" type="curve"/>
			<point x="373" y="249"/>
			<point x="396" y="248"/>
			<point x="440" y="246" type="curve"/>
			<point x="412" y="125"/>
			<point x="355" y="51"/>
			<point name="n09" x="246" y="51" type="curve" smooth="yes"/>
			<point x="198" y="51"/>
			<point x="166" y="87"/>
		</contour>
		<contour>
			<point x="382" y="447" type="line"/>
			<point x="440" y="447"/>
			<point x="486" y="428"/>
			<point x="471" y="365" type="curve" smooth="yes"/>
			<point x="459" y="310" type="line"/>
			<point x="433" y="311"/>
			<point x="400" y="315"/>
			<point name="n19" x="385" y="315" type="curve" smooth="yes"/>
			<point x="261" y="315"/>
			<point x="117" y="286"/>
			<point x="82" y="135" type="curve" smooth="yes"/>
			<point x="58" y="30"/>
			<point x="137" y="-14"/>
			<point name="n25" x="219" y="-14" type="curve" smooth="yes"/>
			<point x="305" y="-14"/>
			<point x="352" y="27"/>
			<point x="403" y="72" type="curve"/>
			<point x="399" y="56"/>
			<point x="392" y="22"/>
			<point name="n31" x="397" y="-1" type="curve"/>
			<point name="n32" x="490" y="-1" type="line"/>
			<point x="490" y="28"/>
			<point x="497" y="89"/>
			<point x="507" y="134" type="curve"/>
			<point x="508" y="137"/>
			<point x="508" y="140"/>
			<point x="509" y="143" type="curve"/>
			<point x="530" y="230" type="line" smooth="yes"/>
			<point x="535" y="251"/>
			<point x="549" y="296"/>
			<point x="559" y="340" type="curve" smooth="yes"/>
			<point x="591" y="479"/>
			<point x="536" y="513"/>
			<point name="n45" x="388" y="513" type="curve" smooth="yes"/>
			<point x="270" y="513"/>
			<point x="182" y="453"/>
			<point name="n48" x="162" y="366" type="curve"/>
			<point name="n49" x="257" y="366" type="line"/>
			<point x="270" y="424"/>
			<point x="328" y="448"/>
			<point name="n52" x="382" y="448" type="curve"/>
		</contour>
		<contour>
			<point name="n53" x="367" y="631" type="line"/>
			<point name="n54" x="388" y="723" type="line"/>
			<point x="298" y="723" type="line"/>
			<point x="277" y="631" type="line"/>
		</contour>
		<contour>
			<point x="567" y="631" type="line"/>
			<point x="588" y="723" type="line"/>
			<point x="498" y="723" type="line"/>
			<point x="477" y="631" type="line"/>
		</contour>
		<contour>
			<point name="n61" x="588" y="783" type="line"/>
			<point name="n62" x="604" y="852" type="line"/>
			<point x="342" y="852" type="line"/>
			<point x="326" y="783" type="line"/>
		</contour>
	</outline>
</glyph>
<glyph name="kcaron" format="2">
	<unicode hex="01E9"/>
	<advance width="479"/>
	<outline>
		<contour>
			<point name="n00" x="459" y="0" type="line"/>
			<point x="308" y="282" type="line"/>
			<point name="n02" x="558" y="500" type="line"/>
			<point x="445" y="500" type="line"/>
			<point x="207" y="292" type="line"/>
			<point name="n05" x="307" y="722" type="line"/>
			<point x="217" y="722" type="line"/>
			<point x="50" y="0" type="line"/>
			<point x="140" y="0" type="line"/>
			<point x="202" y="267" type="line"/>
			<point x="340" y="0" type="line"/>
		</contour>
		<contour>
			<point x="460" y="952" type="line"/>
			<point x="400" y="952" type="line"/>
			<point x="289" y="842" type="line"/>
			<point x="230" y="952" type="line"/>
			<point x="170" y="952" type="line"/>
			<point x="221" y="782" type="line"/>
			<point x="331" y="782" type="line"/>
		</contour>
	</outline>
</glyph>
<glyph name="uni01EA" format="2">
	<unicode hex="01EA"/>
	<advance width="754"/>
	<outline>
		<contour>
			<point x="687" y="375" type="curve" smooth="yes"/>
			<point x="648" y="207"/>
			<point x="562" y="74"/>
			<point name="n03" x="394" y="74" type="curve" smooth="yes"/>
			<point x="226" y="74"/>
			<point x="200" y="208"/>
			<point x="239" y="375" type="curve" smooth="yes"/>
			<point x="281" y="558"/>
			<point x="377" y="649"/>
			<point name="n09" x="527" y="649" type="curve" smooth="yes"/>
			<point x="693" y="649"/>
			<point x="725" y="540"/>
		</contour>
		<contour>
			<point name="n12" x="313" y="-227" type="line"/>
			<point x="325" y="-227"/>
			<point x="349" y="-226"/>
			<point x="385" y="-223" type="curve"/>
			<point x="401" y="-153" type="line"/>
			<point name="n17" x="360" y="-157" type="line"/>
			<point x="327" y="-157"/>
			<point x="314" y="-146"/>
			<point x="319" y="-123" type="curve" smooth="yes"/>
			<point x="329" y="-79"/>
			<point x="370" y="-29"/>
			<point name="n23" x="387" y="-14" type="curve"/>
			<point x="597" y="-7"/>
			<point x="740" y="161"/>
			<point x="789" y="374" type="curve" smooth="yes"/>
			<point x="838" y="588"/>
			<point x="761" y="735"/>
			<point name="n29" x="547" y="735" type="curve" smooth="yes"/>
			<point x="332" y="735"/>
			<point x="184" y="588"/>
			<point x="135" y="374" type="curve" smooth="yes"/>
			<point x="87" y="166"/>
			<point x="150" y="-1"/>
			<point x="348" y="-14" type="curve"/>
			<point x="332" y="-27" type="line"/>
			<point x="303" y="-47"/>
			<point x="254" y="-100"/>
			<point x="244" y="-143" type="curve" smooth="yes"/>
			<point x="231" y="-198"/>
			<point x="257" y="-228"/>
			<point x="312" y="-228" type="curve"/>
		</contour>
	</outline>
</glyph>
<glyph name="uni01ED" format="2">
	<unicode hex="01ED"/>
	<advance width="580"/>
	<outline>
		<contour>
			<point x="503" y="248" type="curve" smooth="yes"/>
			<point x="480" y="148"/>
			<point x="405" y="51"/>
			<point name="n03" x="302" y="51" type="curve" smooth="yes"/>
			<point x="199" y="51"/>
			<point x="168" y="148"/>
			<point x="191" y="248" type="curve" smooth="yes"/>
			<point x="214" y="349"/>
			<point x="290" y="447"/>
			<point name="n09" x="393" y="447" type="curve" smooth="yes"/>
			<point x="496" y="447"/>
			<point x="526" y="349"/>
		</contour>
		<contour>
			<point x="598" y="250" type="line"/>
			<point x="635" y="410"/>
			<point x="564" y="512"/>
			<point name="n15" x="408" y="512" type="curve" smooth="yes"/>
			<point x="253" y="512"/>
			<point x="134" y="408"/>
			<point x="97" y="249" type="curve" smooth="yes"/>
			<point x="63" y="101"/>
			<point x="122" y="1"/>
			<point x="255" y="-12" type="curve"/>
			<point x="240" y="-24" type="line"/>
			<point x="211" y="-44"/>
			<point x="163" y="-97"/>
			<point x="153" y="-140" type="curve" smooth="yes"/>
			<point x="140" y="-195"/>
			<point x="166" y="-225"/>
			<point name="n28" x="221" y="-225" type="curve" smooth="yes"/>
			<point x="233" y="-225"/>
			<point x="257" y="-224"/>
			<point x="293" y="-221" type="curve"/>
			<point x="309" y="-151" type="line"/>
			<point name="n33" x="268" y="-155" type="line"/>
			<point x="235" y="-155"/>
			<point x="222" y="-144"/>
			<point x="227" y="-121" type="curve" smooth="yes"/>
			<point x="237" y="-77"/>
			<point x="279" y="-27"/>
			<point name="n39" x="294" y="-13" type="curve"/>
			<point x="446" y="-13"/>
			<point x="561" y="94"/>
			<point x="597" y="249" type="curve"/>
		</contour>
		<contour>
			<point name="n43" x="549" y="574" type="line"/>
			<point name="n44" x="564" y="643" type="line"/>
			<point x="302" y="643" type="line"/>
			<point x="287" y="574" type="line"/>
		</contour>
	</outline>
</glyph>
<glyph name="uni01EF" format="2">
	<unicode hex="01EF"/>
	<advance width="511"/>
	<outline>
		<contour>
			<point x="463" y="12" type="line"/>
			<point x="492" y="137"/>
			<point x="421" y="241"/>
			<point x="318" y="241" type="curve" smooth="yes"/>
			<point x="315" y="241" type="line"/>
			<point x="526" y="417" type="line"/>
			<point x="545" y="499" type="line"/>
			<point name="n07" x="164" y="499" type="line"/>
			<point name="n08" x="148" y="429" type="line"/>
			<point x="434" y="429" type="line"/>
			<point x="186" y="224" type="line"/>
			<point x="177" y="187" type="line"/>
			<point x="328" y="187"/>
			<point x="401" y="126"/>
			<point x="376" y="17" type="curve" smooth="yes"/>
			<point x="353" y="-82"/>
			<point x="300" y="-132"/>
			<point name="n17" x="216" y="-132" type="curve" smooth="yes"/>
			<point x="121" y="-132"/>
			<point x="87" y="-98"/>
			<point name="n20" x="103" y="-29" type="curve"/>
			<point name="n21" x="14" y="-29" type="line"/>
			<point x="-12" y="-141"/>
			<point x="55" y="-198"/>
			<point name="n24" x="193" y="-198" type="curve" smooth="yes"/>
			<point x="328" y="-198"/>
			<point x="436" y="-109"/>
			<point x="464" y="13" type="curve"/>
		</contour>
		<contour>
			<point x="557" y="743" type="line"/>
			<point x="497" y="743" type="line"/>
			<point x="386" y="633" type="line"/>
			<point x="327" y="743" type="line"/>
			<point x="267" y="743" type="line"/>
			<point x="317" y="573" type="line"/>
			<point x="427" y="573" type="line"/>
		</contour>
	</outline>
</glyph>
<glyph name="Aringacute" format="2">
	<unicode hex="01FA"/>
	<advance width="750"/>
	<outline>
		<contour>
			<point name="n00" x="571" y="278" type="line"/>
			<point x="298" y="278" type="line"/>
			<point x="510" y="611" type="line"/>
		</contour>
		<contour>
			<point name="n03" x="564" y="860" type="curve" smooth="yes"/>
			<point x="525" y="860"/>
			<point x="500" y="890"/>
			<point x="509" y="929" type="curve" smooth="yes"/>
			<point x="518" y="968"/>
			<point x="557" y="999"/>
			<point name="n09" x="596" y="999" type="curve" smooth="yes"/>
			<point x="635" y="999"/>
			<point x="657" y="968"/>
			<point x="648" y="929" type="curve" smooth="yes"/>
			<point x="639" y="890"/>
			<point x="603" y="860"/>
		</contour>
		<contour>
			<point name="n15" x="734" y="0" type="line"/>
			<point name="n16" x="594" y="722" type="line"/>
			<point x="484" y="722" type="line"/>
			<point x="14" y="0" type="line"/>
			<point x="117" y="0" type="line"/>
			<point x="241" y="193" type="line"/>
			<point name="n21" x="595" y="193" type="line"/>
			<point x="628" y="0" type="line"/>
		</contour>
		<contour>
			<point name="n23" x="605" y="1040" type="curve" smooth="yes"/>
			<point x="544" y="1040"/>
			<point x="484" y="991"/>
			<point x="470" y="930" type="curve" smooth="yes"/>
			<point x="456" y="869"/>
			<point x="493" y="820"/>
			<point name="n29" x="554" y="820" type="curve" smooth="yes"/>
			<point x="614" y="820"/>
			<point x="676" y="870"/>
			<point x="690" y="930" type="curve" smooth="yes"/>
			<point x="704" y="991"/>
			<point x="666" y="1040"/>
		</contour>
		<contour>
			<point x="829" y="1271" type="line"/>
			<point x="728" y="1271" type="line"/>
			<point x="589" y="1100" type="line"/>
			<point x="650" y="1100" type="line"/>
		</contour>
	</outline>
</glyph>
<glyph name="uni0203" format="2">
	<unicode hex="0203"/>
	<advance width="561"/>
	<outline>
		<contour>
			<point name="n00" x="551" y="573" type="line"/>
			<point x="555" y="638"/>
			<point x="506" y="690"/>
			<point name="n03" x="437" y="690" type="curve" smooth="yes"/>
			<point x="366" y="690"/>
			<point x="292" y="639"/>
			<point x="269" y="573" type="curve"/>
			<point x="321" y="573" type="line"/>
			<point x="334" y="604"/>
			<point x="388" y="626"/>
			<point name="n10" x="424" y="626" type="curve" smooth="yes"/>
			<point x="460" y="626"/>
			<point x="502" y="604"/>
			<point name="n13" x="501" y="573" type="curve"/>
		</contour>
		<contour>
			<point x="179" y="144" type="line"/>
			<point x="199" y="229"/>
			<point x="317" y="249"/>
			<point name="n17" x="397" y="249" type="curve"/>
			<point x="398" y="249"/>
			<point x="415" y="248"/>
			<point x="448" y="246" type="curve"/>
			<point x="420" y="126"/>
			<point x="374" y="55"/>
			<point name="n23" x="258" y="55" type="curve" smooth="yes"/>
			<point x="204" y="55"/>
			<point x="167" y="91"/>
			<point x="179" y="145" type="curve"/>
		</contour>
		<contour>
			<point x="387" y="447" type="line"/>
			<point x="456" y="447"/>
			<point x="491" y="412"/>
			<point x="477" y="350" type="curve"/>
			<point x="474" y="339"/>
			<point x="470" y="327"/>
			<point x="464" y="314" type="curve"/>
			<point x="450" y="314"/>
			<point x="410" y="316"/>
			<point name="n36" x="396" y="316" type="curve" smooth="yes"/>
			<point x="268" y="316"/>
			<point x="116" y="281"/>
			<point x="82" y="132" type="curve" smooth="yes"/>
			<point x="61" y="40"/>
			<point x="148" y="-13"/>
			<point name="n42" x="240" y="-13" type="curve" smooth="yes"/>
			<point x="318" y="-13"/>
			<point x="362" y="25"/>
			<point x="414" y="73" type="curve"/>
			<point x="411" y="62"/>
			<point x="410" y="38"/>
			<point name="n48" x="408" y="0" type="curve"/>
			<point name="n49" x="498" y="0" type="line"/>
			<point x="495" y="25"/>
			<point x="505" y="86"/>
			<point x="527" y="183" type="curve" smooth="yes"/>
			<point x="552" y="290" type="line" smooth="yes"/>
			<point x="570" y="366"/>
			<point x="576" y="412"/>
			<point x="573" y="429" type="curve" smooth="yes"/>
			<point x="563" y="486"/>
			<point x="506" y="514"/>
			<point name="n59" x="400" y="514" type="curve" smooth="yes"/>
			<point x="266" y="514"/>
			<point x="186" y="463"/>
			<point name="n62" x="164" y="366" type="curve"/>
			<point name="n63" x="257" y="366" type="line"/>
			<point x="270" y="424"/>
			<point x="330" y="447"/>
			<point name="n66" x="388" y="447" type="curve"/>
		</contour>
	</outline>
</glyph>
<glyph name="uni0209" format="2">
	<unicode hex="0209"/>
	<advance width="229"/>
	<outline>
		<contour>
			<point name="n00" x="160" y="0" type="line"/>
			<point name="n01" x="275" y="500" type="line"/>
			<point x="185" y="500" type="line"/>
			<point name="n03" x="70" y="0" type="line"/>
		</contour>
		<contour>
			<point x="202" y="573" type="line"/>
			<point x="172" y="744" type="line"/>
			<point x="82" y="744" type="line"/>
			<point x="152" y="573" type="line"/>
		</contour>
		<contour>
			<point name="n08" x="342" y="573" type="line"/>
			<point x="312" y="744" type="line"/>
			<point x="222" y="744" type="line"/>
			<point x="292" y="573" type="line"/>
		</contour>
	</outline>
</glyph>
<glyph name="uni020E" format="2">
	<unicode hex="020E"/>
	<advance width="754"/>
	<outline>
		<contour>
			<point x="690" y="375" type="curve" smooth="yes"/>
			<point x="651" y="207"/>
			<point x="565" y="74"/>
			<point name="n03" x="397" y="74" type="curve" smooth="yes"/>
			<point x="229" y="74"/>
			<point x="203" y="208"/>
			<point x="242" y="375" type="curve" smooth="yes"/>
			<point x="284" y="558"/>
			<point x="380" y="649"/>
			<point name="n09" x="530" y="649" type="curve" smooth="yes"/>
			<point x="696" y="649"/>
			<point x="728" y="540"/>
		</contour>
		<contour>
			<point x="793" y="375" type="curve" smooth="yes"/>
			<point x="842" y="589"/>
			<point x="764" y="736"/>
			<point name="n15" x="550" y="736" type="curve" smooth="yes"/>
			<point x="335" y="736"/>
			<point x="188" y="589"/>
			<point x="139" y="375" type="curve" smooth="yes"/>
			<point x="89" y="158"/>
			<point x="159" y="-14"/>
			<point name="n21" x="377" y="-14" type="curve" smooth="yes"/>
			<point x="594" y="-14"/>
			<point x="743" y="157"/>
		</contour>
		<contour>
			<point name="n24" x="703" y="796" type="line"/>
			<point x="707" y="861"/>
			<point x="658" y="913"/>
			<point name="n27" x="589" y="913" type="curve" smooth="yes"/>
			<point x="518" y="913"/>
			<point x="444" y="862"/>
			<point x="421" y="796" type="curve"/>
			<point x="473" y="796" type="line"/>
			<point x="486" y="827"/>
			<point x="539" y="849"/>
			<point name="n34" x="575" y="849" type="curve" smooth="yes"/>
			<point x="611" y="849"/>
			<point x="654" y="827"/>
			<point name="n37" x="653" y="796" type="curve"/>
		</contour>
	</outline>
</glyph>
<glyph name="uni0212" format="2">
	<unicode hex="0212"/>
	<advance width="617"/>
	<outline>
		<contour>
			<point x="379" y="414" type="curve" smooth="yes"/>
			<point name="n01" x="254" y="414" type="line"/>
			<point x="304" y="634" type="line"/>
			<point name="n03" x="429" y="634" type="line" smooth="yes"/>
			<point x="523" y="634"/>
			<point x="587" y="613"/>
			<point x="566" y="524" type="curve" smooth="yes"/>
			<point x="546" y="436"/>
			<point x="473" y="414"/>
		</contour>
		<contour>
			<point x="566" y="0" type="line"/>
			<point x="556" y="77"/>
			<point x="575" y="275"/>
			<point name="n12" x="572" y="292" type="curve" smooth="yes"/>
			<point x="564" y="340"/>
			<point x="524" y="365"/>
			<point x="496" y="369" type="curve"/>
			<point x="596" y="412"/>
			<point x="653" y="464"/>
			<point x="667" y="525" type="curve" smooth="yes"/>
			<point x="700" y="668"/>
			<point x="628" y="722"/>
			<point name="n21" x="453" y="722" type="curve" smooth="yes"/>
			<point x="224" y="722" type="line"/>
			<point x="57" y="0" type="line"/>
			<point x="158" y="0" type="line"/>
			<point name="n25" x="234" y="328" type="line"/>
			<point x="353" y="328" type="line" smooth="yes"/>
			<point x="380" y="328"/>
			<point x="396" y="327"/>
			<point x="421" y="320" type="curve" smooth="yes"/>
			<point x="502" y="298"/>
			<point x="462" y="131"/>
			<point name="n32" x="462" y="-1" type="curve"/>
		</contour>
		<contour>
			<point name="n33" x="497" y="796" type="line"/>
			<point name="hr01" x="501" y="861"/>
			<point x="452" y="913"/>
			<point name="n36" x="383" y="913" type="curve" smooth="yes"/>
			<point x="312" y="913"/>
			<point x="238" y="862"/>
			<point x="215" y="796" type="curve"/>
			<point x="267" y="796" type="line"/>
			<point x="280" y="827"/>
			<point x="333" y="849"/>
			<point name="n43" x="369" y="849" type="curve" smooth="yes"/>
			<point x="405" y="849"/>
			<point x="448" y="827"/>
			<point name="n46" x="447" y="796" type="curve"/>
		</contour>
	</outline>
</glyph>
<glyph name="uni0214" format="2">
	<unicode hex="0214"/>
	<advance width="697"/>
	<outline>
		<contour>
			<point x="345" y="-14" type="line"/>
			<point x="562" y="-14"/>
			<point x="659" y="96"/>
			<point x="711" y="322" type="curve" smooth="yes"/>
			<point name="n04" x="804" y="722" type="line"/>
			<point x="703" y="722" type="line"/>
			<point x="610" y="322" type="line" smooth="yes"/>
			<point x="572" y="157"/>
			<point x="507" y="74"/>
			<point name="n09" x="365" y="74" type="curve" smooth="yes"/>
			<point x="216" y="74"/>
			<point x="199" y="168"/>
			<point x="235" y="322" type="curve" smooth="yes"/>
			<point x="328" y="722" type="line"/>
			<point x="227" y="722" type="line"/>
			<point x="134" y="322" type="line" smooth="yes"/>
			<point x="82" y="96"/>
			<point x="129" y="-14"/>
			<point name="n18" x="346" y="-14" type="curve"/>
		</contour>
		<contour>
			<point x="487" y="796" type="line"/>
			<point x="456" y="967" type="line"/>
			<point x="366" y="967" type="line"/>
			<point x="437" y="796" type="line"/>
		</contour>
		<contour>
			<point x="627" y="796" type="line"/>
			<point x="596" y="967" type="line"/>
			<point x="506" y="967" type="line"/>
			<point x="577" y="796" type="line"/>
		</contour>
	</outline>
</glyph>
<glyph name="uni0216" format="2">
	<unicode hex="0216"/>
	<advance width="697"/>
	<outline>
		<contour>
			<point x="347" y="-14" type="line"/>
			<point x="564" y="-14"/>
			<point x="661" y="96"/>
			<point x="713" y="322" type="curve" smooth="yes"/>
			<point name="n04" x="806" y="722" type="line"/>
			<point x="705" y="722" type="line"/>
			<point x="612" y="322" type="line" smooth="yes"/>
			<point x="574" y="157"/>
			<point x="509" y="74"/>
			<point name="n09" x="367" y="74" type="curve" smooth="yes"/>
			<point x="218" y="74"/>
			<point x="201" y="168"/>
			<point x="237" y="322" type="curve" smooth="yes"/>
			<point x="330" y="722" type="line"/>
			<point x="229" y="722" type="line"/>
			<point x="136" y="322" type="line" smooth="yes"/>
			<point x="84" y="96"/>
			<point x="131" y="-14"/>
			<point name="n18" x="348" y="-14" type="curve"/>
		</contour>
		<contour>
			<point name="n19" x="673" y="796" type="line"/>
			<point x="677" y="861"/>
			<point x="628" y="913"/>
			<point name="n22" x="559" y="913" type="curve" smooth="yes"/>
			<point x="488" y="913"/>
			<point x="414" y="862"/>
			<point x="391" y="796" type="curve"/>
			<point x="443" y="796" type="line"/>
			<point x="456" y="827"/>
			<point x="509" y="849"/>
			<point name="n29" x="545" y="849" type="curve" smooth="yes"/>
			<point x="581" y="849"/>
			<point x="624" y="827"/>
			<point name="n32" x="623" y="796" type="curve"/>
		</contour>
	</outline>
</glyph>
<glyph name="uni0217" format="2">
	<unicode hex="0217"/>
	<advance width="533"/>
	<outline>
		<contour>
			<point name="n00" x="273" y="48" type="line"/>
			<point x="207" y="48"/>
			<point x="165" y="103"/>
			<point x="180" y="169" type="curve" smooth="yes"/>
			<point name="n04" x="256" y="500" type="line"/>
			<point x="166" y="500" type="line"/>
			<point x="90" y="171" type="line" smooth="yes"/>
			<point x="61" y="46"/>
			<point x="111" y="-13"/>
			<point name="n09" x="239" y="-13" type="curve" smooth="yes"/>
			<point x="308" y="-13"/>
			<point x="365" y="13"/>
			<point x="410" y="64" type="curve"/>
			<point name="n13" x="395" y="0" type="line"/>
			<point x="485" y="0" type="line"/>
			<point x="600" y="500" type="line"/>
			<point x="510" y="500" type="line"/>
			<point x="436" y="178" type="line" smooth="yes"/>
			<point x="419" y="103"/>
			<point name="hr02" x="348" y="48"/>
			<point x="274" y="48" type="curve"/>
		</contour>
		<contour>
			<point name="n21" x="539" y="573" type="line"/>
			<point x="543" y="638"/>
			<point x="494" y="690"/>
			<point name="n24" x="425" y="690" type="curve" smooth="yes"/>
			<point x="354" y="690"/>
			<point x="280" y="639"/>
			<point x="257" y="573" type="curve"/>
			<point x="309" y="573" type="line"/>
			<point x="322" y="604"/>
			<point x="376" y="626"/>
			<point name="n31" x="412" y="626" type="curve" smooth="yes"/>
			<point x="448" y="626"/>
			<point x="490" y="604"/>
			<point name="n34" x="489" y="573" type="curve"/>
		</contour>
	</outline>
</glyph>
<glyph name="uni022F" format="2">
	<unicode hex="022F"/>
	<advance width="580"/>
	<outline>
		<contour>
			<point x="503" y="248" type="curve" smooth="yes"/>
			<point x="480" y="148"/>
			<point x="405" y="51"/>
			<point name="n03" x="302" y="51" type="curve" smooth="yes"/>
			<point x="199" y="51"/>
			<point x="168" y="148"/>
			<point x="191" y="248" type="curve" smooth="yes"/>
			<point x="214" y="349"/>
			<point x="290" y="447"/>
			<point name="n09" x="393" y="447" type="curve" smooth="yes"/>
			<point x="496" y="447"/>
			<point x="526" y="349"/>
		</contour>
		<contour>
			<point x="598" y="250" type="line"/>
			<point x="635" y="410"/>
			<point x="564" y="512"/>
			<point name="n15" x="408" y="512" type="curve" smooth="yes"/>
			<point x="253" y="512"/>
			<point x="134" y="408"/>
			<point x="97" y="249" type="curve" smooth="yes"/>
			<point x="60" y="90"/>
			<point x="132" y="-14"/>
			<point name="n21" x="287" y="-14" type="curve" smooth="yes"/>
			<point x="443" y="-14"/>
			<point x="560" y="88"/>
			<point x="597" y="248" type="curve"/>
		</contour>
		<contour>
			<point name="n25" x="462" y="573" type="line"/>
			<point name="n26" x="485" y="673" type="line"/>
			<point x="395" y="673" type="line"/>
			<point x="372" y="573" type="line"/>
		</contour>
	</outline>
</glyph>
<glyph name="j.dotless" format="2">
  <advance width="274"/>
  <unicode hex="0237"/>
  <anchor x="285.333" y="580" name="top"/>
  <outline>
    <contour>
      <point x="-6.33333" y="-204" type="line"/>
      <point x="30.6667" y="-204" type="line" smooth="yes"/>
      <point x="111" y="-204"/>
      <point x="173.667" y="-171.667"/>
      <point x="195.667" y="-76" type="curve" smooth="yes"/>
      <point x="328" y="500" type="line"/>
      <point x="223" y="500" type="line"/>
      <point x="97.3333" y="-46" type="line" smooth="yes"/>
      <point x="86.6667" y="-91"/>
      <point x="69.3333" y="-124"/>
      <point x="21.6667" y="-124" type="curve" smooth="yes"/>
      <point x="10.6667" y="-124" type="line"/>
    </contour>
  </outline>
</glyph>
